<ttFont>
    <TTGlyph name="A" xMin="-10" yMin="-38" xMax="461" yMax="602">
      <contour>
        <pt x="227" y="594" on="1"/>
        <pt x="252" y="602" on="1"/>
        <pt x="286" y="602" on="0"/>
        <pt x="286" y="512" on="1"/>
        <pt x="317" y="281" on="1"/>
        <pt x="321" y="277" on="1"/>
        <pt x="436" y="319" on="1"/>
        <pt x="459" y="319" on="0"/>
        <pt x="461" y="284" on="1"/>
        <pt x="461" y="258" on="0"/>
        <pt x="334" y="221" on="1"/>
        <pt x="330" y="219" on="1"/>
        <pt x="330" y="215" on="1"/>
        <pt x="330" y="194" on="0"/>
        <pt x="396" y="-4" on="1"/>
        <pt x="396" y="-6" on="1"/>
        <pt x="396" y="-25" on="0"/>
        <pt x="365" y="-38" on="1"/>
        <pt x="336" y="-38" on="0"/>
        <pt x="327" y="31" on="1"/>
        <pt x="304" y="81" on="0"/>
        <pt x="271" y="196" on="1"/>
        <pt x="267" y="196" on="1"/>
        <pt x="136" y="169" on="0"/>
        <pt x="136" y="150" on="1"/>
        <pt x="64" y="-6" on="0"/>
        <pt x="27" y="-6" on="1"/>
        <pt x="6" y="-6" on="0"/>
        <pt x="2" y="21" on="1"/>
        <pt x="2" y="45" on="0"/>
        <pt x="55" y="115" on="1"/>
        <pt x="71" y="150" on="1"/>
        <pt x="46" y="150" on="1"/>
        <pt x="27" y="146" on="1"/>
        <pt x="-10" y="155" on="0"/>
        <pt x="-10" y="184" on="1"/>
        <pt x="5" y="219" on="0"/>
        <pt x="34" y="219" on="1"/>
        <pt x="59" y="209" on="1"/>
        <pt x="115" y="209" on="0"/>
        <pt x="115" y="250" on="1"/>
        <pt x="166" y="370" on="0"/>
      </contour>
      <contour>
        <pt x="236" y="412" on="1"/>
        <pt x="177" y="234" on="1"/>
        <pt x="259" y="250" on="0"/>
        <pt x="259" y="265" on="1"/>
        <pt x="244" y="412" on="0"/>
      </contour>
    </TTGlyph>
    <TTGlyph name="AE" xMin="-10" yMin="-38" xMax="601" yMax="629">
      <contour>
        <pt x="517" y="629" on="1"/>
        <pt x="536" y="629" on="0"/>
        <pt x="542" y="597" on="1"/>
        <pt x="542" y="579" on="0"/>
        <pt x="480" y="547" on="1"/>
        <pt x="402" y="481" on="0"/>
        <pt x="364" y="314" on="1"/>
        <pt x="364" y="295" on="1"/>
        <pt x="451" y="338" on="0"/>
        <pt x="489" y="347" on="1"/>
        <pt x="500" y="347" on="0"/>
        <pt x="517" y="326" on="1"/>
        <pt x="517" y="307" on="1"/>
        <pt x="517" y="296" on="0"/>
        <pt x="456" y="274" on="1"/>
        <pt x="442" y="257" on="0"/>
        <pt x="381" y="236" on="1"/>
        <pt x="364" y="225" on="0"/>
        <pt x="364" y="222" on="1"/>
        <pt x="364" y="214" on="1"/>
        <pt x="364" y="156" on="0"/>
        <pt x="436" y="116" on="1"/>
        <pt x="470" y="110" on="1"/>
        <pt x="503" y="110" on="0"/>
        <pt x="567" y="151" on="1"/>
        <pt x="580" y="151" on="1"/>
        <pt x="601" y="140" on="0"/>
        <pt x="601" y="122" on="1"/>
        <pt x="601" y="116" on="1"/>
        <pt x="539" y="51" on="0"/>
        <pt x="464" y="51" on="1"/>
        <pt x="406" y="51" on="0"/>
        <pt x="362" y="95" on="1"/>
        <pt x="368" y="76" on="0"/>
        <pt x="396" y="-4" on="1"/>
        <pt x="396" y="-6" on="1"/>
        <pt x="396" y="-25" on="0"/>
        <pt x="365" y="-38" on="1"/>
        <pt x="336" y="-38" on="0"/>
        <pt x="327" y="31" on="1"/>
        <pt x="303" y="81" on="0"/>
        <pt x="272" y="187" on="1"/>
        <pt x="245" y="182" on="1"/>
        <pt x="225" y="186" on="1"/>
        <pt x="136" y="165" on="0"/>
        <pt x="136" y="150" on="1"/>
        <pt x="64" y="-6" on="0"/>
        <pt x="27" y="-6" on="1"/>
        <pt x="6" y="-6" on="0"/>
        <pt x="2" y="21" on="1"/>
        <pt x="2" y="45" on="0"/>
        <pt x="55" y="115" on="1"/>
        <pt x="71" y="150" on="1"/>
        <pt x="46" y="150" on="1"/>
        <pt x="27" y="146" on="1"/>
        <pt x="-10" y="155" on="0"/>
        <pt x="-10" y="184" on="1"/>
        <pt x="5" y="219" on="0"/>
        <pt x="34" y="219" on="1"/>
        <pt x="59" y="209" on="1"/>
        <pt x="115" y="209" on="0"/>
        <pt x="115" y="250" on="1"/>
        <pt x="166" y="370" on="0"/>
        <pt x="227" y="594" on="1"/>
        <pt x="252" y="602" on="1"/>
        <pt x="286" y="602" on="0"/>
        <pt x="286" y="512" on="1"/>
        <pt x="309" y="345" on="1"/>
        <pt x="331" y="468" on="0"/>
        <pt x="430" y="579" on="1"/>
        <pt x="495" y="629" on="0"/>
      </contour>
      <contour>
        <pt x="236" y="412" on="1"/>
        <pt x="177" y="234" on="1"/>
        <pt x="259" y="250" on="0"/>
        <pt x="259" y="265" on="1"/>
        <pt x="244" y="412" on="0"/>
      </contour>
    </TTGlyph>
    <TTGlyph name="AEacute" xMin="-10" yMin="-38" xMax="601" yMax="967">
      <contour>
        <pt x="517" y="629" on="1"/>
        <pt x="536" y="629" on="0"/>
        <pt x="542" y="597" on="1"/>
        <pt x="542" y="579" on="0"/>
        <pt x="480" y="547" on="1"/>
        <pt x="402" y="481" on="0"/>
        <pt x="364" y="314" on="1"/>
        <pt x="364" y="295" on="1"/>
        <pt x="451" y="338" on="0"/>
        <pt x="489" y="347" on="1"/>
        <pt x="500" y="347" on="0"/>
        <pt x="517" y="326" on="1"/>
        <pt x="517" y="307" on="1"/>
        <pt x="517" y="296" on="0"/>
        <pt x="456" y="274" on="1"/>
        <pt x="442" y="257" on="0"/>
        <pt x="381" y="236" on="1"/>
        <pt x="364" y="225" on="0"/>
        <pt x="364" y="222" on="1"/>
        <pt x="364" y="214" on="1"/>
        <pt x="364" y="156" on="0"/>
        <pt x="436" y="116" on="1"/>
        <pt x="470" y="110" on="1"/>
        <pt x="503" y="110" on="0"/>
        <pt x="567" y="151" on="1"/>
        <pt x="580" y="151" on="1"/>
        <pt x="601" y="140" on="0"/>
        <pt x="601" y="122" on="1"/>
        <pt x="601" y="116" on="1"/>
        <pt x="539" y="51" on="0"/>
        <pt x="464" y="51" on="1"/>
        <pt x="406" y="51" on="0"/>
        <pt x="362" y="95" on="1"/>
        <pt x="368" y="76" on="0"/>
        <pt x="396" y="-4" on="1"/>
        <pt x="396" y="-6" on="1"/>
        <pt x="396" y="-25" on="0"/>
        <pt x="365" y="-38" on="1"/>
        <pt x="336" y="-38" on="0"/>
        <pt x="327" y="31" on="1"/>
        <pt x="303" y="81" on="0"/>
        <pt x="272" y="187" on="1"/>
        <pt x="245" y="182" on="1"/>
        <pt x="225" y="186" on="1"/>
        <pt x="136" y="165" on="0"/>
        <pt x="136" y="150" on="1"/>
        <pt x="64" y="-6" on="0"/>
        <pt x="27" y="-6" on="1"/>
        <pt x="6" y="-6" on="0"/>
        <pt x="2" y="21" on="1"/>
        <pt x="2" y="45" on="0"/>
        <pt x="55" y="115" on="1"/>
        <pt x="71" y="150" on="1"/>
        <pt x="46" y="150" on="1"/>
        <pt x="27" y="146" on="1"/>
        <pt x="-10" y="155" on="0"/>
        <pt x="-10" y="184" on="1"/>
        <pt x="5" y="219" on="0"/>
        <pt x="34" y="219" on="1"/>
        <pt x="59" y="209" on="1"/>
        <pt x="115" y="209" on="0"/>
        <pt x="115" y="250" on="1"/>
        <pt x="166" y="370" on="0"/>
        <pt x="227" y="594" on="1"/>
        <pt x="252" y="602" on="1"/>
        <pt x="286" y="602" on="0"/>
        <pt x="286" y="512" on="1"/>
        <pt x="309" y="345" on="1"/>
        <pt x="331" y="468" on="0"/>
        <pt x="430" y="579" on="1"/>
        <pt x="495" y="629" on="0"/>
      </contour>
      <contour>
        <pt x="236" y="412" on="1"/>
        <pt x="177" y="234" on="1"/>
        <pt x="259" y="250" on="0"/>
        <pt x="259" y="265" on="1"/>
        <pt x="244" y="412" on="0"/>
      </contour>
      <contour>
        <pt x="184" y="851" on="1"/>
        <pt x="186" y="880" on="0"/>
        <pt x="214" y="889" on="1"/>
        <pt x="377" y="967" on="0"/>
        <pt x="415" y="967" on="1"/>
        <pt x="417" y="967" on="0"/>
        <pt x="418" y="967" on="1"/>
        <pt x="443" y="966" on="0"/>
        <pt x="446" y="930" on="1"/>
        <pt x="439" y="902" on="1"/>
        <pt x="303" y="854" on="0"/>
        <pt x="276" y="847" on="1"/>
        <pt x="266" y="830" on="0"/>
        <pt x="213" y="814" on="1"/>
        <pt x="189" y="816" on="0"/>
      </contour>
    </TTGlyph>
    <TTGlyph name="Aacute" xMin="-10" yMin="-38" xMax="461" yMax="803">
      <contour>
        <pt x="227" y="594" on="1"/>
        <pt x="252" y="602" on="1"/>
        <pt x="286" y="602" on="0"/>
        <pt x="286" y="512" on="1"/>
        <pt x="317" y="281" on="1"/>
        <pt x="321" y="277" on="1"/>
        <pt x="436" y="319" on="1"/>
        <pt x="459" y="319" on="0"/>
        <pt x="461" y="284" on="1"/>
        <pt x="461" y="258" on="0"/>
        <pt x="334" y="221" on="1"/>
        <pt x="330" y="219" on="1"/>
        <pt x="330" y="215" on="1"/>
        <pt x="330" y="194" on="0"/>
        <pt x="396" y="-4" on="1"/>
        <pt x="396" y="-6" on="1"/>
        <pt x="396" y="-25" on="0"/>
        <pt x="365" y="-38" on="1"/>
        <pt x="336" y="-38" on="0"/>
        <pt x="327" y="31" on="1"/>
        <pt x="304" y="81" on="0"/>
        <pt x="271" y="196" on="1"/>
        <pt x="267" y="196" on="1"/>
        <pt x="136" y="169" on="0"/>
        <pt x="136" y="150" on="1"/>
        <pt x="64" y="-6" on="0"/>
        <pt x="27" y="-6" on="1"/>
        <pt x="6" y="-6" on="0"/>
        <pt x="2" y="21" on="1"/>
        <pt x="2" y="45" on="0"/>
        <pt x="55" y="115" on="1"/>
        <pt x="71" y="150" on="1"/>
        <pt x="46" y="150" on="1"/>
        <pt x="27" y="146" on="1"/>
        <pt x="-10" y="155" on="0"/>
        <pt x="-10" y="184" on="1"/>
        <pt x="5" y="219" on="0"/>
        <pt x="34" y="219" on="1"/>
        <pt x="59" y="209" on="1"/>
        <pt x="115" y="209" on="0"/>
        <pt x="115" y="250" on="1"/>
        <pt x="166" y="370" on="0"/>
      </contour>
      <contour>
        <pt x="236" y="412" on="1"/>
        <pt x="177" y="234" on="1"/>
        <pt x="259" y="250" on="0"/>
        <pt x="259" y="265" on="1"/>
        <pt x="244" y="412" on="0"/>
      </contour>
      <contour>
        <pt x="87" y="687" on="1"/>
        <pt x="89" y="716" on="0"/>
        <pt x="117" y="725" on="1"/>
        <pt x="280" y="803" on="0"/>
        <pt x="318" y="803" on="1"/>
        <pt x="320" y="803" on="0"/>
        <pt x="321" y="803" on="1"/>
        <pt x="346" y="802" on="0"/>
        <pt x="349" y="766" on="1"/>
        <pt x="342" y="738" on="1"/>
        <pt x="206" y="690" on="0"/>
        <pt x="179" y="683" on="1"/>
        <pt x="168" y="666" on="0"/>
        <pt x="116" y="650" on="1"/>
        <pt x="92" y="652" on="0"/>
      </contour>
    </TTGlyph>
    <TTGlyph name="Abreve" xMin="-10" yMin="-38" xMax="461" yMax="791">
      <contour>
        <pt x="227" y="594" on="1"/>
        <pt x="252" y="602" on="1"/>
        <pt x="286" y="602" on="0"/>
        <pt x="286" y="512" on="1"/>
        <pt x="317" y="281" on="1"/>
        <pt x="321" y="277" on="1"/>
        <pt x="436" y="319" on="1"/>
        <pt x="459" y="319" on="0"/>
        <pt x="461" y="284" on="1"/>
        <pt x="461" y="258" on="0"/>
        <pt x="334" y="221" on="1"/>
        <pt x="330" y="219" on="1"/>
        <pt x="330" y="215" on="1"/>
        <pt x="330" y="194" on="0"/>
        <pt x="396" y="-4" on="1"/>
        <pt x="396" y="-6" on="1"/>
        <pt x="396" y="-25" on="0"/>
        <pt x="365" y="-38" on="1"/>
        <pt x="336" y="-38" on="0"/>
        <pt x="327" y="31" on="1"/>
        <pt x="304" y="81" on="0"/>
        <pt x="271" y="196" on="1"/>
        <pt x="267" y="196" on="1"/>
        <pt x="136" y="169" on="0"/>
        <pt x="136" y="150" on="1"/>
        <pt x="64" y="-6" on="0"/>
        <pt x="27" y="-6" on="1"/>
        <pt x="6" y="-6" on="0"/>
        <pt x="2" y="21" on="1"/>
        <pt x="2" y="45" on="0"/>
        <pt x="55" y="115" on="1"/>
        <pt x="71" y="150" on="1"/>
        <pt x="46" y="150" on="1"/>
        <pt x="27" y="146" on="1"/>
        <pt x="-10" y="155" on="0"/>
        <pt x="-10" y="184" on="1"/>
        <pt x="5" y="219" on="0"/>
        <pt x="34" y="219" on="1"/>
        <pt x="59" y="209" on="1"/>
        <pt x="115" y="209" on="0"/>
        <pt x="115" y="250" on="1"/>
        <pt x="166" y="370" on="0"/>
      </contour>
      <contour>
        <pt x="236" y="412" on="1"/>
        <pt x="177" y="234" on="1"/>
        <pt x="259" y="250" on="0"/>
        <pt x="259" y="265" on="1"/>
        <pt x="244" y="412" on="0"/>
      </contour>
      <contour>
        <pt x="221" y="700" on="1"/>
        <pt x="287" y="700" on="0"/>
        <pt x="297" y="791" on="1"/>
        <pt x="333" y="791" on="1"/>
        <pt x="329" y="712" on="0"/>
        <pt x="287" y="690" on="1"/>
        <pt x="247" y="671" on="0"/>
        <pt x="227" y="671" on="1"/>
        <pt x="226" y="671" on="0"/>
        <pt x="223" y="671" on="0"/>
        <pt x="221" y="671" on="1"/>
        <pt x="162" y="671" on="0"/>
        <pt x="150" y="713" on="1"/>
        <pt x="142" y="741" on="0"/>
        <pt x="142" y="776" on="0"/>
        <pt x="145" y="787" on="1"/>
        <pt x="182" y="786" on="1"/>
        <pt x="182" y="735" on="1"/>
        <pt x="182" y="700" on="0"/>
        <pt x="215" y="700" on="1"/>
        <pt x="218" y="700" on="0"/>
      </contour>
    </TTGlyph>
    <TTGlyph name="Acircumflex" xMin="-10" yMin="-38" xMax="461" yMax="794">
      <contour>
        <pt x="227" y="594" on="1"/>
        <pt x="252" y="602" on="1"/>
        <pt x="286" y="602" on="0"/>
        <pt x="286" y="512" on="1"/>
        <pt x="317" y="281" on="1"/>
        <pt x="321" y="277" on="1"/>
        <pt x="436" y="319" on="1"/>
        <pt x="459" y="319" on="0"/>
        <pt x="461" y="284" on="1"/>
        <pt x="461" y="258" on="0"/>
        <pt x="334" y="221" on="1"/>
        <pt x="330" y="219" on="1"/>
        <pt x="330" y="215" on="1"/>
        <pt x="330" y="194" on="0"/>
        <pt x="396" y="-4" on="1"/>
        <pt x="396" y="-6" on="1"/>
        <pt x="396" y="-25" on="0"/>
        <pt x="365" y="-38" on="1"/>
        <pt x="336" y="-38" on="0"/>
        <pt x="327" y="31" on="1"/>
        <pt x="304" y="81" on="0"/>
        <pt x="271" y="196" on="1"/>
        <pt x="267" y="196" on="1"/>
        <pt x="136" y="169" on="0"/>
        <pt x="136" y="150" on="1"/>
        <pt x="64" y="-6" on="0"/>
        <pt x="27" y="-6" on="1"/>
        <pt x="6" y="-6" on="0"/>
        <pt x="2" y="21" on="1"/>
        <pt x="2" y="45" on="0"/>
        <pt x="55" y="115" on="1"/>
        <pt x="71" y="150" on="1"/>
        <pt x="46" y="150" on="1"/>
        <pt x="27" y="146" on="1"/>
        <pt x="-10" y="155" on="0"/>
        <pt x="-10" y="184" on="1"/>
        <pt x="5" y="219" on="0"/>
        <pt x="34" y="219" on="1"/>
        <pt x="59" y="209" on="1"/>
        <pt x="115" y="209" on="0"/>
        <pt x="115" y="250" on="1"/>
        <pt x="166" y="370" on="0"/>
      </contour>
      <contour>
        <pt x="236" y="412" on="1"/>
        <pt x="177" y="234" on="1"/>
        <pt x="259" y="250" on="0"/>
        <pt x="259" y="265" on="1"/>
        <pt x="244" y="412" on="0"/>
      </contour>
      <contour>
        <pt x="224" y="787" on="1"/>
        <pt x="240" y="794" on="1"/>
        <pt x="270" y="794" on="0"/>
        <pt x="366" y="650" on="1"/>
        <pt x="404" y="596" on="1"/>
        <pt x="404" y="584" on="0"/>
        <pt x="380" y="581" on="1"/>
        <pt x="354" y="579" on="1"/>
        <pt x="354" y="582" on="0"/>
        <pt x="282" y="667" on="1"/>
        <pt x="262" y="716" on="0"/>
        <pt x="249" y="716" on="1"/>
        <pt x="245" y="716" on="0"/>
        <pt x="242" y="711" on="1"/>
        <pt x="154" y="606" on="0"/>
        <pt x="146" y="585" on="1"/>
        <pt x="119" y="600" on="1"/>
        <pt x="90" y="606" on="0"/>
        <pt x="90" y="622" on="1"/>
        <pt x="90" y="630" on="0"/>
        <pt x="119" y="641" on="1"/>
      </contour>
    </TTGlyph>
    <TTGlyph name="Adieresis" xMin="-10" yMin="-38" xMax="461" yMax="699">
      <contour>
        <pt x="227" y="594" on="1"/>
        <pt x="252" y="602" on="1"/>
        <pt x="286" y="602" on="0"/>
        <pt x="286" y="512" on="1"/>
        <pt x="317" y="281" on="1"/>
        <pt x="321" y="277" on="1"/>
        <pt x="436" y="319" on="1"/>
        <pt x="459" y="319" on="0"/>
        <pt x="461" y="284" on="1"/>
        <pt x="461" y="258" on="0"/>
        <pt x="334" y="221" on="1"/>
        <pt x="330" y="219" on="1"/>
        <pt x="330" y="215" on="1"/>
        <pt x="330" y="194" on="0"/>
        <pt x="396" y="-4" on="1"/>
        <pt x="396" y="-6" on="1"/>
        <pt x="396" y="-25" on="0"/>
        <pt x="365" y="-38" on="1"/>
        <pt x="336" y="-38" on="0"/>
        <pt x="327" y="31" on="1"/>
        <pt x="304" y="81" on="0"/>
        <pt x="271" y="196" on="1"/>
        <pt x="267" y="196" on="1"/>
        <pt x="136" y="169" on="0"/>
        <pt x="136" y="150" on="1"/>
        <pt x="64" y="-6" on="0"/>
        <pt x="27" y="-6" on="1"/>
        <pt x="6" y="-6" on="0"/>
        <pt x="2" y="21" on="1"/>
        <pt x="2" y="45" on="0"/>
        <pt x="55" y="115" on="1"/>
        <pt x="71" y="150" on="1"/>
        <pt x="46" y="150" on="1"/>
        <pt x="27" y="146" on="1"/>
        <pt x="-10" y="155" on="0"/>
        <pt x="-10" y="184" on="1"/>
        <pt x="5" y="219" on="0"/>
        <pt x="34" y="219" on="1"/>
        <pt x="59" y="209" on="1"/>
        <pt x="115" y="209" on="0"/>
        <pt x="115" y="250" on="1"/>
        <pt x="166" y="370" on="0"/>
      </contour>
      <contour>
        <pt x="236" y="412" on="1"/>
        <pt x="177" y="234" on="1"/>
        <pt x="259" y="250" on="0"/>
        <pt x="259" y="265" on="1"/>
        <pt x="244" y="412" on="0"/>
      </contour>
      <contour>
        <pt x="281" y="632" on="1"/>
        <pt x="260" y="633" on="0"/>
        <pt x="253" y="666" on="1"/>
        <pt x="254" y="691" on="0"/>
        <pt x="296" y="691" on="1"/>
        <pt x="319" y="675" on="0"/>
        <pt x="319" y="662" on="1"/>
        <pt x="319" y="634" on="0"/>
      </contour>
      <contour>
        <pt x="168" y="638" on="1"/>
        <pt x="145" y="638" on="0"/>
        <pt x="144" y="668" on="1"/>
        <pt x="145" y="691" on="0"/>
        <pt x="180" y="699" on="1"/>
        <pt x="208" y="687" on="0"/>
        <pt x="206" y="666" on="1"/>
        <pt x="193" y="638" on="0"/>
      </contour>
    </TTGlyph>
    <TTGlyph name="Agrave" xMin="-10" yMin="-38" xMax="461" yMax="834">
      <contour>
        <pt x="227" y="594" on="1"/>
        <pt x="252" y="602" on="1"/>
        <pt x="286" y="602" on="0"/>
        <pt x="286" y="512" on="1"/>
        <pt x="317" y="281" on="1"/>
        <pt x="321" y="277" on="1"/>
        <pt x="436" y="319" on="1"/>
        <pt x="459" y="319" on="0"/>
        <pt x="461" y="284" on="1"/>
        <pt x="461" y="258" on="0"/>
        <pt x="334" y="221" on="1"/>
        <pt x="330" y="219" on="1"/>
        <pt x="330" y="215" on="1"/>
        <pt x="330" y="194" on="0"/>
        <pt x="396" y="-4" on="1"/>
        <pt x="396" y="-6" on="1"/>
        <pt x="396" y="-25" on="0"/>
        <pt x="365" y="-38" on="1"/>
        <pt x="336" y="-38" on="0"/>
        <pt x="327" y="31" on="1"/>
        <pt x="304" y="81" on="0"/>
        <pt x="271" y="196" on="1"/>
        <pt x="267" y="196" on="1"/>
        <pt x="136" y="169" on="0"/>
        <pt x="136" y="150" on="1"/>
        <pt x="64" y="-6" on="0"/>
        <pt x="27" y="-6" on="1"/>
        <pt x="6" y="-6" on="0"/>
        <pt x="2" y="21" on="1"/>
        <pt x="2" y="45" on="0"/>
        <pt x="55" y="115" on="1"/>
        <pt x="71" y="150" on="1"/>
        <pt x="46" y="150" on="1"/>
        <pt x="27" y="146" on="1"/>
        <pt x="-10" y="155" on="0"/>
        <pt x="-10" y="184" on="1"/>
        <pt x="5" y="219" on="0"/>
        <pt x="34" y="219" on="1"/>
        <pt x="59" y="209" on="1"/>
        <pt x="115" y="209" on="0"/>
        <pt x="115" y="250" on="1"/>
        <pt x="166" y="370" on="0"/>
      </contour>
      <contour>
        <pt x="236" y="412" on="1"/>
        <pt x="177" y="234" on="1"/>
        <pt x="259" y="250" on="0"/>
        <pt x="259" y="265" on="1"/>
        <pt x="244" y="412" on="0"/>
      </contour>
      <contour>
        <pt x="350" y="704" on="1"/>
        <pt x="346" y="676" on="0"/>
        <pt x="325" y="674" on="1"/>
        <pt x="277" y="687" on="0"/>
        <pt x="266" y="701" on="1"/>
        <pt x="125" y="760" on="0"/>
        <pt x="125" y="793" on="1"/>
        <pt x="125" y="799" on="0"/>
        <pt x="129" y="804" on="1"/>
        <pt x="132" y="832" on="0"/>
        <pt x="155" y="834" on="1"/>
        <pt x="201" y="821" on="0"/>
        <pt x="324" y="734" on="1"/>
        <pt x="348" y="727" on="0"/>
      </contour>
    </TTGlyph>
    <TTGlyph name="Amacron" xMin="-10" yMin="-38" xMax="461" yMax="721">
      <contour>
        <pt x="227" y="594" on="1"/>
        <pt x="252" y="602" on="1"/>
        <pt x="286" y="602" on="0"/>
        <pt x="286" y="512" on="1"/>
        <pt x="317" y="281" on="1"/>
        <pt x="321" y="277" on="1"/>
        <pt x="436" y="319" on="1"/>
        <pt x="459" y="319" on="0"/>
        <pt x="461" y="284" on="1"/>
        <pt x="461" y="258" on="0"/>
        <pt x="334" y="221" on="1"/>
        <pt x="330" y="219" on="1"/>
        <pt x="330" y="215" on="1"/>
        <pt x="330" y="194" on="0"/>
        <pt x="396" y="-4" on="1"/>
        <pt x="396" y="-6" on="1"/>
        <pt x="396" y="-25" on="0"/>
        <pt x="365" y="-38" on="1"/>
        <pt x="336" y="-38" on="0"/>
        <pt x="327" y="31" on="1"/>
        <pt x="304" y="81" on="0"/>
        <pt x="271" y="196" on="1"/>
        <pt x="267" y="196" on="1"/>
        <pt x="136" y="169" on="0"/>
        <pt x="136" y="150" on="1"/>
        <pt x="64" y="-6" on="0"/>
        <pt x="27" y="-6" on="1"/>
        <pt x="6" y="-6" on="0"/>
        <pt x="2" y="21" on="1"/>
        <pt x="2" y="45" on="0"/>
        <pt x="55" y="115" on="1"/>
        <pt x="71" y="150" on="1"/>
        <pt x="46" y="150" on="1"/>
        <pt x="27" y="146" on="1"/>
        <pt x="-10" y="155" on="0"/>
        <pt x="-10" y="184" on="1"/>
        <pt x="5" y="219" on="0"/>
        <pt x="34" y="219" on="1"/>
        <pt x="59" y="209" on="1"/>
        <pt x="115" y="209" on="0"/>
        <pt x="115" y="250" on="1"/>
        <pt x="166" y="370" on="0"/>
      </contour>
      <contour>
        <pt x="236" y="412" on="1"/>
        <pt x="177" y="234" on="1"/>
        <pt x="259" y="250" on="0"/>
        <pt x="259" y="265" on="1"/>
        <pt x="244" y="412" on="0"/>
      </contour>
      <contour>
        <pt x="160" y="709" on="1"/>
        <pt x="341" y="721" on="1"/>
        <pt x="366" y="721" on="0"/>
        <pt x="370" y="690" on="1"/>
        <pt x="370" y="659" on="0"/>
        <pt x="276" y="659" on="1"/>
        <pt x="207" y="649" on="0"/>
        <pt x="154" y="649" on="1"/>
        <pt x="89" y="657" on="0"/>
        <pt x="89" y="686" on="1"/>
        <pt x="89" y="706" on="0"/>
        <pt x="116" y="718" on="1"/>
        <pt x="154" y="709" on="1"/>
      </contour>
    </TTGlyph>
    <TTGlyph name="Aogonek" xMin="-10" yMin="-186" xMax="464" yMax="602">
      <contour>
        <pt x="227" y="594" on="1"/>
        <pt x="252" y="602" on="1"/>
        <pt x="286" y="602" on="0"/>
        <pt x="286" y="512" on="1"/>
        <pt x="317" y="281" on="1"/>
        <pt x="321" y="277" on="1"/>
        <pt x="436" y="319" on="1"/>
        <pt x="459" y="319" on="0"/>
        <pt x="461" y="284" on="1"/>
        <pt x="461" y="258" on="0"/>
        <pt x="334" y="221" on="1"/>
        <pt x="330" y="219" on="1"/>
        <pt x="330" y="215" on="1"/>
        <pt x="330" y="194" on="0"/>
        <pt x="396" y="-4" on="1"/>
        <pt x="396" y="-6" on="1"/>
        <pt x="396" y="-25" on="0"/>
        <pt x="365" y="-38" on="1"/>
        <pt x="364" y="-38" on="1"/>
        <pt x="311" y="-101" on="1"/>
        <pt x="311" y="-111" on="1"/>
        <pt x="311" y="-116" on="0"/>
        <pt x="354" y="-116" on="0"/>
        <pt x="434" y="-98" on="1"/>
        <pt x="464" y="-84" on="0"/>
        <pt x="464" y="-96" on="1"/>
        <pt x="464" y="-103" on="0"/>
        <pt x="454" y="-119" on="1"/>
        <pt x="425" y="-164" on="0"/>
        <pt x="321" y="-186" on="1"/>
        <pt x="252" y="-158" on="0"/>
        <pt x="252" y="-108" on="1"/>
        <pt x="252" y="-45" on="0"/>
        <pt x="332" y="2" on="1"/>
        <pt x="328" y="20" on="0"/>
        <pt x="327" y="31" on="1"/>
        <pt x="304" y="81" on="0"/>
        <pt x="271" y="196" on="1"/>
        <pt x="267" y="196" on="1"/>
        <pt x="136" y="169" on="0"/>
        <pt x="136" y="150" on="1"/>
        <pt x="64" y="-6" on="0"/>
        <pt x="27" y="-6" on="1"/>
        <pt x="6" y="-6" on="0"/>
        <pt x="2" y="21" on="1"/>
        <pt x="2" y="45" on="0"/>
        <pt x="55" y="115" on="1"/>
        <pt x="71" y="150" on="1"/>
        <pt x="46" y="150" on="1"/>
        <pt x="27" y="146" on="1"/>
        <pt x="-10" y="155" on="0"/>
        <pt x="-10" y="184" on="1"/>
        <pt x="5" y="219" on="0"/>
        <pt x="34" y="219" on="1"/>
        <pt x="59" y="209" on="1"/>
        <pt x="115" y="209" on="0"/>
        <pt x="115" y="250" on="1"/>
        <pt x="166" y="370" on="0"/>
      </contour>
      <contour>
        <pt x="236" y="412" on="1"/>
        <pt x="177" y="234" on="1"/>
        <pt x="259" y="250" on="0"/>
        <pt x="259" y="265" on="1"/>
        <pt x="244" y="412" on="0"/>
      </contour>
    </TTGlyph>
    <TTGlyph name="Aring" xMin="-10" yMin="-38" xMax="461" yMax="774">
      <contour>
        <pt x="262" y="774" on="1"/>
        <pt x="326" y="774" on="0"/>
        <pt x="357" y="719" on="1"/>
        <pt x="360" y="707" on="1"/>
        <pt x="360" y="654" on="0"/>
        <pt x="276" y="596" on="1"/>
        <pt x="273" y="595" on="0"/>
        <pt x="270" y="592" on="1"/>
        <pt x="286" y="575" on="0"/>
        <pt x="286" y="512" on="1"/>
        <pt x="317" y="281" on="1"/>
        <pt x="321" y="277" on="1"/>
        <pt x="436" y="319" on="1"/>
        <pt x="459" y="319" on="0"/>
        <pt x="461" y="284" on="1"/>
        <pt x="461" y="258" on="0"/>
        <pt x="334" y="221" on="1"/>
        <pt x="330" y="219" on="1"/>
        <pt x="330" y="215" on="1"/>
        <pt x="330" y="194" on="0"/>
        <pt x="396" y="-4" on="1"/>
        <pt x="396" y="-6" on="1"/>
        <pt x="396" y="-25" on="0"/>
        <pt x="365" y="-38" on="1"/>
        <pt x="336" y="-38" on="0"/>
        <pt x="327" y="31" on="1"/>
        <pt x="304" y="81" on="0"/>
        <pt x="271" y="196" on="1"/>
        <pt x="267" y="196" on="1"/>
        <pt x="136" y="169" on="0"/>
        <pt x="136" y="150" on="1"/>
        <pt x="64" y="-6" on="0"/>
        <pt x="27" y="-6" on="1"/>
        <pt x="6" y="-6" on="0"/>
        <pt x="2" y="21" on="1"/>
        <pt x="2" y="45" on="0"/>
        <pt x="55" y="115" on="1"/>
        <pt x="71" y="150" on="1"/>
        <pt x="46" y="150" on="1"/>
        <pt x="27" y="146" on="1"/>
        <pt x="-10" y="155" on="0"/>
        <pt x="-10" y="184" on="1"/>
        <pt x="5" y="219" on="0"/>
        <pt x="34" y="219" on="1"/>
        <pt x="59" y="209" on="1"/>
        <pt x="115" y="209" on="0"/>
        <pt x="115" y="250" on="1"/>
        <pt x="166" y="374" on="0"/>
        <pt x="222" y="577" on="1"/>
        <pt x="207" y="577" on="1"/>
        <pt x="159" y="577" on="0"/>
        <pt x="136" y="612" on="1"/>
        <pt x="129" y="629" on="0"/>
        <pt x="129" y="641" on="1"/>
        <pt x="129" y="647" on="1"/>
        <pt x="129" y="727" on="0"/>
        <pt x="226" y="769" on="1"/>
        <pt x="246" y="774" on="0"/>
      </contour>
      <contour>
        <pt x="179" y="642" on="1"/>
        <pt x="179" y="607" on="0"/>
        <pt x="207" y="607" on="1"/>
        <pt x="269" y="607" on="0"/>
        <pt x="310" y="702" on="1"/>
        <pt x="310" y="712" on="1"/>
        <pt x="296" y="744" on="0"/>
        <pt x="257" y="744" on="1"/>
        <pt x="242" y="744" on="0"/>
        <pt x="242" y="731" on="1"/>
        <pt x="242" y="722" on="0"/>
        <pt x="207" y="717" on="1"/>
        <pt x="179" y="688" on="0"/>
      </contour>
      <contour>
        <pt x="236" y="412" on="1"/>
        <pt x="177" y="234" on="1"/>
        <pt x="259" y="250" on="0"/>
        <pt x="259" y="265" on="1"/>
        <pt x="244" y="412" on="0"/>
      </contour>
    </TTGlyph>
    <TTGlyph name="Atilde" xMin="-10" yMin="-38" xMax="461" yMax="830">
      <contour>
        <pt x="227" y="594" on="1"/>
        <pt x="252" y="602" on="1"/>
        <pt x="286" y="602" on="0"/>
        <pt x="286" y="512" on="1"/>
        <pt x="317" y="281" on="1"/>
        <pt x="321" y="277" on="1"/>
        <pt x="436" y="319" on="1"/>
        <pt x="459" y="319" on="0"/>
        <pt x="461" y="284" on="1"/>
        <pt x="461" y="258" on="0"/>
        <pt x="334" y="221" on="1"/>
        <pt x="330" y="219" on="1"/>
        <pt x="330" y="215" on="1"/>
        <pt x="330" y="194" on="0"/>
        <pt x="396" y="-4" on="1"/>
        <pt x="396" y="-6" on="1"/>
        <pt x="396" y="-25" on="0"/>
        <pt x="365" y="-38" on="1"/>
        <pt x="336" y="-38" on="0"/>
        <pt x="327" y="31" on="1"/>
        <pt x="304" y="81" on="0"/>
        <pt x="271" y="196" on="1"/>
        <pt x="267" y="196" on="1"/>
        <pt x="136" y="169" on="0"/>
        <pt x="136" y="150" on="1"/>
        <pt x="64" y="-6" on="0"/>
        <pt x="27" y="-6" on="1"/>
        <pt x="6" y="-6" on="0"/>
        <pt x="2" y="21" on="1"/>
        <pt x="2" y="45" on="0"/>
        <pt x="55" y="115" on="1"/>
        <pt x="71" y="150" on="1"/>
        <pt x="46" y="150" on="1"/>
        <pt x="27" y="146" on="1"/>
        <pt x="-10" y="155" on="0"/>
        <pt x="-10" y="184" on="1"/>
        <pt x="5" y="219" on="0"/>
        <pt x="34" y="219" on="1"/>
        <pt x="59" y="209" on="1"/>
        <pt x="115" y="209" on="0"/>
        <pt x="115" y="250" on="1"/>
        <pt x="166" y="370" on="0"/>
      </contour>
      <contour>
        <pt x="236" y="412" on="1"/>
        <pt x="177" y="234" on="1"/>
        <pt x="259" y="250" on="0"/>
        <pt x="259" y="265" on="1"/>
        <pt x="244" y="412" on="0"/>
      </contour>
      <contour>
        <pt x="442" y="681" on="1"/>
        <pt x="441" y="674" on="0"/>
        <pt x="424" y="674" on="0"/>
        <pt x="394" y="696" on="1"/>
        <pt x="383" y="755" on="0"/>
        <pt x="331" y="785" on="1"/>
        <pt x="322" y="786" on="1"/>
        <pt x="309" y="786" on="0"/>
        <pt x="273" y="681" on="1"/>
        <pt x="242" y="640" on="0"/>
        <pt x="200" y="640" on="1"/>
        <pt x="199" y="640" on="0"/>
        <pt x="198" y="640" on="1"/>
        <pt x="127" y="645" on="0"/>
        <pt x="82" y="744" on="1"/>
        <pt x="78" y="774" on="1"/>
        <pt x="84" y="808" on="0"/>
        <pt x="102" y="808" on="1"/>
        <pt x="116" y="808" on="0"/>
        <pt x="137" y="786" on="1"/>
        <pt x="129" y="779" on="1"/>
        <pt x="129" y="767" on="1"/>
        <pt x="128" y="725" on="0"/>
        <pt x="193" y="685" on="1"/>
        <pt x="203" y="685" on="1"/>
        <pt x="204" y="685" on="1"/>
        <pt x="231" y="685" on="0"/>
        <pt x="258" y="781" on="1"/>
        <pt x="286" y="830" on="0"/>
        <pt x="326" y="830" on="1"/>
        <pt x="327" y="830" on="0"/>
        <pt x="328" y="830" on="1"/>
        <pt x="384" y="827" on="0"/>
        <pt x="429" y="744" on="1"/>
        <pt x="432" y="705" on="0"/>
      </contour>
    </TTGlyph>
    <TTGlyph name="B" xMin="0" yMin="0" xMax="356" yMax="609">
      <contour>
        <pt x="147" y="609" on="0"/>
        <pt x="241" y="609" on="0"/>
        <pt x="250" y="537" on="1"/>
        <pt x="250" y="534" on="1"/>
        <pt x="250" y="498" on="0"/>
        <pt x="209" y="377" on="1"/>
        <pt x="256" y="387" on="1"/>
        <pt x="342" y="387" on="0"/>
        <pt x="356" y="277" on="1"/>
        <pt x="356" y="262" on="1"/>
        <pt x="356" y="130" on="0"/>
        <pt x="190" y="21" on="1"/>
        <pt x="136" y="0" on="0"/>
        <pt x="112" y="0" on="1"/>
        <pt x="31" y="0" on="0"/>
        <pt x="0" y="94" on="1"/>
        <pt x="2" y="105" on="0"/>
        <pt x="25" y="125" on="1"/>
        <pt x="36" y="577" on="0"/>
        <pt x="44" y="577" on="1"/>
        <pt x="61" y="594" on="0"/>
        <pt x="75" y="594" on="1"/>
        <pt x="102" y="584" on="0"/>
        <pt x="102" y="562" on="1"/>
        <pt x="106" y="562" on="1"/>
      </contour>
      <contour>
        <pt x="96" y="287" on="1"/>
        <pt x="100" y="287" on="1"/>
        <pt x="182" y="442" on="0"/>
        <pt x="187" y="527" on="1"/>
        <pt x="187" y="550" on="1"/>
        <pt x="177" y="550" on="1"/>
        <pt x="156" y="550" on="0"/>
        <pt x="121" y="437" on="1"/>
        <pt x="96" y="330" on="0"/>
      </contour>
      <contour>
        <pt x="134" y="225" on="1"/>
        <pt x="119" y="219" on="1"/>
        <pt x="94" y="221" on="1"/>
        <pt x="94" y="219" on="1"/>
        <pt x="90" y="206" on="1"/>
        <pt x="90" y="102" on="1"/>
        <pt x="87" y="65" on="1"/>
        <pt x="109" y="59" on="1"/>
        <pt x="194" y="59" on="0"/>
        <pt x="277" y="187" on="1"/>
        <pt x="300" y="244" on="0"/>
        <pt x="300" y="281" on="1"/>
        <pt x="300" y="327" on="0"/>
        <pt x="256" y="327" on="1"/>
        <pt x="252" y="327" on="1"/>
        <pt x="204" y="327" on="0"/>
      </contour>
    </TTGlyph>
    <TTGlyph name="C" xMin="0" yMin="0" xMax="481" yMax="519">
      <contour>
        <pt x="146" y="519" on="1"/>
        <pt x="214" y="519" on="0"/>
        <pt x="225" y="421" on="1"/>
        <pt x="225" y="340" on="0"/>
        <pt x="187" y="319" on="1"/>
        <pt x="181" y="319" on="1"/>
        <pt x="152" y="321" on="0"/>
        <pt x="152" y="340" on="1"/>
        <pt x="156" y="415" on="1"/>
        <pt x="156" y="452" on="1"/>
        <pt x="150" y="459" on="1"/>
        <pt x="140" y="459" on="1"/>
        <pt x="108" y="459" on="0"/>
        <pt x="65" y="281" on="1"/>
        <pt x="59" y="206" on="1"/>
        <pt x="59" y="184" on="1"/>
        <pt x="59" y="80" on="0"/>
        <pt x="152" y="62" on="1"/>
        <pt x="194" y="62" on="1"/>
        <pt x="298" y="62" on="0"/>
        <pt x="446" y="196" on="1"/>
        <pt x="450" y="196" on="1"/>
        <pt x="477" y="196" on="0"/>
        <pt x="481" y="162" on="1"/>
        <pt x="458" y="102" on="0"/>
        <pt x="427" y="102" on="1"/>
        <pt x="284" y="0" on="0"/>
        <pt x="56" y="0" on="0"/>
        <pt x="9" y="125" on="1"/>
        <pt x="0" y="196" on="1"/>
        <pt x="0" y="209" on="1"/>
        <pt x="0" y="364" on="0"/>
        <pt x="87" y="494" on="1"/>
        <pt x="115" y="519" on="0"/>
      </contour>
    </TTGlyph>
    <TTGlyph name="Cacute" xMin="0" yMin="0" xMax="481" yMax="757">
      <contour>
        <pt x="146" y="519" on="1"/>
        <pt x="214" y="519" on="0"/>
        <pt x="225" y="421" on="1"/>
        <pt x="225" y="340" on="0"/>
        <pt x="187" y="319" on="1"/>
        <pt x="181" y="319" on="1"/>
        <pt x="152" y="321" on="0"/>
        <pt x="152" y="340" on="1"/>
        <pt x="156" y="415" on="1"/>
        <pt x="156" y="452" on="1"/>
        <pt x="150" y="459" on="1"/>
        <pt x="140" y="459" on="1"/>
        <pt x="108" y="459" on="0"/>
        <pt x="65" y="281" on="1"/>
        <pt x="59" y="206" on="1"/>
        <pt x="59" y="184" on="1"/>
        <pt x="59" y="80" on="0"/>
        <pt x="152" y="62" on="1"/>
        <pt x="194" y="62" on="1"/>
        <pt x="298" y="62" on="0"/>
        <pt x="446" y="196" on="1"/>
        <pt x="450" y="196" on="1"/>
        <pt x="477" y="196" on="0"/>
        <pt x="481" y="162" on="1"/>
        <pt x="458" y="102" on="0"/>
        <pt x="427" y="102" on="1"/>
        <pt x="284" y="0" on="0"/>
        <pt x="56" y="0" on="0"/>
        <pt x="9" y="125" on="1"/>
        <pt x="0" y="196" on="1"/>
        <pt x="0" y="209" on="1"/>
        <pt x="0" y="364" on="0"/>
        <pt x="87" y="494" on="1"/>
        <pt x="115" y="519" on="0"/>
      </contour>
      <contour>
        <pt x="22" y="641" on="1"/>
        <pt x="24" y="670" on="0"/>
        <pt x="52" y="679" on="1"/>
        <pt x="215" y="757" on="0"/>
        <pt x="253" y="757" on="1"/>
        <pt x="255" y="757" on="0"/>
        <pt x="256" y="757" on="1"/>
        <pt x="281" y="756" on="0"/>
        <pt x="284" y="720" on="1"/>
        <pt x="277" y="692" on="1"/>
        <pt x="141" y="644" on="0"/>
        <pt x="114" y="637" on="1"/>
        <pt x="104" y="620" on="0"/>
        <pt x="51" y="604" on="1"/>
        <pt x="27" y="606" on="0"/>
      </contour>
    </TTGlyph>
    <TTGlyph name="Ccaron" xMin="0" yMin="0" xMax="481" yMax="798">
      <contour>
        <pt x="146" y="519" on="1"/>
        <pt x="214" y="519" on="0"/>
        <pt x="225" y="421" on="1"/>
        <pt x="225" y="340" on="0"/>
        <pt x="187" y="319" on="1"/>
        <pt x="181" y="319" on="1"/>
        <pt x="152" y="321" on="0"/>
        <pt x="152" y="340" on="1"/>
        <pt x="156" y="415" on="1"/>
        <pt x="156" y="452" on="1"/>
        <pt x="150" y="459" on="1"/>
        <pt x="140" y="459" on="1"/>
        <pt x="108" y="459" on="0"/>
        <pt x="65" y="281" on="1"/>
        <pt x="59" y="206" on="1"/>
        <pt x="59" y="184" on="1"/>
        <pt x="59" y="80" on="0"/>
        <pt x="152" y="62" on="1"/>
        <pt x="194" y="62" on="1"/>
        <pt x="298" y="62" on="0"/>
        <pt x="446" y="196" on="1"/>
        <pt x="450" y="196" on="1"/>
        <pt x="477" y="196" on="0"/>
        <pt x="481" y="162" on="1"/>
        <pt x="458" y="102" on="0"/>
        <pt x="427" y="102" on="1"/>
        <pt x="284" y="0" on="0"/>
        <pt x="56" y="0" on="0"/>
        <pt x="9" y="125" on="1"/>
        <pt x="0" y="196" on="1"/>
        <pt x="0" y="209" on="1"/>
        <pt x="0" y="364" on="0"/>
        <pt x="87" y="494" on="1"/>
        <pt x="115" y="519" on="0"/>
      </contour>
      <contour>
        <pt x="211" y="604" on="1"/>
        <pt x="195" y="611" on="1"/>
        <pt x="80" y="743" on="1"/>
        <pt x="48" y="754" on="0"/>
        <pt x="48" y="761" on="1"/>
        <pt x="48" y="773" on="0"/>
        <pt x="80" y="781" on="1"/>
        <pt x="91" y="779" on="1"/>
        <pt x="116" y="776" on="0"/>
        <pt x="217" y="656" on="1"/>
        <pt x="227" y="662" on="0"/>
        <pt x="268" y="709" on="1"/>
        <pt x="336" y="798" on="0"/>
        <pt x="361" y="798" on="1"/>
        <pt x="363" y="798" on="1"/>
        <pt x="390" y="796" on="0"/>
        <pt x="390" y="784" on="1"/>
        <pt x="350" y="736" on="1"/>
        <pt x="245" y="604" on="0"/>
      </contour>
    </TTGlyph>
    <TTGlyph name="Ccedilla" xMin="0" yMin="-275" xMax="481" yMax="519">
      <contour>
        <pt x="146" y="519" on="1"/>
        <pt x="214" y="519" on="0"/>
        <pt x="225" y="421" on="1"/>
        <pt x="225" y="340" on="0"/>
        <pt x="187" y="319" on="1"/>
        <pt x="181" y="319" on="1"/>
        <pt x="152" y="321" on="0"/>
        <pt x="152" y="340" on="1"/>
        <pt x="156" y="415" on="1"/>
        <pt x="156" y="452" on="1"/>
        <pt x="150" y="459" on="1"/>
        <pt x="140" y="459" on="1"/>
        <pt x="108" y="459" on="0"/>
        <pt x="65" y="281" on="1"/>
        <pt x="59" y="206" on="1"/>
        <pt x="59" y="184" on="1"/>
        <pt x="59" y="80" on="0"/>
        <pt x="152" y="62" on="1"/>
        <pt x="194" y="62" on="1"/>
        <pt x="298" y="62" on="0"/>
        <pt x="446" y="196" on="1"/>
        <pt x="450" y="196" on="1"/>
        <pt x="477" y="196" on="0"/>
        <pt x="481" y="162" on="1"/>
        <pt x="458" y="102" on="0"/>
        <pt x="427" y="102" on="1"/>
        <pt x="314" y="21" on="0"/>
        <pt x="219" y="4" on="1"/>
        <pt x="197" y="-34" on="1"/>
        <pt x="197" y="-41" on="1"/>
        <pt x="197" y="-55" on="0"/>
        <pt x="301" y="-84" on="1"/>
        <pt x="345" y="-111" on="0"/>
        <pt x="345" y="-154" on="1"/>
        <pt x="345" y="-220" on="0"/>
        <pt x="249" y="-270" on="1"/>
        <pt x="220" y="-275" on="1"/>
        <pt x="159" y="-268" on="0"/>
        <pt x="159" y="-205" on="1"/>
        <pt x="159" y="-203" on="1"/>
        <pt x="159" y="-183" on="0"/>
        <pt x="181" y="-179" on="1"/>
        <pt x="200" y="-179" on="0"/>
        <pt x="205" y="-221" on="1"/>
        <pt x="211" y="-226" on="1"/>
        <pt x="222" y="-226" on="1"/>
        <pt x="265" y="-226" on="0"/>
        <pt x="301" y="-161" on="1"/>
        <pt x="301" y="-151" on="1"/>
        <pt x="301" y="-125" on="0"/>
        <pt x="205" y="-104" on="1"/>
        <pt x="154" y="-80" on="0"/>
        <pt x="154" y="-39" on="1"/>
        <pt x="154" y="-18" on="0"/>
        <pt x="156" y="0" on="1"/>
        <pt x="52" y="11" on="0"/>
        <pt x="9" y="125" on="1"/>
        <pt x="0" y="196" on="1"/>
        <pt x="0" y="209" on="1"/>
        <pt x="0" y="364" on="0"/>
        <pt x="87" y="494" on="1"/>
        <pt x="115" y="519" on="0"/>
      </contour>
    </TTGlyph>
    <TTGlyph name="Ccircumflex" xMin="0" yMin="0" xMax="481" yMax="789">
      <contour>
        <pt x="146" y="519" on="1"/>
        <pt x="214" y="519" on="0"/>
        <pt x="225" y="421" on="1"/>
        <pt x="225" y="340" on="0"/>
        <pt x="187" y="319" on="1"/>
        <pt x="181" y="319" on="1"/>
        <pt x="152" y="321" on="0"/>
        <pt x="152" y="340" on="1"/>
        <pt x="156" y="415" on="1"/>
        <pt x="156" y="452" on="1"/>
        <pt x="150" y="459" on="1"/>
        <pt x="140" y="459" on="1"/>
        <pt x="108" y="459" on="0"/>
        <pt x="65" y="281" on="1"/>
        <pt x="59" y="206" on="1"/>
        <pt x="59" y="184" on="1"/>
        <pt x="59" y="80" on="0"/>
        <pt x="152" y="62" on="1"/>
        <pt x="194" y="62" on="1"/>
        <pt x="298" y="62" on="0"/>
        <pt x="446" y="196" on="1"/>
        <pt x="450" y="196" on="1"/>
        <pt x="477" y="196" on="0"/>
        <pt x="481" y="162" on="1"/>
        <pt x="458" y="102" on="0"/>
        <pt x="427" y="102" on="1"/>
        <pt x="284" y="0" on="0"/>
        <pt x="56" y="0" on="0"/>
        <pt x="9" y="125" on="1"/>
        <pt x="0" y="196" on="1"/>
        <pt x="0" y="209" on="1"/>
        <pt x="0" y="364" on="0"/>
        <pt x="87" y="494" on="1"/>
        <pt x="115" y="519" on="0"/>
      </contour>
      <contour>
        <pt x="175" y="782" on="1"/>
        <pt x="191" y="789" on="1"/>
        <pt x="221" y="789" on="0"/>
        <pt x="317" y="645" on="1"/>
        <pt x="355" y="591" on="1"/>
        <pt x="355" y="579" on="0"/>
        <pt x="331" y="576" on="1"/>
        <pt x="305" y="574" on="1"/>
        <pt x="305" y="576" on="0"/>
        <pt x="233" y="662" on="1"/>
        <pt x="213" y="711" on="0"/>
        <pt x="200" y="711" on="1"/>
        <pt x="196" y="711" on="0"/>
        <pt x="193" y="706" on="1"/>
        <pt x="104" y="601" on="0"/>
        <pt x="97" y="580" on="1"/>
        <pt x="70" y="595" on="1"/>
        <pt x="41" y="601" on="0"/>
        <pt x="41" y="617" on="1"/>
        <pt x="41" y="625" on="0"/>
        <pt x="70" y="636" on="1"/>
      </contour>
    </TTGlyph>
    <TTGlyph name="Cdotaccent" xMin="0" yMin="0" xMax="481" yMax="709">
      <contour>
        <pt x="146" y="519" on="1"/>
        <pt x="214" y="519" on="0"/>
        <pt x="225" y="421" on="1"/>
        <pt x="225" y="340" on="0"/>
        <pt x="187" y="319" on="1"/>
        <pt x="181" y="319" on="1"/>
        <pt x="152" y="321" on="0"/>
        <pt x="152" y="340" on="1"/>
        <pt x="156" y="415" on="1"/>
        <pt x="156" y="452" on="1"/>
        <pt x="150" y="459" on="1"/>
        <pt x="140" y="459" on="1"/>
        <pt x="108" y="459" on="0"/>
        <pt x="65" y="281" on="1"/>
        <pt x="59" y="206" on="1"/>
        <pt x="59" y="184" on="1"/>
        <pt x="59" y="80" on="0"/>
        <pt x="152" y="62" on="1"/>
        <pt x="194" y="62" on="1"/>
        <pt x="298" y="62" on="0"/>
        <pt x="446" y="196" on="1"/>
        <pt x="450" y="196" on="1"/>
        <pt x="477" y="196" on="0"/>
        <pt x="481" y="162" on="1"/>
        <pt x="458" y="102" on="0"/>
        <pt x="427" y="102" on="1"/>
        <pt x="284" y="0" on="0"/>
        <pt x="56" y="0" on="0"/>
        <pt x="9" y="125" on="1"/>
        <pt x="0" y="196" on="1"/>
        <pt x="0" y="209" on="1"/>
        <pt x="0" y="364" on="0"/>
        <pt x="87" y="494" on="1"/>
        <pt x="115" y="519" on="0"/>
      </contour>
      <contour>
        <pt x="189" y="709" on="1"/>
        <pt x="219" y="709" on="0"/>
        <pt x="224" y="661" on="1"/>
        <pt x="215" y="615" on="0"/>
        <pt x="175" y="615" on="1"/>
        <pt x="145" y="615" on="0"/>
        <pt x="136" y="661" on="1"/>
        <pt x="152" y="709" on="0"/>
      </contour>
    </TTGlyph>
    <TTGlyph name="D" xMin="0" yMin="0" xMax="427" yMax="584">
      <contour>
        <pt x="115" y="584" on="1"/>
        <pt x="256" y="584" on="0"/>
        <pt x="387" y="434" on="1"/>
        <pt x="427" y="355" on="0"/>
        <pt x="427" y="281" on="1"/>
        <pt x="427" y="107" on="0"/>
        <pt x="250" y="25" on="1"/>
        <pt x="193" y="0" on="0"/>
        <pt x="127" y="0" on="1"/>
        <pt x="102" y="0" on="1"/>
        <pt x="65" y="1" on="0"/>
        <pt x="65" y="31" on="1"/>
        <pt x="62" y="31" on="1"/>
        <pt x="62" y="58" on="0"/>
        <pt x="96" y="59" on="1"/>
        <pt x="119" y="59" on="1"/>
        <pt x="119" y="65" on="1"/>
        <pt x="121" y="65" on="1"/>
        <pt x="59" y="328" on="0"/>
        <pt x="59" y="456" on="1"/>
        <pt x="56" y="456" on="1"/>
        <pt x="31" y="440" on="1"/>
        <pt x="5" y="440" on="0"/>
        <pt x="0" y="475" on="1"/>
        <pt x="0" y="530" on="0"/>
        <pt x="62" y="571" on="1"/>
        <pt x="87" y="584" on="0"/>
      </contour>
      <contour>
        <pt x="127" y="525" on="1"/>
        <pt x="119" y="525" on="1"/>
        <pt x="119" y="477" on="1"/>
        <pt x="119" y="313" on="0"/>
        <pt x="181" y="65" on="1"/>
        <pt x="184" y="65" on="1"/>
        <pt x="369" y="115" on="0"/>
        <pt x="369" y="281" on="1"/>
        <pt x="369" y="459" on="0"/>
        <pt x="162" y="519" on="1"/>
        <pt x="150" y="525" on="0"/>
      </contour>
    </TTGlyph>
    <TTGlyph name="Dcaron" xMin="0" yMin="0" xMax="427" yMax="891">
      <contour>
        <pt x="115" y="584" on="1"/>
        <pt x="256" y="584" on="0"/>
        <pt x="387" y="434" on="1"/>
        <pt x="427" y="355" on="0"/>
        <pt x="427" y="281" on="1"/>
        <pt x="427" y="107" on="0"/>
        <pt x="250" y="25" on="1"/>
        <pt x="193" y="0" on="0"/>
        <pt x="127" y="0" on="1"/>
        <pt x="102" y="0" on="1"/>
        <pt x="65" y="1" on="0"/>
        <pt x="65" y="31" on="1"/>
        <pt x="62" y="31" on="1"/>
        <pt x="62" y="58" on="0"/>
        <pt x="96" y="59" on="1"/>
        <pt x="119" y="59" on="1"/>
        <pt x="119" y="65" on="1"/>
        <pt x="121" y="65" on="1"/>
        <pt x="59" y="328" on="0"/>
        <pt x="59" y="456" on="1"/>
        <pt x="56" y="456" on="1"/>
        <pt x="31" y="440" on="1"/>
        <pt x="5" y="440" on="0"/>
        <pt x="0" y="475" on="1"/>
        <pt x="0" y="530" on="0"/>
        <pt x="62" y="571" on="1"/>
        <pt x="87" y="584" on="0"/>
      </contour>
      <contour>
        <pt x="127" y="525" on="1"/>
        <pt x="119" y="525" on="1"/>
        <pt x="119" y="477" on="1"/>
        <pt x="119" y="313" on="0"/>
        <pt x="181" y="65" on="1"/>
        <pt x="184" y="65" on="1"/>
        <pt x="369" y="115" on="0"/>
        <pt x="369" y="281" on="1"/>
        <pt x="369" y="459" on="0"/>
        <pt x="162" y="519" on="1"/>
        <pt x="150" y="525" on="0"/>
      </contour>
      <contour>
        <pt x="217" y="697" on="1"/>
        <pt x="201" y="704" on="1"/>
        <pt x="86" y="836" on="1"/>
        <pt x="54" y="847" on="0"/>
        <pt x="54" y="854" on="1"/>
        <pt x="54" y="866" on="0"/>
        <pt x="86" y="874" on="1"/>
        <pt x="97" y="872" on="1"/>
        <pt x="122" y="869" on="0"/>
        <pt x="223" y="749" on="1"/>
        <pt x="233" y="755" on="0"/>
        <pt x="274" y="802" on="1"/>
        <pt x="342" y="891" on="0"/>
        <pt x="367" y="891" on="1"/>
        <pt x="369" y="891" on="1"/>
        <pt x="396" y="890" on="0"/>
        <pt x="396" y="877" on="1"/>
        <pt x="356" y="829" on="1"/>
        <pt x="251" y="697" on="0"/>
      </contour>
    </TTGlyph>
    <TTGlyph name="E" xMin="0" yMin="0" xMax="402" yMax="577">
      <contour>
        <pt x="319" y="577" on="1"/>
        <pt x="337" y="577" on="0"/>
        <pt x="344" y="546" on="1"/>
        <pt x="344" y="528" on="0"/>
        <pt x="281" y="496" on="1"/>
        <pt x="203" y="428" on="0"/>
        <pt x="165" y="262" on="1"/>
        <pt x="165" y="244" on="1"/>
        <pt x="252" y="287" on="0"/>
        <pt x="290" y="296" on="1"/>
        <pt x="302" y="296" on="0"/>
        <pt x="319" y="275" on="1"/>
        <pt x="319" y="256" on="1"/>
        <pt x="319" y="245" on="0"/>
        <pt x="231" y="212" on="1"/>
        <pt x="165" y="176" on="0"/>
        <pt x="165" y="171" on="1"/>
        <pt x="165" y="162" on="1"/>
        <pt x="165" y="106" on="0"/>
        <pt x="237" y="65" on="1"/>
        <pt x="271" y="59" on="1"/>
        <pt x="304" y="59" on="0"/>
        <pt x="369" y="100" on="1"/>
        <pt x="381" y="100" on="1"/>
        <pt x="402" y="90" on="0"/>
        <pt x="402" y="71" on="1"/>
        <pt x="402" y="65" on="1"/>
        <pt x="340" y="0" on="0"/>
        <pt x="265" y="0" on="1"/>
        <pt x="158" y="0" on="0"/>
        <pt x="109" y="144" on="1"/>
        <pt x="46" y="131" on="1"/>
        <pt x="0" y="138" on="0"/>
        <pt x="0" y="184" on="0"/>
        <pt x="27" y="194" on="1"/>
        <pt x="50" y="190" on="1"/>
        <pt x="102" y="205" on="0"/>
        <pt x="102" y="212" on="1"/>
        <pt x="102" y="382" on="0"/>
        <pt x="231" y="527" on="1"/>
        <pt x="296" y="577" on="0"/>
      </contour>
    </TTGlyph>
    <TTGlyph name="Eacute" xMin="0" yMin="0" xMax="433" yMax="771">
      <contour>
        <pt x="319" y="577" on="1"/>
        <pt x="337" y="577" on="0"/>
        <pt x="344" y="546" on="1"/>
        <pt x="344" y="528" on="0"/>
        <pt x="281" y="496" on="1"/>
        <pt x="203" y="428" on="0"/>
        <pt x="165" y="262" on="1"/>
        <pt x="165" y="244" on="1"/>
        <pt x="252" y="287" on="0"/>
        <pt x="290" y="296" on="1"/>
        <pt x="302" y="296" on="0"/>
        <pt x="319" y="275" on="1"/>
        <pt x="319" y="256" on="1"/>
        <pt x="319" y="245" on="0"/>
        <pt x="231" y="212" on="1"/>
        <pt x="165" y="176" on="0"/>
        <pt x="165" y="171" on="1"/>
        <pt x="165" y="162" on="1"/>
        <pt x="165" y="106" on="0"/>
        <pt x="237" y="65" on="1"/>
        <pt x="271" y="59" on="1"/>
        <pt x="304" y="59" on="0"/>
        <pt x="369" y="100" on="1"/>
        <pt x="381" y="100" on="1"/>
        <pt x="402" y="90" on="0"/>
        <pt x="402" y="71" on="1"/>
        <pt x="402" y="65" on="1"/>
        <pt x="340" y="0" on="0"/>
        <pt x="265" y="0" on="1"/>
        <pt x="158" y="0" on="0"/>
        <pt x="109" y="144" on="1"/>
        <pt x="46" y="131" on="1"/>
        <pt x="0" y="138" on="0"/>
        <pt x="0" y="184" on="0"/>
        <pt x="27" y="194" on="1"/>
        <pt x="50" y="190" on="1"/>
        <pt x="102" y="205" on="0"/>
        <pt x="102" y="212" on="1"/>
        <pt x="102" y="382" on="0"/>
        <pt x="231" y="527" on="1"/>
        <pt x="296" y="577" on="0"/>
      </contour>
      <contour>
        <pt x="171" y="655" on="1"/>
        <pt x="173" y="684" on="0"/>
        <pt x="201" y="693" on="1"/>
        <pt x="364" y="771" on="0"/>
        <pt x="402" y="771" on="1"/>
        <pt x="404" y="771" on="0"/>
        <pt x="405" y="771" on="1"/>
        <pt x="430" y="770" on="0"/>
        <pt x="433" y="734" on="1"/>
        <pt x="426" y="706" on="1"/>
        <pt x="290" y="658" on="0"/>
        <pt x="263" y="651" on="1"/>
        <pt x="252" y="634" on="0"/>
        <pt x="200" y="618" on="1"/>
        <pt x="176" y="620" on="0"/>
      </contour>
    </TTGlyph>
    <TTGlyph name="Ebreve" xMin="0" yMin="0" xMax="402" yMax="791">
      <contour>
        <pt x="319" y="577" on="1"/>
        <pt x="337" y="577" on="0"/>
        <pt x="344" y="546" on="1"/>
        <pt x="344" y="528" on="0"/>
        <pt x="281" y="496" on="1"/>
        <pt x="203" y="428" on="0"/>
        <pt x="165" y="262" on="1"/>
        <pt x="165" y="244" on="1"/>
        <pt x="252" y="287" on="0"/>
        <pt x="290" y="296" on="1"/>
        <pt x="302" y="296" on="0"/>
        <pt x="319" y="275" on="1"/>
        <pt x="319" y="256" on="1"/>
        <pt x="319" y="245" on="0"/>
        <pt x="231" y="212" on="1"/>
        <pt x="165" y="176" on="0"/>
        <pt x="165" y="171" on="1"/>
        <pt x="165" y="162" on="1"/>
        <pt x="165" y="106" on="0"/>
        <pt x="237" y="65" on="1"/>
        <pt x="271" y="59" on="1"/>
        <pt x="304" y="59" on="0"/>
        <pt x="369" y="100" on="1"/>
        <pt x="381" y="100" on="1"/>
        <pt x="402" y="90" on="0"/>
        <pt x="402" y="71" on="1"/>
        <pt x="402" y="65" on="1"/>
        <pt x="340" y="0" on="0"/>
        <pt x="265" y="0" on="1"/>
        <pt x="158" y="0" on="0"/>
        <pt x="109" y="144" on="1"/>
        <pt x="46" y="131" on="1"/>
        <pt x="0" y="138" on="0"/>
        <pt x="0" y="184" on="0"/>
        <pt x="27" y="194" on="1"/>
        <pt x="50" y="190" on="1"/>
        <pt x="102" y="205" on="0"/>
        <pt x="102" y="212" on="1"/>
        <pt x="102" y="382" on="0"/>
        <pt x="231" y="527" on="1"/>
        <pt x="296" y="577" on="0"/>
      </contour>
      <contour>
        <pt x="200" y="700" on="1"/>
        <pt x="266" y="700" on="0"/>
        <pt x="276" y="791" on="1"/>
        <pt x="312" y="791" on="1"/>
        <pt x="308" y="712" on="0"/>
        <pt x="266" y="690" on="1"/>
        <pt x="226" y="671" on="0"/>
        <pt x="206" y="671" on="1"/>
        <pt x="205" y="671" on="0"/>
        <pt x="202" y="671" on="0"/>
        <pt x="200" y="671" on="1"/>
        <pt x="141" y="671" on="0"/>
        <pt x="129" y="713" on="1"/>
        <pt x="121" y="741" on="0"/>
        <pt x="121" y="776" on="0"/>
        <pt x="124" y="787" on="1"/>
        <pt x="161" y="786" on="1"/>
        <pt x="161" y="735" on="1"/>
        <pt x="161" y="700" on="0"/>
        <pt x="194" y="700" on="1"/>
        <pt x="197" y="700" on="0"/>
      </contour>
    </TTGlyph>
    <TTGlyph name="Ecaron" xMin="0" yMin="0" xMax="402" yMax="891">
      <contour>
        <pt x="319" y="577" on="1"/>
        <pt x="337" y="577" on="0"/>
        <pt x="344" y="546" on="1"/>
        <pt x="344" y="528" on="0"/>
        <pt x="281" y="496" on="1"/>
        <pt x="203" y="428" on="0"/>
        <pt x="165" y="262" on="1"/>
        <pt x="165" y="244" on="1"/>
        <pt x="252" y="287" on="0"/>
        <pt x="290" y="296" on="1"/>
        <pt x="302" y="296" on="0"/>
        <pt x="319" y="275" on="1"/>
        <pt x="319" y="256" on="1"/>
        <pt x="319" y="245" on="0"/>
        <pt x="231" y="212" on="1"/>
        <pt x="165" y="176" on="0"/>
        <pt x="165" y="171" on="1"/>
        <pt x="165" y="162" on="1"/>
        <pt x="165" y="106" on="0"/>
        <pt x="237" y="65" on="1"/>
        <pt x="271" y="59" on="1"/>
        <pt x="304" y="59" on="0"/>
        <pt x="369" y="100" on="1"/>
        <pt x="381" y="100" on="1"/>
        <pt x="402" y="90" on="0"/>
        <pt x="402" y="71" on="1"/>
        <pt x="402" y="65" on="1"/>
        <pt x="340" y="0" on="0"/>
        <pt x="265" y="0" on="1"/>
        <pt x="158" y="0" on="0"/>
        <pt x="109" y="144" on="1"/>
        <pt x="46" y="131" on="1"/>
        <pt x="0" y="138" on="0"/>
        <pt x="0" y="184" on="0"/>
        <pt x="27" y="194" on="1"/>
        <pt x="50" y="190" on="1"/>
        <pt x="102" y="205" on="0"/>
        <pt x="102" y="212" on="1"/>
        <pt x="102" y="382" on="0"/>
        <pt x="231" y="527" on="1"/>
        <pt x="296" y="577" on="0"/>
      </contour>
      <contour>
        <pt x="209" y="697" on="1"/>
        <pt x="193" y="704" on="1"/>
        <pt x="78" y="836" on="1"/>
        <pt x="46" y="847" on="0"/>
        <pt x="46" y="854" on="1"/>
        <pt x="46" y="866" on="0"/>
        <pt x="78" y="874" on="1"/>
        <pt x="89" y="872" on="1"/>
        <pt x="114" y="869" on="0"/>
        <pt x="215" y="749" on="1"/>
        <pt x="225" y="755" on="0"/>
        <pt x="266" y="802" on="1"/>
        <pt x="334" y="891" on="0"/>
        <pt x="359" y="891" on="1"/>
        <pt x="361" y="891" on="1"/>
        <pt x="388" y="890" on="0"/>
        <pt x="388" y="877" on="1"/>
        <pt x="348" y="829" on="1"/>
        <pt x="243" y="697" on="0"/>
      </contour>
    </TTGlyph>
    <TTGlyph name="Ecircumflex" xMin="0" yMin="0" xMax="411" yMax="811">
      <contour>
        <pt x="319" y="577" on="1"/>
        <pt x="337" y="577" on="0"/>
        <pt x="344" y="546" on="1"/>
        <pt x="344" y="528" on="0"/>
        <pt x="281" y="496" on="1"/>
        <pt x="203" y="428" on="0"/>
        <pt x="165" y="262" on="1"/>
        <pt x="165" y="244" on="1"/>
        <pt x="252" y="287" on="0"/>
        <pt x="290" y="296" on="1"/>
        <pt x="302" y="296" on="0"/>
        <pt x="319" y="275" on="1"/>
        <pt x="319" y="256" on="1"/>
        <pt x="319" y="245" on="0"/>
        <pt x="231" y="212" on="1"/>
        <pt x="165" y="176" on="0"/>
        <pt x="165" y="171" on="1"/>
        <pt x="165" y="162" on="1"/>
        <pt x="165" y="106" on="0"/>
        <pt x="237" y="65" on="1"/>
        <pt x="271" y="59" on="1"/>
        <pt x="304" y="59" on="0"/>
        <pt x="369" y="100" on="1"/>
        <pt x="381" y="100" on="1"/>
        <pt x="402" y="90" on="0"/>
        <pt x="402" y="71" on="1"/>
        <pt x="402" y="65" on="1"/>
        <pt x="340" y="0" on="0"/>
        <pt x="265" y="0" on="1"/>
        <pt x="158" y="0" on="0"/>
        <pt x="109" y="144" on="1"/>
        <pt x="46" y="131" on="1"/>
        <pt x="0" y="138" on="0"/>
        <pt x="0" y="184" on="0"/>
        <pt x="27" y="194" on="1"/>
        <pt x="50" y="190" on="1"/>
        <pt x="102" y="205" on="0"/>
        <pt x="102" y="212" on="1"/>
        <pt x="102" y="382" on="0"/>
        <pt x="231" y="527" on="1"/>
        <pt x="296" y="577" on="0"/>
      </contour>
      <contour>
        <pt x="231" y="804" on="1"/>
        <pt x="247" y="811" on="1"/>
        <pt x="277" y="811" on="0"/>
        <pt x="373" y="667" on="1"/>
        <pt x="411" y="613" on="1"/>
        <pt x="411" y="601" on="0"/>
        <pt x="387" y="598" on="1"/>
        <pt x="361" y="596" on="1"/>
        <pt x="361" y="598" on="0"/>
        <pt x="289" y="684" on="1"/>
        <pt x="269" y="733" on="0"/>
        <pt x="256" y="733" on="1"/>
        <pt x="252" y="733" on="0"/>
        <pt x="249" y="728" on="1"/>
        <pt x="160" y="623" on="0"/>
        <pt x="153" y="602" on="1"/>
        <pt x="126" y="617" on="1"/>
        <pt x="97" y="623" on="0"/>
        <pt x="97" y="639" on="1"/>
        <pt x="97" y="647" on="0"/>
        <pt x="126" y="658" on="1"/>
      </contour>
    </TTGlyph>
    <TTGlyph name="Edieresis" xMin="0" yMin="0" xMax="402" yMax="691">
      <contour>
        <pt x="319" y="577" on="1"/>
        <pt x="337" y="577" on="0"/>
        <pt x="344" y="546" on="1"/>
        <pt x="344" y="528" on="0"/>
        <pt x="281" y="496" on="1"/>
        <pt x="203" y="428" on="0"/>
        <pt x="165" y="262" on="1"/>
        <pt x="165" y="244" on="1"/>
        <pt x="252" y="287" on="0"/>
        <pt x="290" y="296" on="1"/>
        <pt x="302" y="296" on="0"/>
        <pt x="319" y="275" on="1"/>
        <pt x="319" y="256" on="1"/>
        <pt x="319" y="245" on="0"/>
        <pt x="231" y="212" on="1"/>
        <pt x="165" y="176" on="0"/>
        <pt x="165" y="171" on="1"/>
        <pt x="165" y="162" on="1"/>
        <pt x="165" y="106" on="0"/>
        <pt x="237" y="65" on="1"/>
        <pt x="271" y="59" on="1"/>
        <pt x="304" y="59" on="0"/>
        <pt x="369" y="100" on="1"/>
        <pt x="381" y="100" on="1"/>
        <pt x="402" y="90" on="0"/>
        <pt x="402" y="71" on="1"/>
        <pt x="402" y="65" on="1"/>
        <pt x="340" y="0" on="0"/>
        <pt x="265" y="0" on="1"/>
        <pt x="158" y="0" on="0"/>
        <pt x="109" y="144" on="1"/>
        <pt x="46" y="131" on="1"/>
        <pt x="0" y="138" on="0"/>
        <pt x="0" y="184" on="0"/>
        <pt x="27" y="194" on="1"/>
        <pt x="50" y="190" on="1"/>
        <pt x="102" y="205" on="0"/>
        <pt x="102" y="212" on="1"/>
        <pt x="102" y="382" on="0"/>
        <pt x="231" y="527" on="1"/>
        <pt x="296" y="577" on="0"/>
      </contour>
      <contour>
        <pt x="263" y="624" on="1"/>
        <pt x="242" y="625" on="0"/>
        <pt x="235" y="658" on="1"/>
        <pt x="236" y="683" on="0"/>
        <pt x="278" y="683" on="1"/>
        <pt x="301" y="667" on="0"/>
        <pt x="301" y="654" on="1"/>
        <pt x="301" y="626" on="0"/>
      </contour>
      <contour>
        <pt x="150" y="630" on="1"/>
        <pt x="127" y="630" on="0"/>
        <pt x="126" y="660" on="1"/>
        <pt x="127" y="683" on="0"/>
        <pt x="162" y="691" on="1"/>
        <pt x="190" y="679" on="0"/>
        <pt x="188" y="658" on="1"/>
        <pt x="175" y="630" on="0"/>
      </contour>
    </TTGlyph>
    <TTGlyph name="Edotaccent" xMin="0" yMin="0" xMax="402" yMax="694">
      <contour>
        <pt x="319" y="577" on="1"/>
        <pt x="337" y="577" on="0"/>
        <pt x="344" y="546" on="1"/>
        <pt x="344" y="528" on="0"/>
        <pt x="281" y="496" on="1"/>
        <pt x="203" y="428" on="0"/>
        <pt x="165" y="262" on="1"/>
        <pt x="165" y="244" on="1"/>
        <pt x="252" y="287" on="0"/>
        <pt x="290" y="296" on="1"/>
        <pt x="302" y="296" on="0"/>
        <pt x="319" y="275" on="1"/>
        <pt x="319" y="256" on="1"/>
        <pt x="319" y="245" on="0"/>
        <pt x="231" y="212" on="1"/>
        <pt x="165" y="176" on="0"/>
        <pt x="165" y="171" on="1"/>
        <pt x="165" y="162" on="1"/>
        <pt x="165" y="106" on="0"/>
        <pt x="237" y="65" on="1"/>
        <pt x="271" y="59" on="1"/>
        <pt x="304" y="59" on="0"/>
        <pt x="369" y="100" on="1"/>
        <pt x="381" y="100" on="1"/>
        <pt x="402" y="90" on="0"/>
        <pt x="402" y="71" on="1"/>
        <pt x="402" y="65" on="1"/>
        <pt x="340" y="0" on="0"/>
        <pt x="265" y="0" on="1"/>
        <pt x="158" y="0" on="0"/>
        <pt x="109" y="144" on="1"/>
        <pt x="46" y="131" on="1"/>
        <pt x="0" y="138" on="0"/>
        <pt x="0" y="184" on="0"/>
        <pt x="27" y="194" on="1"/>
        <pt x="50" y="190" on="1"/>
        <pt x="102" y="205" on="0"/>
        <pt x="102" y="212" on="1"/>
        <pt x="102" y="382" on="0"/>
        <pt x="231" y="527" on="1"/>
        <pt x="296" y="577" on="0"/>
      </contour>
      <contour>
        <pt x="272" y="694" on="1"/>
        <pt x="302" y="694" on="0"/>
        <pt x="307" y="646" on="1"/>
        <pt x="298" y="600" on="0"/>
        <pt x="258" y="600" on="1"/>
        <pt x="228" y="600" on="0"/>
        <pt x="219" y="646" on="1"/>
        <pt x="236" y="694" on="0"/>
      </contour>
    </TTGlyph>
    <TTGlyph name="Egrave" xMin="0" yMin="0" xMax="404" yMax="768">
      <contour>
        <pt x="319" y="577" on="1"/>
        <pt x="337" y="577" on="0"/>
        <pt x="344" y="546" on="1"/>
        <pt x="344" y="528" on="0"/>
        <pt x="281" y="496" on="1"/>
        <pt x="203" y="428" on="0"/>
        <pt x="165" y="262" on="1"/>
        <pt x="165" y="244" on="1"/>
        <pt x="252" y="287" on="0"/>
        <pt x="290" y="296" on="1"/>
        <pt x="302" y="296" on="0"/>
        <pt x="319" y="275" on="1"/>
        <pt x="319" y="256" on="1"/>
        <pt x="319" y="245" on="0"/>
        <pt x="231" y="212" on="1"/>
        <pt x="165" y="176" on="0"/>
        <pt x="165" y="171" on="1"/>
        <pt x="165" y="162" on="1"/>
        <pt x="165" y="106" on="0"/>
        <pt x="237" y="65" on="1"/>
        <pt x="271" y="59" on="1"/>
        <pt x="304" y="59" on="0"/>
        <pt x="369" y="100" on="1"/>
        <pt x="381" y="100" on="1"/>
        <pt x="402" y="90" on="0"/>
        <pt x="402" y="71" on="1"/>
        <pt x="402" y="65" on="1"/>
        <pt x="340" y="0" on="0"/>
        <pt x="265" y="0" on="1"/>
        <pt x="158" y="0" on="0"/>
        <pt x="109" y="144" on="1"/>
        <pt x="46" y="131" on="1"/>
        <pt x="0" y="138" on="0"/>
        <pt x="0" y="184" on="0"/>
        <pt x="27" y="194" on="1"/>
        <pt x="50" y="190" on="1"/>
        <pt x="102" y="205" on="0"/>
        <pt x="102" y="212" on="1"/>
        <pt x="102" y="382" on="0"/>
        <pt x="231" y="527" on="1"/>
        <pt x="296" y="577" on="0"/>
      </contour>
      <contour>
        <pt x="404" y="638" on="1"/>
        <pt x="400" y="610" on="0"/>
        <pt x="379" y="608" on="1"/>
        <pt x="331" y="621" on="0"/>
        <pt x="320" y="635" on="1"/>
        <pt x="179" y="694" on="0"/>
        <pt x="179" y="727" on="1"/>
        <pt x="179" y="733" on="0"/>
        <pt x="183" y="738" on="1"/>
        <pt x="186" y="766" on="0"/>
        <pt x="209" y="768" on="1"/>
        <pt x="255" y="755" on="0"/>
        <pt x="378" y="668" on="1"/>
        <pt x="402" y="661" on="0"/>
      </contour>
    </TTGlyph>
    <TTGlyph name="Emacron" xMin="0" yMin="0" xMax="402" yMax="726">
      <contour>
        <pt x="319" y="577" on="1"/>
        <pt x="337" y="577" on="0"/>
        <pt x="344" y="546" on="1"/>
        <pt x="344" y="528" on="0"/>
        <pt x="281" y="496" on="1"/>
        <pt x="203" y="428" on="0"/>
        <pt x="165" y="262" on="1"/>
        <pt x="165" y="244" on="1"/>
        <pt x="252" y="287" on="0"/>
        <pt x="290" y="296" on="1"/>
        <pt x="302" y="296" on="0"/>
        <pt x="319" y="275" on="1"/>
        <pt x="319" y="256" on="1"/>
        <pt x="319" y="245" on="0"/>
        <pt x="231" y="212" on="1"/>
        <pt x="165" y="176" on="0"/>
        <pt x="165" y="171" on="1"/>
        <pt x="165" y="162" on="1"/>
        <pt x="165" y="106" on="0"/>
        <pt x="237" y="65" on="1"/>
        <pt x="271" y="59" on="1"/>
        <pt x="304" y="59" on="0"/>
        <pt x="369" y="100" on="1"/>
        <pt x="381" y="100" on="1"/>
        <pt x="402" y="90" on="0"/>
        <pt x="402" y="71" on="1"/>
        <pt x="402" y="65" on="1"/>
        <pt x="340" y="0" on="0"/>
        <pt x="265" y="0" on="1"/>
        <pt x="158" y="0" on="0"/>
        <pt x="109" y="144" on="1"/>
        <pt x="46" y="131" on="1"/>
        <pt x="0" y="138" on="0"/>
        <pt x="0" y="184" on="0"/>
        <pt x="27" y="194" on="1"/>
        <pt x="50" y="190" on="1"/>
        <pt x="102" y="205" on="0"/>
        <pt x="102" y="212" on="1"/>
        <pt x="102" y="382" on="0"/>
        <pt x="231" y="527" on="1"/>
        <pt x="296" y="577" on="0"/>
      </contour>
      <contour>
        <pt x="183" y="714" on="1"/>
        <pt x="364" y="726" on="1"/>
        <pt x="389" y="726" on="0"/>
        <pt x="393" y="695" on="1"/>
        <pt x="393" y="664" on="0"/>
        <pt x="299" y="664" on="1"/>
        <pt x="230" y="654" on="0"/>
        <pt x="177" y="654" on="1"/>
        <pt x="112" y="662" on="0"/>
        <pt x="112" y="691" on="1"/>
        <pt x="112" y="711" on="0"/>
        <pt x="139" y="723" on="1"/>
        <pt x="177" y="714" on="1"/>
      </contour>
    </TTGlyph>
    <TTGlyph name="Eogonek" xMin="0" yMin="-144" xMax="433" yMax="577">
      <contour>
        <pt x="319" y="577" on="1"/>
        <pt x="337" y="577" on="0"/>
        <pt x="344" y="546" on="1"/>
        <pt x="344" y="528" on="0"/>
        <pt x="281" y="496" on="1"/>
        <pt x="203" y="428" on="0"/>
        <pt x="165" y="262" on="1"/>
        <pt x="165" y="244" on="1"/>
        <pt x="252" y="287" on="0"/>
        <pt x="290" y="296" on="1"/>
        <pt x="302" y="296" on="0"/>
        <pt x="319" y="275" on="1"/>
        <pt x="319" y="256" on="1"/>
        <pt x="319" y="245" on="0"/>
        <pt x="231" y="212" on="1"/>
        <pt x="165" y="176" on="0"/>
        <pt x="165" y="171" on="1"/>
        <pt x="165" y="162" on="1"/>
        <pt x="165" y="106" on="0"/>
        <pt x="237" y="65" on="1"/>
        <pt x="271" y="59" on="1"/>
        <pt x="304" y="59" on="0"/>
        <pt x="369" y="100" on="1"/>
        <pt x="381" y="100" on="1"/>
        <pt x="402" y="90" on="0"/>
        <pt x="402" y="71" on="1"/>
        <pt x="402" y="65" on="1"/>
        <pt x="375" y="35" on="0"/>
        <pt x="344" y="19" on="1"/>
        <pt x="280" y="-59" on="1"/>
        <pt x="280" y="-69" on="1"/>
        <pt x="280" y="-74" on="0"/>
        <pt x="321" y="-74" on="0"/>
        <pt x="402" y="-55" on="1"/>
        <pt x="419" y="-47" on="0"/>
        <pt x="433" y="-47" on="0"/>
        <pt x="433" y="-60" on="0"/>
        <pt x="423" y="-76" on="1"/>
        <pt x="394" y="-120" on="0"/>
        <pt x="290" y="-144" on="1"/>
        <pt x="221" y="-116" on="0"/>
        <pt x="221" y="-65" on="1"/>
        <pt x="221" y="-29" on="0"/>
        <pt x="246" y="0" on="1"/>
        <pt x="154" y="12" on="0"/>
        <pt x="109" y="144" on="1"/>
        <pt x="46" y="131" on="1"/>
        <pt x="0" y="138" on="0"/>
        <pt x="0" y="184" on="0"/>
        <pt x="27" y="194" on="1"/>
        <pt x="50" y="190" on="1"/>
        <pt x="102" y="205" on="0"/>
        <pt x="102" y="212" on="1"/>
        <pt x="102" y="382" on="0"/>
        <pt x="231" y="527" on="1"/>
        <pt x="296" y="577" on="0"/>
      </contour>
    </TTGlyph>
    <TTGlyph name="Eth" xMin="-41" yMin="0" xMax="439" yMax="584">
      <contour>
        <pt x="11" y="475" on="1"/>
        <pt x="11" y="530" on="0"/>
        <pt x="74" y="571" on="1"/>
        <pt x="99" y="584" on="0"/>
        <pt x="126" y="584" on="1"/>
        <pt x="268" y="584" on="0"/>
        <pt x="399" y="434" on="1"/>
        <pt x="439" y="355" on="0"/>
        <pt x="439" y="281" on="1"/>
        <pt x="439" y="107" on="0"/>
        <pt x="261" y="25" on="1"/>
        <pt x="207" y="2" on="0"/>
        <pt x="147" y="0" on="1"/>
        <pt x="87" y="7" on="1"/>
        <pt x="76" y="15" on="0"/>
        <pt x="76" y="31" on="1"/>
        <pt x="74" y="31" on="1"/>
        <pt x="74" y="45" on="0"/>
        <pt x="82" y="51" on="1"/>
        <pt x="75" y="142" on="0"/>
        <pt x="71" y="267" on="1"/>
        <pt x="52" y="267" on="1"/>
        <pt x="-41" y="274" on="0"/>
        <pt x="-41" y="311" on="1"/>
        <pt x="-41" y="322" on="0"/>
        <pt x="-20" y="339" on="1"/>
        <pt x="-10" y="339" on="1"/>
        <pt x="36" y="326" on="1"/>
        <pt x="67" y="326" on="1"/>
        <pt x="59" y="450" on="1"/>
        <pt x="42" y="440" on="1"/>
        <pt x="16" y="440" on="0"/>
      </contour>
      <contour>
        <pt x="139" y="525" on="1"/>
        <pt x="130" y="525" on="1"/>
        <pt x="120" y="474" on="1"/>
        <pt x="117" y="451" on="1"/>
        <pt x="117" y="439" on="1"/>
        <pt x="117" y="394" on="0"/>
        <pt x="127" y="345" on="1"/>
        <pt x="130" y="345" on="1"/>
        <pt x="246" y="380" on="0"/>
        <pt x="274" y="380" on="1"/>
        <pt x="302" y="374" on="0"/>
        <pt x="302" y="351" on="1"/>
        <pt x="302" y="317" on="0"/>
        <pt x="234" y="317" on="1"/>
        <pt x="130" y="280" on="1"/>
        <pt x="130" y="195" on="0"/>
        <pt x="141" y="65" on="1"/>
        <pt x="195" y="65" on="1"/>
        <pt x="380" y="115" on="0"/>
        <pt x="380" y="281" on="1"/>
        <pt x="380" y="459" on="0"/>
        <pt x="174" y="519" on="1"/>
        <pt x="161" y="525" on="0"/>
      </contour>
    </TTGlyph>
    <TTGlyph name="Euro" xMin="-71" yMin="0" xMax="481" yMax="647">
      <contour>
        <pt x="374" y="606" on="1"/>
        <pt x="374" y="588" on="0"/>
        <pt x="328" y="588" on="1"/>
        <pt x="315" y="588" on="0"/>
        <pt x="300" y="589" on="1"/>
        <pt x="125" y="564" on="0"/>
        <pt x="86" y="416" on="1"/>
        <pt x="82" y="391" on="1"/>
        <pt x="140" y="395" on="1"/>
        <pt x="174" y="389" on="0"/>
        <pt x="174" y="361" on="1"/>
        <pt x="174" y="345" on="0"/>
        <pt x="152" y="336" on="1"/>
        <pt x="75" y="330" on="1"/>
        <pt x="69" y="280" on="1"/>
        <pt x="164" y="290" on="1"/>
        <pt x="175" y="286" on="0"/>
        <pt x="182" y="274" on="1"/>
        <pt x="182" y="261" on="1"/>
        <pt x="182" y="227" on="0"/>
        <pt x="110" y="227" on="1"/>
        <pt x="93" y="222" on="0"/>
        <pt x="60" y="217" on="1"/>
        <pt x="59" y="206" on="1"/>
        <pt x="59" y="184" on="1"/>
        <pt x="59" y="80" on="0"/>
        <pt x="152" y="62" on="1"/>
        <pt x="194" y="62" on="1"/>
        <pt x="298" y="62" on="0"/>
        <pt x="446" y="196" on="1"/>
        <pt x="450" y="196" on="1"/>
        <pt x="477" y="196" on="0"/>
        <pt x="481" y="162" on="1"/>
        <pt x="458" y="102" on="0"/>
        <pt x="427" y="102" on="1"/>
        <pt x="284" y="0" on="0"/>
        <pt x="56" y="0" on="0"/>
        <pt x="9" y="125" on="1"/>
        <pt x="0" y="196" on="1"/>
        <pt x="0" y="211" on="1"/>
        <pt x="-71" y="216" on="0"/>
        <pt x="-71" y="255" on="1"/>
        <pt x="-71" y="266" on="0"/>
        <pt x="-53" y="280" on="1"/>
        <pt x="-46" y="280" on="1"/>
        <pt x="-11" y="274" on="1"/>
        <pt x="5" y="274" on="1"/>
        <pt x="12" y="326" on="1"/>
        <pt x="-53" y="329" on="0"/>
        <pt x="-64" y="370" on="1"/>
        <pt x="-53" y="399" on="0"/>
        <pt x="-33" y="399" on="1"/>
        <pt x="15" y="386" on="1"/>
        <pt x="21" y="386" on="1"/>
        <pt x="41" y="475" on="0"/>
        <pt x="86" y="544" on="1"/>
        <pt x="153" y="647" on="0"/>
        <pt x="324" y="647" on="1"/>
        <pt x="335" y="647" on="0"/>
        <pt x="346" y="647" on="1"/>
        <pt x="374" y="621" on="0"/>
      </contour>
    </TTGlyph>
    <TTGlyph name="F" xMin="12" yMin="-55" xMax="381" yMax="626">
      <contour>
        <pt x="321" y="626" on="1"/>
        <pt x="372" y="626" on="0"/>
        <pt x="381" y="589" on="1"/>
        <pt x="381" y="574" on="0"/>
        <pt x="352" y="557" on="1"/>
        <pt x="319" y="566" on="1"/>
        <pt x="315" y="566" on="1"/>
        <pt x="259" y="566" on="0"/>
        <pt x="187" y="407" on="1"/>
        <pt x="177" y="368" on="0"/>
        <pt x="177" y="332" on="1"/>
        <pt x="177" y="291" on="1"/>
        <pt x="181" y="291" on="1"/>
        <pt x="303" y="320" on="0"/>
        <pt x="337" y="320" on="1"/>
        <pt x="381" y="312" on="0"/>
        <pt x="381" y="285" on="1"/>
        <pt x="372" y="257" on="0"/>
        <pt x="352" y="257" on="1"/>
        <pt x="334" y="260" on="1"/>
        <pt x="232" y="251" on="0"/>
        <pt x="184" y="229" on="1"/>
        <pt x="184" y="222" on="1"/>
        <pt x="196" y="60" on="1"/>
        <pt x="196" y="-55" on="0"/>
        <pt x="150" y="-55" on="1"/>
        <pt x="134" y="-55" on="0"/>
        <pt x="121" y="-30" on="1"/>
        <pt x="137" y="11" on="0"/>
        <pt x="137" y="136" on="0"/>
        <pt x="125" y="216" on="1"/>
        <pt x="77" y="210" on="1"/>
        <pt x="12" y="216" on="0"/>
        <pt x="12" y="251" on="1"/>
        <pt x="22" y="279" on="0"/>
        <pt x="44" y="279" on="1"/>
        <pt x="69" y="272" on="1"/>
        <pt x="87" y="272" on="1"/>
        <pt x="119" y="276" on="1"/>
        <pt x="119" y="332" on="1"/>
        <pt x="119" y="487" on="0"/>
        <pt x="256" y="604" on="1"/>
        <pt x="287" y="626" on="0"/>
      </contour>
    </TTGlyph>
    <TTGlyph name="G" xMin="20" yMin="-70" xMax="454" yMax="751">
      <contour>
        <pt x="316" y="751" on="1"/>
        <pt x="332" y="751" on="0"/>
        <pt x="345" y="720" on="1"/>
        <pt x="345" y="696" on="0"/>
        <pt x="272" y="680" on="1"/>
        <pt x="180" y="629" on="0"/>
        <pt x="79" y="375" on="0"/>
        <pt x="79" y="251" on="1"/>
        <pt x="79" y="52" on="0"/>
        <pt x="207" y="-5" on="1"/>
        <pt x="239" y="-11" on="1"/>
        <pt x="346" y="-11" on="0"/>
        <pt x="391" y="176" on="1"/>
        <pt x="395" y="217" on="1"/>
        <pt x="395" y="297" on="0"/>
        <pt x="341" y="351" on="1"/>
        <pt x="335" y="351" on="1"/>
        <pt x="314" y="327" on="0"/>
        <pt x="251" y="182" on="1"/>
        <pt x="229" y="167" on="1"/>
        <pt x="201" y="167" on="0"/>
        <pt x="197" y="201" on="1"/>
        <pt x="292" y="426" on="0"/>
        <pt x="326" y="426" on="1"/>
        <pt x="332" y="426" on="1"/>
        <pt x="454" y="355" on="0"/>
        <pt x="454" y="217" on="1"/>
        <pt x="454" y="61" on="0"/>
        <pt x="326" y="-43" on="1"/>
        <pt x="305" y="-61" on="0"/>
        <pt x="241" y="-70" on="1"/>
        <pt x="120" y="-70" on="0"/>
        <pt x="41" y="105" on="1"/>
        <pt x="20" y="180" on="0"/>
        <pt x="20" y="242" on="1"/>
        <pt x="20" y="257" on="1"/>
        <pt x="20" y="471" on="0"/>
        <pt x="157" y="661" on="1"/>
        <pt x="246" y="751" on="0"/>
      </contour>
    </TTGlyph>
    <TTGlyph name="Gbreve" xMin="20" yMin="-70" xMax="454" yMax="921">
      <contour>
        <pt x="316" y="751" on="1"/>
        <pt x="332" y="751" on="0"/>
        <pt x="345" y="720" on="1"/>
        <pt x="345" y="696" on="0"/>
        <pt x="272" y="680" on="1"/>
        <pt x="180" y="629" on="0"/>
        <pt x="79" y="375" on="0"/>
        <pt x="79" y="251" on="1"/>
        <pt x="79" y="52" on="0"/>
        <pt x="207" y="-5" on="1"/>
        <pt x="239" y="-11" on="1"/>
        <pt x="346" y="-11" on="0"/>
        <pt x="391" y="176" on="1"/>
        <pt x="395" y="217" on="1"/>
        <pt x="395" y="297" on="0"/>
        <pt x="341" y="351" on="1"/>
        <pt x="335" y="351" on="1"/>
        <pt x="314" y="327" on="0"/>
        <pt x="251" y="182" on="1"/>
        <pt x="229" y="167" on="1"/>
        <pt x="201" y="167" on="0"/>
        <pt x="197" y="201" on="1"/>
        <pt x="292" y="426" on="0"/>
        <pt x="326" y="426" on="1"/>
        <pt x="332" y="426" on="1"/>
        <pt x="454" y="355" on="0"/>
        <pt x="454" y="217" on="1"/>
        <pt x="454" y="61" on="0"/>
        <pt x="326" y="-43" on="1"/>
        <pt x="305" y="-61" on="0"/>
        <pt x="241" y="-70" on="1"/>
        <pt x="120" y="-70" on="0"/>
        <pt x="41" y="105" on="1"/>
        <pt x="20" y="180" on="0"/>
        <pt x="20" y="242" on="1"/>
        <pt x="20" y="257" on="1"/>
        <pt x="20" y="471" on="0"/>
        <pt x="157" y="661" on="1"/>
        <pt x="246" y="751" on="0"/>
      </contour>
      <contour>
        <pt x="220" y="830" on="1"/>
        <pt x="286" y="830" on="0"/>
        <pt x="296" y="921" on="1"/>
        <pt x="332" y="921" on="1"/>
        <pt x="328" y="842" on="0"/>
        <pt x="286" y="820" on="1"/>
        <pt x="246" y="801" on="0"/>
        <pt x="226" y="801" on="1"/>
        <pt x="225" y="801" on="0"/>
        <pt x="222" y="801" on="0"/>
        <pt x="220" y="801" on="1"/>
        <pt x="161" y="801" on="0"/>
        <pt x="149" y="843" on="1"/>
        <pt x="141" y="871" on="0"/>
        <pt x="141" y="906" on="0"/>
        <pt x="144" y="917" on="1"/>
        <pt x="181" y="916" on="1"/>
        <pt x="181" y="865" on="1"/>
        <pt x="181" y="830" on="0"/>
        <pt x="214" y="830" on="1"/>
        <pt x="217" y="830" on="0"/>
      </contour>
    </TTGlyph>
    <TTGlyph name="Gcircumflex" xMin="20" yMin="-70" xMax="454" yMax="1069">
      <contour>
        <pt x="316" y="751" on="1"/>
        <pt x="332" y="751" on="0"/>
        <pt x="345" y="720" on="1"/>
        <pt x="345" y="696" on="0"/>
        <pt x="272" y="680" on="1"/>
        <pt x="180" y="629" on="0"/>
        <pt x="79" y="375" on="0"/>
        <pt x="79" y="251" on="1"/>
        <pt x="79" y="52" on="0"/>
        <pt x="207" y="-5" on="1"/>
        <pt x="239" y="-11" on="1"/>
        <pt x="346" y="-11" on="0"/>
        <pt x="391" y="176" on="1"/>
        <pt x="395" y="217" on="1"/>
        <pt x="395" y="297" on="0"/>
        <pt x="341" y="351" on="1"/>
        <pt x="335" y="351" on="1"/>
        <pt x="314" y="327" on="0"/>
        <pt x="251" y="182" on="1"/>
        <pt x="229" y="167" on="1"/>
        <pt x="201" y="167" on="0"/>
        <pt x="197" y="201" on="1"/>
        <pt x="292" y="426" on="0"/>
        <pt x="326" y="426" on="1"/>
        <pt x="332" y="426" on="1"/>
        <pt x="454" y="355" on="0"/>
        <pt x="454" y="217" on="1"/>
        <pt x="454" y="61" on="0"/>
        <pt x="326" y="-43" on="1"/>
        <pt x="305" y="-61" on="0"/>
        <pt x="241" y="-70" on="1"/>
        <pt x="120" y="-70" on="0"/>
        <pt x="41" y="105" on="1"/>
        <pt x="20" y="180" on="0"/>
        <pt x="20" y="242" on="1"/>
        <pt x="20" y="257" on="1"/>
        <pt x="20" y="471" on="0"/>
        <pt x="157" y="661" on="1"/>
        <pt x="246" y="751" on="0"/>
      </contour>
      <contour>
        <pt x="219" y="1062" on="1"/>
        <pt x="235" y="1069" on="1"/>
        <pt x="265" y="1069" on="0"/>
        <pt x="361" y="925" on="1"/>
        <pt x="399" y="871" on="1"/>
        <pt x="399" y="859" on="0"/>
        <pt x="375" y="856" on="1"/>
        <pt x="349" y="854" on="1"/>
        <pt x="349" y="856" on="0"/>
        <pt x="277" y="942" on="1"/>
        <pt x="257" y="991" on="0"/>
        <pt x="244" y="991" on="1"/>
        <pt x="240" y="991" on="0"/>
        <pt x="237" y="986" on="1"/>
        <pt x="148" y="881" on="0"/>
        <pt x="141" y="860" on="1"/>
        <pt x="114" y="875" on="1"/>
        <pt x="85" y="881" on="0"/>
        <pt x="85" y="897" on="1"/>
        <pt x="85" y="905" on="0"/>
        <pt x="114" y="916" on="1"/>
      </contour>
    </TTGlyph>
    <TTGlyph name="Gcommaaccent" xMin="20" yMin="-378" xMax="454" yMax="751">
      <contour>
        <pt x="316" y="751" on="1"/>
        <pt x="332" y="751" on="0"/>
        <pt x="345" y="720" on="1"/>
        <pt x="345" y="696" on="0"/>
        <pt x="272" y="680" on="1"/>
        <pt x="180" y="629" on="0"/>
        <pt x="79" y="375" on="0"/>
        <pt x="79" y="251" on="1"/>
        <pt x="79" y="52" on="0"/>
        <pt x="207" y="-5" on="1"/>
        <pt x="239" y="-11" on="1"/>
        <pt x="346" y="-11" on="0"/>
        <pt x="391" y="176" on="1"/>
        <pt x="395" y="217" on="1"/>
        <pt x="395" y="297" on="0"/>
        <pt x="341" y="351" on="1"/>
        <pt x="335" y="351" on="1"/>
        <pt x="314" y="327" on="0"/>
        <pt x="251" y="182" on="1"/>
        <pt x="229" y="167" on="1"/>
        <pt x="201" y="167" on="0"/>
        <pt x="197" y="201" on="1"/>
        <pt x="292" y="426" on="0"/>
        <pt x="326" y="426" on="1"/>
        <pt x="332" y="426" on="1"/>
        <pt x="454" y="355" on="0"/>
        <pt x="454" y="217" on="1"/>
        <pt x="454" y="61" on="0"/>
        <pt x="326" y="-43" on="1"/>
        <pt x="305" y="-61" on="0"/>
        <pt x="241" y="-70" on="1"/>
        <pt x="120" y="-70" on="0"/>
        <pt x="41" y="105" on="1"/>
        <pt x="20" y="180" on="0"/>
        <pt x="20" y="242" on="1"/>
        <pt x="20" y="257" on="1"/>
        <pt x="20" y="471" on="0"/>
        <pt x="157" y="661" on="1"/>
        <pt x="246" y="751" on="0"/>
      </contour>
      <contour>
        <pt x="227" y="-240" on="1"/>
        <pt x="227" y="-189" on="0"/>
        <pt x="258" y="-189" on="1"/>
        <pt x="270" y="-189" on="0"/>
        <pt x="285" y="-195" on="1"/>
        <pt x="300" y="-291" on="1"/>
        <pt x="246" y="-378" on="0"/>
        <pt x="217" y="-378" on="1"/>
        <pt x="198" y="-378" on="0"/>
        <pt x="191" y="-335" on="1"/>
        <pt x="232" y="-290" on="1"/>
        <pt x="227" y="-261" on="0"/>
      </contour>
    </TTGlyph>
    <TTGlyph name="Gdotaccent" xMin="20" yMin="-70" xMax="454" yMax="860">
      <contour>
        <pt x="316" y="751" on="1"/>
        <pt x="332" y="751" on="0"/>
        <pt x="345" y="720" on="1"/>
        <pt x="345" y="696" on="0"/>
        <pt x="272" y="680" on="1"/>
        <pt x="180" y="629" on="0"/>
        <pt x="79" y="375" on="0"/>
        <pt x="79" y="251" on="1"/>
        <pt x="79" y="52" on="0"/>
        <pt x="207" y="-5" on="1"/>
        <pt x="239" y="-11" on="1"/>
        <pt x="346" y="-11" on="0"/>
        <pt x="391" y="176" on="1"/>
        <pt x="395" y="217" on="1"/>
        <pt x="395" y="297" on="0"/>
        <pt x="341" y="351" on="1"/>
        <pt x="335" y="351" on="1"/>
        <pt x="314" y="327" on="0"/>
        <pt x="251" y="182" on="1"/>
        <pt x="229" y="167" on="1"/>
        <pt x="201" y="167" on="0"/>
        <pt x="197" y="201" on="1"/>
        <pt x="292" y="426" on="0"/>
        <pt x="326" y="426" on="1"/>
        <pt x="332" y="426" on="1"/>
        <pt x="454" y="355" on="0"/>
        <pt x="454" y="217" on="1"/>
        <pt x="454" y="61" on="0"/>
        <pt x="326" y="-43" on="1"/>
        <pt x="305" y="-61" on="0"/>
        <pt x="241" y="-70" on="1"/>
        <pt x="120" y="-70" on="0"/>
        <pt x="41" y="105" on="1"/>
        <pt x="20" y="180" on="0"/>
        <pt x="20" y="242" on="1"/>
        <pt x="20" y="257" on="1"/>
        <pt x="20" y="471" on="0"/>
        <pt x="157" y="661" on="1"/>
        <pt x="246" y="751" on="0"/>
      </contour>
      <contour>
        <pt x="249" y="860" on="1"/>
        <pt x="280" y="860" on="0"/>
        <pt x="284" y="812" on="1"/>
        <pt x="275" y="766" on="0"/>
        <pt x="235" y="766" on="1"/>
        <pt x="205" y="766" on="0"/>
        <pt x="196" y="812" on="1"/>
        <pt x="213" y="860" on="0"/>
      </contour>
    </TTGlyph>
    <TTGlyph name="H" xMin="2" yMin="-34" xMax="399" yMax="557">
      <contour>
        <pt x="99" y="557" on="1"/>
        <pt x="134" y="557" on="0"/>
        <pt x="134" y="435" on="1"/>
        <pt x="140" y="279" on="1"/>
        <pt x="142" y="279" on="1"/>
        <pt x="302" y="341" on="1"/>
        <pt x="326" y="545" on="0"/>
        <pt x="346" y="545" on="1"/>
        <pt x="359" y="547" on="1"/>
        <pt x="376" y="547" on="0"/>
        <pt x="390" y="520" on="1"/>
        <pt x="355" y="348" on="0"/>
        <pt x="355" y="222" on="1"/>
        <pt x="355" y="179" on="1"/>
        <pt x="355" y="87" on="0"/>
        <pt x="399" y="4" on="1"/>
        <pt x="389" y="-24" on="0"/>
        <pt x="367" y="-24" on="1"/>
        <pt x="319" y="-24" on="0"/>
        <pt x="296" y="170" on="1"/>
        <pt x="296" y="272" on="1"/>
        <pt x="290" y="272" on="1"/>
        <pt x="140" y="219" on="0"/>
        <pt x="140" y="204" on="1"/>
        <pt x="140" y="-34" on="0"/>
        <pt x="96" y="-34" on="1"/>
        <pt x="92" y="-34" on="1"/>
        <pt x="71" y="-34" on="0"/>
        <pt x="65" y="1" on="1"/>
        <pt x="80" y="110" on="0"/>
        <pt x="80" y="170" on="1"/>
        <pt x="36" y="147" on="1"/>
        <pt x="27" y="145" on="1"/>
        <pt x="2" y="154" on="0"/>
        <pt x="2" y="198" on="0"/>
        <pt x="80" y="245" on="1"/>
        <pt x="80" y="247" on="1"/>
        <pt x="77" y="419" on="0"/>
        <pt x="67" y="532" on="1"/>
        <pt x="67" y="554" on="0"/>
      </contour>
    </TTGlyph>
    <TTGlyph name="Hbar" xMin="2" yMin="-34" xMax="399" yMax="557">
      <contour>
        <pt x="75" y="419" on="1"/>
        <pt x="67" y="532" on="1"/>
        <pt x="67" y="554" on="0"/>
        <pt x="99" y="557" on="1"/>
        <pt x="134" y="557" on="0"/>
        <pt x="134" y="435" on="1"/>
        <pt x="134" y="430" on="1"/>
        <pt x="144" y="430" on="1"/>
        <pt x="315" y="441" on="1"/>
        <pt x="332" y="545" on="0"/>
        <pt x="346" y="545" on="1"/>
        <pt x="359" y="547" on="1"/>
        <pt x="376" y="547" on="0"/>
        <pt x="390" y="520" on="1"/>
        <pt x="355" y="348" on="0"/>
        <pt x="355" y="222" on="1"/>
        <pt x="355" y="179" on="1"/>
        <pt x="355" y="87" on="0"/>
        <pt x="399" y="4" on="1"/>
        <pt x="389" y="-24" on="0"/>
        <pt x="367" y="-24" on="1"/>
        <pt x="319" y="-24" on="0"/>
        <pt x="296" y="170" on="1"/>
        <pt x="296" y="272" on="1"/>
        <pt x="290" y="272" on="1"/>
        <pt x="140" y="219" on="0"/>
        <pt x="140" y="204" on="1"/>
        <pt x="140" y="-34" on="0"/>
        <pt x="96" y="-34" on="1"/>
        <pt x="92" y="-34" on="1"/>
        <pt x="71" y="-34" on="0"/>
        <pt x="65" y="1" on="1"/>
        <pt x="80" y="110" on="0"/>
        <pt x="80" y="170" on="1"/>
        <pt x="36" y="147" on="1"/>
        <pt x="27" y="145" on="1"/>
        <pt x="2" y="154" on="0"/>
        <pt x="2" y="198" on="0"/>
        <pt x="80" y="245" on="1"/>
        <pt x="80" y="247" on="1"/>
        <pt x="78" y="347" on="0"/>
        <pt x="75" y="394" on="1"/>
        <pt x="72" y="400" on="0"/>
        <pt x="72" y="414" on="0"/>
      </contour>
      <contour>
        <pt x="136" y="370" on="1"/>
        <pt x="140" y="279" on="1"/>
        <pt x="142" y="279" on="1"/>
        <pt x="302" y="341" on="1"/>
        <pt x="306" y="369" on="0"/>
        <pt x="307" y="382" on="1"/>
        <pt x="281" y="380" on="0"/>
        <pt x="260" y="380" on="1"/>
        <pt x="190" y="370" on="0"/>
        <pt x="137" y="370" on="1"/>
      </contour>
    </TTGlyph>
    <TTGlyph name="Hcircumflex" xMin="2" yMin="-34" xMax="399" yMax="880">
      <contour>
        <pt x="99" y="557" on="1"/>
        <pt x="134" y="557" on="0"/>
        <pt x="134" y="435" on="1"/>
        <pt x="140" y="279" on="1"/>
        <pt x="142" y="279" on="1"/>
        <pt x="302" y="341" on="1"/>
        <pt x="326" y="545" on="0"/>
        <pt x="346" y="545" on="1"/>
        <pt x="359" y="547" on="1"/>
        <pt x="376" y="547" on="0"/>
        <pt x="390" y="520" on="1"/>
        <pt x="355" y="348" on="0"/>
        <pt x="355" y="222" on="1"/>
        <pt x="355" y="179" on="1"/>
        <pt x="355" y="87" on="0"/>
        <pt x="399" y="4" on="1"/>
        <pt x="389" y="-24" on="0"/>
        <pt x="367" y="-24" on="1"/>
        <pt x="319" y="-24" on="0"/>
        <pt x="296" y="170" on="1"/>
        <pt x="296" y="272" on="1"/>
        <pt x="290" y="272" on="1"/>
        <pt x="140" y="219" on="0"/>
        <pt x="140" y="204" on="1"/>
        <pt x="140" y="-34" on="0"/>
        <pt x="96" y="-34" on="1"/>
        <pt x="92" y="-34" on="1"/>
        <pt x="71" y="-34" on="0"/>
        <pt x="65" y="1" on="1"/>
        <pt x="80" y="110" on="0"/>
        <pt x="80" y="170" on="1"/>
        <pt x="36" y="147" on="1"/>
        <pt x="27" y="145" on="1"/>
        <pt x="2" y="154" on="0"/>
        <pt x="2" y="198" on="0"/>
        <pt x="80" y="245" on="1"/>
        <pt x="80" y="247" on="1"/>
        <pt x="77" y="419" on="0"/>
        <pt x="67" y="532" on="1"/>
        <pt x="67" y="554" on="0"/>
      </contour>
      <contour>
        <pt x="215" y="873" on="1"/>
        <pt x="231" y="880" on="1"/>
        <pt x="261" y="880" on="0"/>
        <pt x="357" y="736" on="1"/>
        <pt x="395" y="682" on="1"/>
        <pt x="395" y="670" on="0"/>
        <pt x="371" y="667" on="1"/>
        <pt x="345" y="665" on="1"/>
        <pt x="345" y="668" on="0"/>
        <pt x="273" y="753" on="1"/>
        <pt x="253" y="802" on="0"/>
        <pt x="240" y="802" on="1"/>
        <pt x="236" y="802" on="0"/>
        <pt x="233" y="797" on="1"/>
        <pt x="144" y="692" on="0"/>
        <pt x="137" y="671" on="1"/>
        <pt x="110" y="686" on="1"/>
        <pt x="81" y="692" on="0"/>
        <pt x="81" y="708" on="1"/>
        <pt x="81" y="716" on="0"/>
        <pt x="110" y="727" on="1"/>
      </contour>
    </TTGlyph>
    <TTGlyph name="I" xMin="32" yMin="-5" xMax="145" yMax="554">
      <contour>
        <pt x="66" y="554" on="1"/>
        <pt x="90" y="554" on="0"/>
        <pt x="97" y="529" on="1"/>
        <pt x="91" y="470" on="1"/>
        <pt x="91" y="451" on="1"/>
        <pt x="116" y="244" on="0"/>
        <pt x="122" y="129" on="1"/>
        <pt x="133" y="22" on="0"/>
        <pt x="145" y="22" on="1"/>
        <pt x="145" y="1" on="0"/>
        <pt x="110" y="-5" on="1"/>
        <pt x="60" y="-5" on="0"/>
        <pt x="60" y="197" on="1"/>
        <pt x="32" y="457" on="1"/>
        <pt x="32" y="466" on="1"/>
        <pt x="32" y="554" on="0"/>
      </contour>
    </TTGlyph>
    <TTGlyph name="Iacute" xMin="-59" yMin="-5" xMax="203" yMax="809">
      <contour>
        <pt x="66" y="554" on="1"/>
        <pt x="90" y="554" on="0"/>
        <pt x="97" y="529" on="1"/>
        <pt x="91" y="470" on="1"/>
        <pt x="91" y="451" on="1"/>
        <pt x="116" y="244" on="0"/>
        <pt x="122" y="129" on="1"/>
        <pt x="133" y="22" on="0"/>
        <pt x="145" y="22" on="1"/>
        <pt x="145" y="1" on="0"/>
        <pt x="110" y="-5" on="1"/>
        <pt x="60" y="-5" on="0"/>
        <pt x="60" y="197" on="1"/>
        <pt x="32" y="457" on="1"/>
        <pt x="32" y="466" on="1"/>
        <pt x="32" y="554" on="0"/>
      </contour>
      <contour>
        <pt x="-59" y="693" on="1"/>
        <pt x="-57" y="722" on="0"/>
        <pt x="-29" y="731" on="1"/>
        <pt x="134" y="809" on="0"/>
        <pt x="172" y="809" on="1"/>
        <pt x="174" y="809" on="0"/>
        <pt x="175" y="809" on="1"/>
        <pt x="200" y="808" on="0"/>
        <pt x="203" y="772" on="1"/>
        <pt x="196" y="744" on="1"/>
        <pt x="60" y="696" on="0"/>
        <pt x="33" y="689" on="1"/>
        <pt x="22" y="672" on="0"/>
        <pt x="-30" y="656" on="1"/>
        <pt x="-54" y="658" on="0"/>
      </contour>
    </TTGlyph>
    <TTGlyph name="Ibreve" xMin="-4" yMin="-5" xMax="187" yMax="791">
      <contour>
        <pt x="66" y="554" on="1"/>
        <pt x="90" y="554" on="0"/>
        <pt x="97" y="529" on="1"/>
        <pt x="91" y="470" on="1"/>
        <pt x="91" y="451" on="1"/>
        <pt x="116" y="244" on="0"/>
        <pt x="122" y="129" on="1"/>
        <pt x="133" y="22" on="0"/>
        <pt x="145" y="22" on="1"/>
        <pt x="145" y="1" on="0"/>
        <pt x="110" y="-5" on="1"/>
        <pt x="60" y="-5" on="0"/>
        <pt x="60" y="197" on="1"/>
        <pt x="32" y="457" on="1"/>
        <pt x="32" y="466" on="1"/>
        <pt x="32" y="554" on="0"/>
      </contour>
      <contour>
        <pt x="75" y="700" on="1"/>
        <pt x="141" y="700" on="0"/>
        <pt x="151" y="791" on="1"/>
        <pt x="187" y="791" on="1"/>
        <pt x="183" y="712" on="0"/>
        <pt x="141" y="690" on="1"/>
        <pt x="101" y="671" on="0"/>
        <pt x="81" y="671" on="1"/>
        <pt x="80" y="671" on="0"/>
        <pt x="77" y="671" on="0"/>
        <pt x="75" y="671" on="1"/>
        <pt x="16" y="671" on="0"/>
        <pt x="4" y="713" on="1"/>
        <pt x="-4" y="741" on="0"/>
        <pt x="-4" y="776" on="0"/>
        <pt x="-1" y="787" on="1"/>
        <pt x="36" y="786" on="1"/>
        <pt x="36" y="735" on="1"/>
        <pt x="36" y="700" on="0"/>
        <pt x="69" y="700" on="1"/>
        <pt x="72" y="700" on="0"/>
      </contour>
    </TTGlyph>
    <TTGlyph name="Icircumflex" xMin="-79" yMin="-5" xMax="235" yMax="791">
      <contour>
        <pt x="66" y="554" on="1"/>
        <pt x="90" y="554" on="0"/>
        <pt x="97" y="529" on="1"/>
        <pt x="91" y="470" on="1"/>
        <pt x="91" y="451" on="1"/>
        <pt x="116" y="244" on="0"/>
        <pt x="122" y="129" on="1"/>
        <pt x="133" y="22" on="0"/>
        <pt x="145" y="22" on="1"/>
        <pt x="145" y="1" on="0"/>
        <pt x="110" y="-5" on="1"/>
        <pt x="60" y="-5" on="0"/>
        <pt x="60" y="197" on="1"/>
        <pt x="32" y="457" on="1"/>
        <pt x="32" y="466" on="1"/>
        <pt x="32" y="554" on="0"/>
      </contour>
      <contour>
        <pt x="55" y="784" on="1"/>
        <pt x="71" y="791" on="1"/>
        <pt x="101" y="791" on="0"/>
        <pt x="197" y="647" on="1"/>
        <pt x="235" y="593" on="1"/>
        <pt x="235" y="581" on="0"/>
        <pt x="211" y="578" on="1"/>
        <pt x="185" y="576" on="1"/>
        <pt x="185" y="578" on="0"/>
        <pt x="113" y="664" on="1"/>
        <pt x="93" y="713" on="0"/>
        <pt x="80" y="713" on="1"/>
        <pt x="76" y="713" on="0"/>
        <pt x="73" y="708" on="1"/>
        <pt x="-16" y="603" on="0"/>
        <pt x="-23" y="582" on="1"/>
        <pt x="-50" y="597" on="1"/>
        <pt x="-79" y="603" on="0"/>
        <pt x="-79" y="619" on="1"/>
        <pt x="-79" y="627" on="0"/>
        <pt x="-50" y="638" on="1"/>
      </contour>
    </TTGlyph>
    <TTGlyph name="Idieresis" xMin="-11" yMin="-5" xMax="164" yMax="648">
      <contour>
        <pt x="66" y="554" on="1"/>
        <pt x="90" y="554" on="0"/>
        <pt x="97" y="529" on="1"/>
        <pt x="91" y="470" on="1"/>
        <pt x="91" y="451" on="1"/>
        <pt x="116" y="244" on="0"/>
        <pt x="122" y="129" on="1"/>
        <pt x="133" y="22" on="0"/>
        <pt x="145" y="22" on="1"/>
        <pt x="145" y="1" on="0"/>
        <pt x="110" y="-5" on="1"/>
        <pt x="60" y="-5" on="0"/>
        <pt x="60" y="197" on="1"/>
        <pt x="32" y="457" on="1"/>
        <pt x="32" y="466" on="1"/>
        <pt x="32" y="554" on="0"/>
      </contour>
      <contour>
        <pt x="126" y="581" on="1"/>
        <pt x="105" y="582" on="0"/>
        <pt x="98" y="615" on="1"/>
        <pt x="99" y="640" on="0"/>
        <pt x="141" y="640" on="1"/>
        <pt x="164" y="624" on="0"/>
        <pt x="164" y="611" on="1"/>
        <pt x="164" y="583" on="0"/>
      </contour>
      <contour>
        <pt x="13" y="587" on="1"/>
        <pt x="-10" y="587" on="0"/>
        <pt x="-11" y="617" on="1"/>
        <pt x="-10" y="640" on="0"/>
        <pt x="25" y="648" on="1"/>
        <pt x="53" y="636" on="0"/>
        <pt x="51" y="615" on="1"/>
        <pt x="38" y="587" on="0"/>
      </contour>
    </TTGlyph>
    <TTGlyph name="Idotaccent" xMin="32" yMin="-5" xMax="145" yMax="860">
      <contour>
        <pt x="66" y="554" on="1"/>
        <pt x="90" y="554" on="0"/>
        <pt x="97" y="529" on="1"/>
        <pt x="91" y="470" on="1"/>
        <pt x="91" y="451" on="1"/>
        <pt x="116" y="244" on="0"/>
        <pt x="122" y="129" on="1"/>
        <pt x="133" y="22" on="0"/>
        <pt x="145" y="22" on="1"/>
        <pt x="145" y="1" on="0"/>
        <pt x="110" y="-5" on="1"/>
        <pt x="60" y="-5" on="0"/>
        <pt x="60" y="197" on="1"/>
        <pt x="32" y="457" on="1"/>
        <pt x="32" y="466" on="1"/>
        <pt x="32" y="554" on="0"/>
      </contour>
      <contour>
        <pt x="97" y="860" on="1"/>
        <pt x="128" y="860" on="0"/>
        <pt x="132" y="812" on="1"/>
        <pt x="123" y="766" on="0"/>
        <pt x="83" y="766" on="1"/>
        <pt x="53" y="766" on="0"/>
        <pt x="44" y="812" on="1"/>
        <pt x="60" y="860" on="0"/>
      </contour>
    </TTGlyph>
    <TTGlyph name="Igrave" xMin="32" yMin="-5" xMax="270" yMax="725">
      <contour>
        <pt x="66" y="554" on="1"/>
        <pt x="90" y="554" on="0"/>
        <pt x="97" y="529" on="1"/>
        <pt x="91" y="470" on="1"/>
        <pt x="91" y="451" on="1"/>
        <pt x="116" y="244" on="0"/>
        <pt x="122" y="129" on="1"/>
        <pt x="133" y="22" on="0"/>
        <pt x="145" y="22" on="1"/>
        <pt x="145" y="1" on="0"/>
        <pt x="110" y="-5" on="1"/>
        <pt x="60" y="-5" on="0"/>
        <pt x="60" y="197" on="1"/>
        <pt x="32" y="457" on="1"/>
        <pt x="32" y="466" on="1"/>
        <pt x="32" y="554" on="0"/>
      </contour>
      <contour>
        <pt x="270" y="595" on="1"/>
        <pt x="266" y="567" on="0"/>
        <pt x="245" y="565" on="1"/>
        <pt x="197" y="578" on="0"/>
        <pt x="186" y="592" on="1"/>
        <pt x="45" y="651" on="0"/>
        <pt x="45" y="684" on="1"/>
        <pt x="45" y="690" on="0"/>
        <pt x="49" y="695" on="1"/>
        <pt x="52" y="723" on="0"/>
        <pt x="75" y="725" on="1"/>
        <pt x="121" y="712" on="0"/>
        <pt x="244" y="625" on="1"/>
        <pt x="268" y="618" on="0"/>
      </contour>
    </TTGlyph>
    <TTGlyph name="Iogonek" xMin="-8" yMin="-165" xMax="204" yMax="554">
      <contour>
        <pt x="66" y="554" on="1"/>
        <pt x="90" y="554" on="0"/>
        <pt x="97" y="529" on="1"/>
        <pt x="91" y="470" on="1"/>
        <pt x="91" y="451" on="1"/>
        <pt x="116" y="244" on="0"/>
        <pt x="122" y="129" on="1"/>
        <pt x="133" y="22" on="0"/>
        <pt x="145" y="22" on="1"/>
        <pt x="145" y="2" on="0"/>
        <pt x="114" y="-4" on="1"/>
        <pt x="51" y="-80" on="1"/>
        <pt x="51" y="-90" on="1"/>
        <pt x="51" y="-95" on="0"/>
        <pt x="92" y="-95" on="0"/>
        <pt x="174" y="-76" on="1"/>
        <pt x="204" y="-62" on="0"/>
        <pt x="204" y="-74" on="1"/>
        <pt x="204" y="-81" on="0"/>
        <pt x="194" y="-97" on="1"/>
        <pt x="165" y="-141" on="0"/>
        <pt x="61" y="-165" on="1"/>
        <pt x="-8" y="-136" on="0"/>
        <pt x="-8" y="-86" on="1"/>
        <pt x="-8" y="-23" on="0"/>
        <pt x="77" y="26" on="1"/>
        <pt x="79" y="26" on="1"/>
        <pt x="60" y="73" on="0"/>
        <pt x="60" y="197" on="1"/>
        <pt x="32" y="457" on="1"/>
        <pt x="32" y="466" on="1"/>
        <pt x="32" y="554" on="0"/>
      </contour>
    </TTGlyph>
    <TTGlyph name="Itilde" xMin="-108" yMin="-5" xMax="256" yMax="815">
      <contour>
        <pt x="66" y="554" on="1"/>
        <pt x="90" y="554" on="0"/>
        <pt x="97" y="529" on="1"/>
        <pt x="91" y="470" on="1"/>
        <pt x="91" y="451" on="1"/>
        <pt x="116" y="244" on="0"/>
        <pt x="122" y="129" on="1"/>
        <pt x="133" y="22" on="0"/>
        <pt x="145" y="22" on="1"/>
        <pt x="145" y="1" on="0"/>
        <pt x="110" y="-5" on="1"/>
        <pt x="60" y="-5" on="0"/>
        <pt x="60" y="197" on="1"/>
        <pt x="32" y="457" on="1"/>
        <pt x="32" y="466" on="1"/>
        <pt x="32" y="554" on="0"/>
      </contour>
      <contour>
        <pt x="256" y="666" on="1"/>
        <pt x="255" y="659" on="0"/>
        <pt x="238" y="659" on="0"/>
        <pt x="208" y="681" on="1"/>
        <pt x="197" y="740" on="0"/>
        <pt x="145" y="770" on="1"/>
        <pt x="136" y="771" on="1"/>
        <pt x="123" y="771" on="0"/>
        <pt x="87" y="666" on="1"/>
        <pt x="56" y="625" on="0"/>
        <pt x="14" y="625" on="1"/>
        <pt x="13" y="625" on="0"/>
        <pt x="12" y="625" on="1"/>
        <pt x="-59" y="630" on="0"/>
        <pt x="-104" y="729" on="1"/>
        <pt x="-108" y="759" on="1"/>
        <pt x="-102" y="793" on="0"/>
        <pt x="-84" y="793" on="1"/>
        <pt x="-70" y="793" on="0"/>
        <pt x="-49" y="771" on="1"/>
        <pt x="-57" y="764" on="1"/>
        <pt x="-57" y="752" on="1"/>
        <pt x="-58" y="710" on="0"/>
        <pt x="7" y="670" on="1"/>
        <pt x="17" y="670" on="1"/>
        <pt x="18" y="670" on="1"/>
        <pt x="45" y="670" on="0"/>
        <pt x="72" y="766" on="1"/>
        <pt x="100" y="815" on="0"/>
        <pt x="140" y="815" on="1"/>
        <pt x="141" y="815" on="0"/>
        <pt x="142" y="815" on="1"/>
        <pt x="198" y="812" on="0"/>
        <pt x="243" y="729" on="1"/>
        <pt x="246" y="690" on="0"/>
      </contour>
    </TTGlyph>
    <TTGlyph name="J" xMin="22" yMin="-50" xMax="375" yMax="637">
      <contour>
        <pt x="312" y="637" on="1"/>
        <pt x="329" y="637" on="1"/>
        <pt x="360" y="631" on="0"/>
        <pt x="360" y="606" on="1"/>
        <pt x="360" y="599" on="0"/>
        <pt x="341" y="577" on="1"/>
        <pt x="341" y="527" on="1"/>
        <pt x="341" y="455" on="0"/>
        <pt x="375" y="90" on="1"/>
        <pt x="375" y="-50" on="0"/>
        <pt x="291" y="-50" on="1"/>
        <pt x="221" y="-50" on="0"/>
        <pt x="85" y="146" on="1"/>
        <pt x="41" y="146" on="0"/>
        <pt x="29" y="177" on="1"/>
        <pt x="22" y="202" on="1"/>
        <pt x="31" y="240" on="0"/>
        <pt x="56" y="240" on="1"/>
        <pt x="112" y="217" on="0"/>
        <pt x="219" y="62" on="1"/>
        <pt x="272" y="9" on="0"/>
        <pt x="291" y="9" on="1"/>
        <pt x="297" y="9" on="1"/>
        <pt x="312" y="16" on="0"/>
        <pt x="312" y="56" on="1"/>
        <pt x="312" y="119" on="1"/>
        <pt x="281" y="494" on="1"/>
        <pt x="279" y="559" on="1"/>
        <pt x="279" y="637" on="0"/>
      </contour>
    </TTGlyph>
    <TTGlyph name="Jcircumflex" xMin="22" yMin="-50" xMax="375" yMax="1069">
      <contour>
        <pt x="312" y="637" on="1"/>
        <pt x="329" y="637" on="1"/>
        <pt x="360" y="631" on="0"/>
        <pt x="360" y="606" on="1"/>
        <pt x="360" y="599" on="0"/>
        <pt x="341" y="577" on="1"/>
        <pt x="341" y="527" on="1"/>
        <pt x="341" y="455" on="0"/>
        <pt x="375" y="90" on="1"/>
        <pt x="375" y="-50" on="0"/>
        <pt x="291" y="-50" on="1"/>
        <pt x="221" y="-50" on="0"/>
        <pt x="85" y="146" on="1"/>
        <pt x="41" y="146" on="0"/>
        <pt x="29" y="177" on="1"/>
        <pt x="22" y="202" on="1"/>
        <pt x="31" y="240" on="0"/>
        <pt x="56" y="240" on="1"/>
        <pt x="112" y="217" on="0"/>
        <pt x="219" y="62" on="1"/>
        <pt x="272" y="9" on="0"/>
        <pt x="291" y="9" on="1"/>
        <pt x="297" y="9" on="1"/>
        <pt x="312" y="16" on="0"/>
        <pt x="312" y="56" on="1"/>
        <pt x="312" y="119" on="1"/>
        <pt x="281" y="494" on="1"/>
        <pt x="279" y="559" on="1"/>
        <pt x="279" y="637" on="0"/>
      </contour>
      <contour>
        <pt x="184" y="1062" on="1"/>
        <pt x="200" y="1069" on="1"/>
        <pt x="230" y="1069" on="0"/>
        <pt x="326" y="925" on="1"/>
        <pt x="364" y="871" on="1"/>
        <pt x="364" y="859" on="0"/>
        <pt x="340" y="856" on="1"/>
        <pt x="314" y="854" on="1"/>
        <pt x="314" y="856" on="0"/>
        <pt x="242" y="942" on="1"/>
        <pt x="222" y="991" on="0"/>
        <pt x="209" y="991" on="1"/>
        <pt x="205" y="991" on="0"/>
        <pt x="202" y="986" on="1"/>
        <pt x="114" y="881" on="0"/>
        <pt x="106" y="860" on="1"/>
        <pt x="79" y="875" on="1"/>
        <pt x="50" y="881" on="0"/>
        <pt x="50" y="897" on="1"/>
        <pt x="50" y="905" on="0"/>
        <pt x="79" y="916" on="1"/>
      </contour>
    </TTGlyph>
    <TTGlyph name="K" xMin="20" yMin="-53" xMax="497" yMax="647">
      <contour>
        <pt x="129" y="647" on="1"/>
        <pt x="147" y="647" on="0"/>
        <pt x="157" y="622" on="1"/>
        <pt x="114" y="508" on="0"/>
        <pt x="114" y="325" on="1"/>
        <pt x="114" y="216" on="1"/>
        <pt x="116" y="216" on="1"/>
        <pt x="172" y="272" on="0"/>
        <pt x="289" y="562" on="1"/>
        <pt x="319" y="600" on="0"/>
        <pt x="335" y="600" on="1"/>
        <pt x="339" y="600" on="1"/>
        <pt x="356" y="600" on="0"/>
        <pt x="366" y="581" on="1"/>
        <pt x="366" y="562" on="1"/>
        <pt x="338" y="545" on="0"/>
        <pt x="229" y="279" on="1"/>
        <pt x="147" y="156" on="1"/>
        <pt x="147" y="154" on="1"/>
        <pt x="260" y="37" on="0"/>
        <pt x="382" y="37" on="1"/>
        <pt x="420" y="37" on="1"/>
        <pt x="457" y="37" on="0"/>
        <pt x="470" y="44" on="1"/>
        <pt x="497" y="33" on="0"/>
        <pt x="497" y="12" on="1"/>
        <pt x="497" y="4" on="1"/>
        <pt x="497" y="-21" on="0"/>
        <pt x="410" y="-21" on="1"/>
        <pt x="395" y="-21" on="1"/>
        <pt x="252" y="-21" on="0"/>
        <pt x="122" y="97" on="1"/>
        <pt x="116" y="97" on="1"/>
        <pt x="116" y="-19" on="1"/>
        <pt x="116" y="-53" on="0"/>
        <pt x="85" y="-53" on="1"/>
        <pt x="57" y="-53" on="0"/>
        <pt x="57" y="-19" on="1"/>
        <pt x="57" y="100" on="1"/>
        <pt x="20" y="128" on="0"/>
        <pt x="20" y="160" on="1"/>
        <pt x="20" y="187" on="0"/>
        <pt x="54" y="187" on="1"/>
        <pt x="54" y="329" on="1"/>
        <pt x="54" y="523" on="0"/>
        <pt x="104" y="637" on="1"/>
        <pt x="117" y="647" on="0"/>
      </contour>
    </TTGlyph>
    <TTGlyph name="Kcommaaccent" xMin="20" yMin="-298" xMax="497" yMax="647">
      <contour>
        <pt x="129" y="647" on="1"/>
        <pt x="147" y="647" on="0"/>
        <pt x="157" y="622" on="1"/>
        <pt x="114" y="508" on="0"/>
        <pt x="114" y="325" on="1"/>
        <pt x="114" y="216" on="1"/>
        <pt x="116" y="216" on="1"/>
        <pt x="172" y="272" on="0"/>
        <pt x="289" y="562" on="1"/>
        <pt x="319" y="600" on="0"/>
        <pt x="335" y="600" on="1"/>
        <pt x="339" y="600" on="1"/>
        <pt x="356" y="600" on="0"/>
        <pt x="366" y="581" on="1"/>
        <pt x="366" y="562" on="1"/>
        <pt x="338" y="545" on="0"/>
        <pt x="229" y="279" on="1"/>
        <pt x="147" y="156" on="1"/>
        <pt x="147" y="154" on="1"/>
        <pt x="260" y="37" on="0"/>
        <pt x="382" y="37" on="1"/>
        <pt x="420" y="37" on="1"/>
        <pt x="457" y="37" on="0"/>
        <pt x="470" y="44" on="1"/>
        <pt x="497" y="33" on="0"/>
        <pt x="497" y="12" on="1"/>
        <pt x="497" y="4" on="1"/>
        <pt x="497" y="-21" on="0"/>
        <pt x="410" y="-21" on="1"/>
        <pt x="395" y="-21" on="1"/>
        <pt x="252" y="-21" on="0"/>
        <pt x="122" y="97" on="1"/>
        <pt x="116" y="97" on="1"/>
        <pt x="116" y="-19" on="1"/>
        <pt x="116" y="-53" on="0"/>
        <pt x="85" y="-53" on="1"/>
        <pt x="57" y="-53" on="0"/>
        <pt x="57" y="-19" on="1"/>
        <pt x="57" y="100" on="1"/>
        <pt x="20" y="128" on="0"/>
        <pt x="20" y="160" on="1"/>
        <pt x="20" y="187" on="0"/>
        <pt x="54" y="187" on="1"/>
        <pt x="54" y="329" on="1"/>
        <pt x="54" y="523" on="0"/>
        <pt x="104" y="637" on="1"/>
        <pt x="117" y="647" on="0"/>
      </contour>
      <contour>
        <pt x="229" y="-160" on="1"/>
        <pt x="229" y="-109" on="0"/>
        <pt x="260" y="-109" on="1"/>
        <pt x="272" y="-109" on="0"/>
        <pt x="287" y="-115" on="1"/>
        <pt x="302" y="-211" on="1"/>
        <pt x="248" y="-298" on="0"/>
        <pt x="219" y="-298" on="1"/>
        <pt x="200" y="-298" on="0"/>
        <pt x="193" y="-255" on="1"/>
        <pt x="234" y="-210" on="1"/>
        <pt x="229" y="-181" on="0"/>
      </contour>
    </TTGlyph>
    <TTGlyph name="L" xMin="20" yMin="-8" xMax="301" yMax="511">
      <contour>
        <pt x="66" y="511" on="1"/>
        <pt x="90" y="511" on="0"/>
        <pt x="97" y="436" on="1"/>
        <pt x="101" y="382" on="1"/>
        <pt x="101" y="321" on="0"/>
        <pt x="79" y="64" on="1"/>
        <pt x="85" y="64" on="1"/>
        <pt x="85" y="61" on="1"/>
        <pt x="89" y="64" on="1"/>
        <pt x="97" y="64" on="1"/>
        <pt x="214" y="55" on="1"/>
        <pt x="222" y="55" on="1"/>
        <pt x="272" y="70" on="1"/>
        <pt x="279" y="70" on="1"/>
        <pt x="295" y="60" on="0"/>
        <pt x="301" y="42" on="1"/>
        <pt x="301" y="4" on="0"/>
        <pt x="216" y="-5" on="1"/>
        <pt x="114" y="5" on="1"/>
        <pt x="95" y="5" on="1"/>
        <pt x="47" y="-8" on="1"/>
        <pt x="20" y="2" on="0"/>
        <pt x="20" y="24" on="1"/>
        <pt x="41" y="367" on="1"/>
        <pt x="41" y="382" on="1"/>
        <pt x="35" y="482" on="1"/>
        <pt x="35" y="507" on="0"/>
      </contour>
    </TTGlyph>
    <TTGlyph name="Lacute" xMin="20" yMin="-8" xMax="301" yMax="848">
      <contour>
        <pt x="66" y="511" on="1"/>
        <pt x="90" y="511" on="0"/>
        <pt x="97" y="436" on="1"/>
        <pt x="101" y="382" on="1"/>
        <pt x="101" y="321" on="0"/>
        <pt x="79" y="64" on="1"/>
        <pt x="85" y="64" on="1"/>
        <pt x="85" y="61" on="1"/>
        <pt x="89" y="64" on="1"/>
        <pt x="97" y="64" on="1"/>
        <pt x="214" y="55" on="1"/>
        <pt x="222" y="55" on="1"/>
        <pt x="272" y="70" on="1"/>
        <pt x="279" y="70" on="1"/>
        <pt x="295" y="60" on="0"/>
        <pt x="301" y="42" on="1"/>
        <pt x="301" y="4" on="0"/>
        <pt x="216" y="-5" on="1"/>
        <pt x="114" y="5" on="1"/>
        <pt x="95" y="5" on="1"/>
        <pt x="47" y="-8" on="1"/>
        <pt x="20" y="2" on="0"/>
        <pt x="20" y="24" on="1"/>
        <pt x="41" y="367" on="1"/>
        <pt x="41" y="382" on="1"/>
        <pt x="35" y="482" on="1"/>
        <pt x="35" y="507" on="0"/>
      </contour>
      <contour>
        <pt x="27" y="732" on="1"/>
        <pt x="29" y="761" on="0"/>
        <pt x="57" y="770" on="1"/>
        <pt x="220" y="848" on="0"/>
        <pt x="258" y="848" on="1"/>
        <pt x="260" y="848" on="0"/>
        <pt x="261" y="848" on="1"/>
        <pt x="286" y="847" on="0"/>
        <pt x="289" y="811" on="1"/>
        <pt x="282" y="783" on="1"/>
        <pt x="146" y="735" on="0"/>
        <pt x="119" y="728" on="1"/>
        <pt x="108" y="712" on="0"/>
        <pt x="56" y="695" on="1"/>
        <pt x="32" y="697" on="0"/>
      </contour>
    </TTGlyph>
    <TTGlyph name="Lcommaaccent" xMin="20" yMin="-298" xMax="301" yMax="511">
      <contour>
        <pt x="66" y="511" on="1"/>
        <pt x="90" y="511" on="0"/>
        <pt x="97" y="436" on="1"/>
        <pt x="101" y="382" on="1"/>
        <pt x="101" y="321" on="0"/>
        <pt x="79" y="64" on="1"/>
        <pt x="85" y="64" on="1"/>
        <pt x="85" y="61" on="1"/>
        <pt x="89" y="64" on="1"/>
        <pt x="97" y="64" on="1"/>
        <pt x="214" y="55" on="1"/>
        <pt x="222" y="55" on="1"/>
        <pt x="272" y="70" on="1"/>
        <pt x="279" y="70" on="1"/>
        <pt x="295" y="60" on="0"/>
        <pt x="301" y="42" on="1"/>
        <pt x="301" y="4" on="0"/>
        <pt x="216" y="-5" on="1"/>
        <pt x="114" y="5" on="1"/>
        <pt x="95" y="5" on="1"/>
        <pt x="47" y="-8" on="1"/>
        <pt x="20" y="2" on="0"/>
        <pt x="20" y="24" on="1"/>
        <pt x="41" y="367" on="1"/>
        <pt x="41" y="382" on="1"/>
        <pt x="35" y="482" on="1"/>
        <pt x="35" y="507" on="0"/>
      </contour>
      <contour>
        <pt x="141" y="-160" on="1"/>
        <pt x="141" y="-109" on="0"/>
        <pt x="172" y="-109" on="1"/>
        <pt x="184" y="-109" on="0"/>
        <pt x="199" y="-115" on="1"/>
        <pt x="214" y="-211" on="1"/>
        <pt x="160" y="-298" on="0"/>
        <pt x="131" y="-298" on="1"/>
        <pt x="112" y="-298" on="0"/>
        <pt x="105" y="-255" on="1"/>
        <pt x="146" y="-210" on="1"/>
        <pt x="141" y="-181" on="0"/>
      </contour>
    </TTGlyph>
    <TTGlyph name="Ldot" xMin="20" yMin="-8" xMax="301" yMax="511">
      <contour>
        <pt x="66" y="511" on="1"/>
        <pt x="90" y="511" on="0"/>
        <pt x="97" y="436" on="1"/>
        <pt x="101" y="382" on="1"/>
        <pt x="101" y="321" on="0"/>
        <pt x="79" y="64" on="1"/>
        <pt x="85" y="64" on="1"/>
        <pt x="85" y="61" on="1"/>
        <pt x="89" y="64" on="1"/>
        <pt x="97" y="64" on="1"/>
        <pt x="214" y="55" on="1"/>
        <pt x="222" y="55" on="1"/>
        <pt x="272" y="70" on="1"/>
        <pt x="279" y="70" on="1"/>
        <pt x="295" y="60" on="0"/>
        <pt x="301" y="42" on="1"/>
        <pt x="301" y="4" on="0"/>
        <pt x="216" y="-5" on="1"/>
        <pt x="114" y="5" on="1"/>
        <pt x="95" y="5" on="1"/>
        <pt x="47" y="-8" on="1"/>
        <pt x="20" y="2" on="0"/>
        <pt x="20" y="24" on="1"/>
        <pt x="41" y="367" on="1"/>
        <pt x="41" y="382" on="1"/>
        <pt x="35" y="482" on="1"/>
        <pt x="35" y="507" on="0"/>
      </contour>
      <contour>
        <pt x="209" y="286" on="1"/>
        <pt x="240" y="286" on="0"/>
        <pt x="244" y="240" on="1"/>
        <pt x="235" y="194" on="0"/>
        <pt x="196" y="194" on="1"/>
        <pt x="166" y="194" on="0"/>
        <pt x="157" y="240" on="1"/>
        <pt x="173" y="286" on="0"/>
      </contour>
    </TTGlyph>
    <TTGlyph name="Lslash" xMin="-60" yMin="-8" xMax="301" yMax="511">
      <contour>
        <pt x="95" y="277" on="1"/>
        <pt x="192" y="284" on="1"/>
        <pt x="216" y="284" on="0"/>
        <pt x="221" y="252" on="1"/>
        <pt x="221" y="221" on="0"/>
        <pt x="127" y="221" on="1"/>
        <pt x="115" y="220" on="0"/>
        <pt x="91" y="216" on="1"/>
        <pt x="79" y="64" on="1"/>
        <pt x="85" y="64" on="1"/>
        <pt x="85" y="61" on="1"/>
        <pt x="89" y="64" on="1"/>
        <pt x="97" y="64" on="1"/>
        <pt x="214" y="55" on="1"/>
        <pt x="222" y="55" on="1"/>
        <pt x="272" y="70" on="1"/>
        <pt x="279" y="70" on="1"/>
        <pt x="295" y="60" on="0"/>
        <pt x="301" y="42" on="1"/>
        <pt x="301" y="4" on="0"/>
        <pt x="216" y="-5" on="1"/>
        <pt x="114" y="5" on="1"/>
        <pt x="95" y="5" on="1"/>
        <pt x="47" y="-8" on="1"/>
        <pt x="20" y="2" on="0"/>
        <pt x="20" y="24" on="1"/>
        <pt x="31" y="211" on="1"/>
        <pt x="5" y="211" on="1"/>
        <pt x="-60" y="219" on="0"/>
        <pt x="-60" y="249" on="1"/>
        <pt x="-60" y="270" on="0"/>
        <pt x="-33" y="280" on="1"/>
        <pt x="5" y="271" on="1"/>
        <pt x="11" y="271" on="1"/>
        <pt x="35" y="272" on="1"/>
        <pt x="41" y="367" on="1"/>
        <pt x="41" y="382" on="1"/>
        <pt x="35" y="482" on="1"/>
        <pt x="35" y="507" on="0"/>
        <pt x="66" y="511" on="1"/>
        <pt x="90" y="511" on="0"/>
        <pt x="97" y="436" on="1"/>
        <pt x="101" y="382" on="1"/>
        <pt x="101" y="355" on="0"/>
      </contour>
    </TTGlyph>
    <TTGlyph name="M" xMin="20" yMin="-74" xMax="422" yMax="730">
      <contour>
        <pt x="307" y="730" on="1"/>
        <pt x="310" y="730" on="1"/>
        <pt x="335" y="717" on="0"/>
        <pt x="335" y="701" on="1"/>
        <pt x="310" y="511" on="1"/>
        <pt x="310" y="407" on="0"/>
        <pt x="372" y="80" on="1"/>
        <pt x="422" y="-45" on="1"/>
        <pt x="422" y="-58" on="0"/>
        <pt x="401" y="-74" on="1"/>
        <pt x="382" y="-74" on="1"/>
        <pt x="362" y="-68" on="0"/>
        <pt x="322" y="49" on="1"/>
        <pt x="296" y="143" on="0"/>
        <pt x="270" y="339" on="1"/>
        <pt x="264" y="339" on="1"/>
        <pt x="206" y="167" on="0"/>
        <pt x="182" y="161" on="1"/>
        <pt x="166" y="157" on="1"/>
        <pt x="145" y="157" on="0"/>
        <pt x="114" y="239" on="1"/>
        <pt x="107" y="239" on="1"/>
        <pt x="95" y="-8" on="0"/>
        <pt x="60" y="-8" on="1"/>
        <pt x="57" y="-8" on="1"/>
        <pt x="25" y="-8" on="0"/>
        <pt x="22" y="42" on="1"/>
        <pt x="47" y="138" on="0"/>
        <pt x="47" y="242" on="1"/>
        <pt x="20" y="507" on="1"/>
        <pt x="20" y="526" on="1"/>
        <pt x="20" y="564" on="0"/>
        <pt x="47" y="564" on="1"/>
        <pt x="86" y="564" on="0"/>
        <pt x="116" y="411" on="1"/>
        <pt x="160" y="272" on="0"/>
        <pt x="170" y="261" on="1"/>
        <pt x="193" y="297" on="0"/>
        <pt x="216" y="389" on="1"/>
        <pt x="234" y="436" on="0"/>
        <pt x="251" y="536" on="1"/>
        <pt x="247" y="539" on="1"/>
        <pt x="251" y="555" on="1"/>
        <pt x="251" y="561" on="1"/>
        <pt x="260" y="730" on="0"/>
      </contour>
    </TTGlyph>
    <TTGlyph name="N" xMin="5" yMin="-63" xMax="430" yMax="552">
      <contour>
        <pt x="95" y="552" on="1"/>
        <pt x="142" y="537" on="0"/>
        <pt x="274" y="187" on="1"/>
        <pt x="289" y="169" on="1"/>
        <pt x="289" y="225" on="1"/>
        <pt x="289" y="448" on="0"/>
        <pt x="399" y="540" on="1"/>
        <pt x="424" y="540" on="0"/>
        <pt x="430" y="506" on="1"/>
        <pt x="355" y="394" on="0"/>
        <pt x="355" y="325" on="1"/>
        <pt x="350" y="325" on="0"/>
        <pt x="349" y="262" on="1"/>
        <pt x="349" y="209" on="1"/>
        <pt x="349" y="140" on="0"/>
        <pt x="364" y="12" on="1"/>
        <pt x="355" y="-13" on="0"/>
        <pt x="309" y="-13" on="0"/>
        <pt x="267" y="81" on="1"/>
        <pt x="216" y="162" on="0"/>
        <pt x="155" y="327" on="1"/>
        <pt x="151" y="327" on="1"/>
        <pt x="151" y="321" on="1"/>
        <pt x="157" y="194" on="1"/>
        <pt x="157" y="-3" on="0"/>
        <pt x="82" y="-60" on="1"/>
        <pt x="57" y="-63" on="1"/>
        <pt x="26" y="-63" on="0"/>
        <pt x="5" y="-6" on="1"/>
        <pt x="12" y="25" on="0"/>
        <pt x="36" y="25" on="1"/>
        <pt x="42" y="25" on="1"/>
        <pt x="61" y="9" on="1"/>
        <pt x="64" y="9" on="1"/>
        <pt x="99" y="56" on="0"/>
        <pt x="99" y="319" on="0"/>
        <pt x="61" y="521" on="1"/>
        <pt x="61" y="548" on="0"/>
      </contour>
    </TTGlyph>
    <TTGlyph name="Nacute" xMin="5" yMin="-63" xMax="430" yMax="789">
      <contour>
        <pt x="95" y="552" on="1"/>
        <pt x="142" y="537" on="0"/>
        <pt x="274" y="187" on="1"/>
        <pt x="289" y="169" on="1"/>
        <pt x="289" y="225" on="1"/>
        <pt x="289" y="448" on="0"/>
        <pt x="399" y="540" on="1"/>
        <pt x="424" y="540" on="0"/>
        <pt x="430" y="506" on="1"/>
        <pt x="355" y="394" on="0"/>
        <pt x="355" y="325" on="1"/>
        <pt x="350" y="325" on="0"/>
        <pt x="349" y="262" on="1"/>
        <pt x="349" y="209" on="1"/>
        <pt x="349" y="140" on="0"/>
        <pt x="364" y="12" on="1"/>
        <pt x="355" y="-13" on="0"/>
        <pt x="309" y="-13" on="0"/>
        <pt x="267" y="81" on="1"/>
        <pt x="216" y="162" on="0"/>
        <pt x="155" y="327" on="1"/>
        <pt x="151" y="327" on="1"/>
        <pt x="151" y="321" on="1"/>
        <pt x="157" y="194" on="1"/>
        <pt x="157" y="-3" on="0"/>
        <pt x="82" y="-60" on="1"/>
        <pt x="57" y="-63" on="1"/>
        <pt x="26" y="-63" on="0"/>
        <pt x="5" y="-6" on="1"/>
        <pt x="12" y="25" on="0"/>
        <pt x="36" y="25" on="1"/>
        <pt x="42" y="25" on="1"/>
        <pt x="61" y="9" on="1"/>
        <pt x="64" y="9" on="1"/>
        <pt x="99" y="56" on="0"/>
        <pt x="99" y="319" on="0"/>
        <pt x="61" y="521" on="1"/>
        <pt x="61" y="548" on="0"/>
      </contour>
      <contour>
        <pt x="106" y="673" on="1"/>
        <pt x="108" y="702" on="0"/>
        <pt x="136" y="711" on="1"/>
        <pt x="299" y="789" on="0"/>
        <pt x="337" y="789" on="1"/>
        <pt x="339" y="789" on="0"/>
        <pt x="340" y="789" on="1"/>
        <pt x="365" y="788" on="0"/>
        <pt x="368" y="752" on="1"/>
        <pt x="361" y="724" on="1"/>
        <pt x="225" y="676" on="0"/>
        <pt x="198" y="669" on="1"/>
        <pt x="188" y="652" on="0"/>
        <pt x="135" y="636" on="1"/>
        <pt x="111" y="638" on="0"/>
      </contour>
    </TTGlyph>
    <TTGlyph name="Ncaron" xMin="5" yMin="-63" xMax="430" yMax="891">
      <contour>
        <pt x="95" y="552" on="1"/>
        <pt x="142" y="537" on="0"/>
        <pt x="274" y="187" on="1"/>
        <pt x="289" y="169" on="1"/>
        <pt x="289" y="225" on="1"/>
        <pt x="289" y="448" on="0"/>
        <pt x="399" y="540" on="1"/>
        <pt x="424" y="540" on="0"/>
        <pt x="430" y="506" on="1"/>
        <pt x="355" y="394" on="0"/>
        <pt x="355" y="325" on="1"/>
        <pt x="350" y="325" on="0"/>
        <pt x="349" y="262" on="1"/>
        <pt x="349" y="209" on="1"/>
        <pt x="349" y="140" on="0"/>
        <pt x="364" y="12" on="1"/>
        <pt x="355" y="-13" on="0"/>
        <pt x="309" y="-13" on="0"/>
        <pt x="267" y="81" on="1"/>
        <pt x="216" y="162" on="0"/>
        <pt x="155" y="327" on="1"/>
        <pt x="151" y="327" on="1"/>
        <pt x="151" y="321" on="1"/>
        <pt x="157" y="194" on="1"/>
        <pt x="157" y="-3" on="0"/>
        <pt x="82" y="-60" on="1"/>
        <pt x="57" y="-63" on="1"/>
        <pt x="26" y="-63" on="0"/>
        <pt x="5" y="-6" on="1"/>
        <pt x="12" y="25" on="0"/>
        <pt x="36" y="25" on="1"/>
        <pt x="42" y="25" on="1"/>
        <pt x="61" y="9" on="1"/>
        <pt x="64" y="9" on="1"/>
        <pt x="99" y="56" on="0"/>
        <pt x="99" y="319" on="0"/>
        <pt x="61" y="521" on="1"/>
        <pt x="61" y="548" on="0"/>
      </contour>
      <contour>
        <pt x="210" y="697" on="1"/>
        <pt x="194" y="704" on="1"/>
        <pt x="79" y="836" on="1"/>
        <pt x="47" y="847" on="0"/>
        <pt x="47" y="854" on="1"/>
        <pt x="47" y="866" on="0"/>
        <pt x="79" y="874" on="1"/>
        <pt x="90" y="872" on="1"/>
        <pt x="116" y="869" on="0"/>
        <pt x="216" y="749" on="1"/>
        <pt x="226" y="755" on="0"/>
        <pt x="267" y="802" on="1"/>
        <pt x="335" y="891" on="0"/>
        <pt x="360" y="891" on="1"/>
        <pt x="362" y="891" on="1"/>
        <pt x="389" y="890" on="0"/>
        <pt x="389" y="877" on="1"/>
        <pt x="349" y="829" on="1"/>
        <pt x="244" y="697" on="0"/>
      </contour>
    </TTGlyph>
    <TTGlyph name="Ncommaaccent" xMin="5" yMin="-298" xMax="430" yMax="552">
      <contour>
        <pt x="95" y="552" on="1"/>
        <pt x="142" y="537" on="0"/>
        <pt x="274" y="187" on="1"/>
        <pt x="289" y="169" on="1"/>
        <pt x="289" y="225" on="1"/>
        <pt x="289" y="448" on="0"/>
        <pt x="399" y="540" on="1"/>
        <pt x="424" y="540" on="0"/>
        <pt x="430" y="506" on="1"/>
        <pt x="355" y="394" on="0"/>
        <pt x="355" y="325" on="1"/>
        <pt x="350" y="325" on="0"/>
        <pt x="349" y="262" on="1"/>
        <pt x="349" y="209" on="1"/>
        <pt x="349" y="140" on="0"/>
        <pt x="364" y="12" on="1"/>
        <pt x="355" y="-13" on="0"/>
        <pt x="309" y="-13" on="0"/>
        <pt x="267" y="81" on="1"/>
        <pt x="216" y="162" on="0"/>
        <pt x="155" y="327" on="1"/>
        <pt x="151" y="327" on="1"/>
        <pt x="151" y="321" on="1"/>
        <pt x="157" y="194" on="1"/>
        <pt x="157" y="-3" on="0"/>
        <pt x="82" y="-60" on="1"/>
        <pt x="57" y="-63" on="1"/>
        <pt x="26" y="-63" on="0"/>
        <pt x="5" y="-6" on="1"/>
        <pt x="12" y="25" on="0"/>
        <pt x="36" y="25" on="1"/>
        <pt x="42" y="25" on="1"/>
        <pt x="61" y="9" on="1"/>
        <pt x="64" y="9" on="1"/>
        <pt x="99" y="56" on="0"/>
        <pt x="99" y="319" on="0"/>
        <pt x="61" y="521" on="1"/>
        <pt x="61" y="548" on="0"/>
      </contour>
      <contour>
        <pt x="197" y="-160" on="1"/>
        <pt x="197" y="-109" on="0"/>
        <pt x="228" y="-109" on="1"/>
        <pt x="240" y="-109" on="0"/>
        <pt x="255" y="-115" on="1"/>
        <pt x="270" y="-211" on="1"/>
        <pt x="216" y="-298" on="0"/>
        <pt x="187" y="-298" on="1"/>
        <pt x="168" y="-298" on="0"/>
        <pt x="161" y="-255" on="1"/>
        <pt x="202" y="-210" on="1"/>
        <pt x="197" y="-181" on="0"/>
      </contour>
    </TTGlyph>
    <TTGlyph name="Ntilde" xMin="5" yMin="-63" xMax="481" yMax="809">
      <contour>
        <pt x="95" y="552" on="1"/>
        <pt x="142" y="537" on="0"/>
        <pt x="274" y="187" on="1"/>
        <pt x="289" y="169" on="1"/>
        <pt x="289" y="225" on="1"/>
        <pt x="289" y="448" on="0"/>
        <pt x="399" y="540" on="1"/>
        <pt x="424" y="540" on="0"/>
        <pt x="430" y="506" on="1"/>
        <pt x="355" y="394" on="0"/>
        <pt x="355" y="325" on="1"/>
        <pt x="350" y="325" on="0"/>
        <pt x="349" y="262" on="1"/>
        <pt x="349" y="209" on="1"/>
        <pt x="349" y="140" on="0"/>
        <pt x="364" y="12" on="1"/>
        <pt x="355" y="-13" on="0"/>
        <pt x="309" y="-13" on="0"/>
        <pt x="267" y="81" on="1"/>
        <pt x="216" y="162" on="0"/>
        <pt x="155" y="327" on="1"/>
        <pt x="151" y="327" on="1"/>
        <pt x="151" y="321" on="1"/>
        <pt x="157" y="194" on="1"/>
        <pt x="157" y="-3" on="0"/>
        <pt x="82" y="-60" on="1"/>
        <pt x="57" y="-63" on="1"/>
        <pt x="26" y="-63" on="0"/>
        <pt x="5" y="-6" on="1"/>
        <pt x="12" y="25" on="0"/>
        <pt x="36" y="25" on="1"/>
        <pt x="42" y="25" on="1"/>
        <pt x="61" y="9" on="1"/>
        <pt x="64" y="9" on="1"/>
        <pt x="99" y="56" on="0"/>
        <pt x="99" y="319" on="0"/>
        <pt x="61" y="521" on="1"/>
        <pt x="61" y="548" on="0"/>
      </contour>
      <contour>
        <pt x="481" y="660" on="1"/>
        <pt x="480" y="653" on="0"/>
        <pt x="463" y="653" on="0"/>
        <pt x="433" y="675" on="1"/>
        <pt x="422" y="734" on="0"/>
        <pt x="370" y="764" on="1"/>
        <pt x="361" y="765" on="1"/>
        <pt x="348" y="765" on="0"/>
        <pt x="312" y="660" on="1"/>
        <pt x="281" y="619" on="0"/>
        <pt x="239" y="619" on="1"/>
        <pt x="238" y="619" on="0"/>
        <pt x="237" y="619" on="1"/>
        <pt x="166" y="624" on="0"/>
        <pt x="121" y="723" on="1"/>
        <pt x="117" y="753" on="1"/>
        <pt x="123" y="787" on="0"/>
        <pt x="141" y="787" on="1"/>
        <pt x="155" y="787" on="0"/>
        <pt x="176" y="765" on="1"/>
        <pt x="168" y="758" on="1"/>
        <pt x="168" y="746" on="1"/>
        <pt x="167" y="704" on="0"/>
        <pt x="232" y="664" on="1"/>
        <pt x="242" y="664" on="1"/>
        <pt x="243" y="664" on="1"/>
        <pt x="270" y="664" on="0"/>
        <pt x="297" y="760" on="1"/>
        <pt x="325" y="809" on="0"/>
        <pt x="365" y="809" on="1"/>
        <pt x="366" y="809" on="0"/>
        <pt x="367" y="809" on="1"/>
        <pt x="423" y="806" on="0"/>
        <pt x="468" y="723" on="1"/>
        <pt x="471" y="684" on="0"/>
      </contour>
    </TTGlyph>
    <TTGlyph name="O" xMin="25" yMin="-18" xMax="419" yMax="545">
      <contour>
        <pt x="146" y="541" on="1"/>
        <pt x="171" y="545" on="1"/>
        <pt x="181" y="545" on="1"/>
        <pt x="201" y="545" on="0"/>
        <pt x="225" y="520" on="1"/>
        <pt x="269" y="520" on="0"/>
        <pt x="350" y="410" on="1"/>
        <pt x="419" y="280" on="0"/>
        <pt x="419" y="179" on="1"/>
        <pt x="419" y="41" on="0"/>
        <pt x="319" y="-5" on="1"/>
        <pt x="256" y="-18" on="1"/>
        <pt x="106" y="-18" on="0"/>
        <pt x="40" y="207" on="1"/>
        <pt x="25" y="266" on="0"/>
        <pt x="25" y="322" on="1"/>
        <pt x="25" y="332" on="1"/>
        <pt x="25" y="501" on="0"/>
      </contour>
      <contour>
        <pt x="137" y="445" on="1"/>
        <pt x="115" y="454" on="1"/>
        <pt x="84" y="417" on="0"/>
        <pt x="84" y="347" on="1"/>
        <pt x="84" y="320" on="1"/>
        <pt x="84" y="135" on="0"/>
        <pt x="209" y="51" on="1"/>
        <pt x="237" y="45" on="1"/>
        <pt x="275" y="45" on="1"/>
        <pt x="327" y="45" on="0"/>
        <pt x="350" y="110" on="1"/>
        <pt x="356" y="154" on="1"/>
        <pt x="356" y="185" on="1"/>
        <pt x="356" y="335" on="0"/>
        <pt x="237" y="454" on="1"/>
        <pt x="196" y="466" on="1"/>
        <pt x="194" y="466" on="1"/>
        <pt x="174" y="466" on="0"/>
      </contour>
    </TTGlyph>
    <TTGlyph name="OE" xMin="25" yMin="-18" xMax="725" yMax="586">
      <contour>
        <pt x="641" y="586" on="1"/>
        <pt x="660" y="586" on="0"/>
        <pt x="666" y="555" on="1"/>
        <pt x="666" y="537" on="0"/>
        <pt x="604" y="505" on="1"/>
        <pt x="524" y="436" on="0"/>
        <pt x="487" y="271" on="1"/>
        <pt x="487" y="252" on="1"/>
        <pt x="571" y="295" on="0"/>
        <pt x="612" y="305" on="1"/>
        <pt x="624" y="305" on="0"/>
        <pt x="641" y="284" on="1"/>
        <pt x="641" y="265" on="1"/>
        <pt x="641" y="254" on="0"/>
        <pt x="554" y="221" on="1"/>
        <pt x="487" y="185" on="0"/>
        <pt x="487" y="180" on="1"/>
        <pt x="487" y="171" on="1"/>
        <pt x="487" y="114" on="0"/>
        <pt x="560" y="74" on="1"/>
        <pt x="594" y="67" on="1"/>
        <pt x="626" y="67" on="0"/>
        <pt x="691" y="109" on="1"/>
        <pt x="704" y="109" on="1"/>
        <pt x="725" y="98" on="0"/>
        <pt x="725" y="80" on="1"/>
        <pt x="725" y="74" on="1"/>
        <pt x="663" y="9" on="0"/>
        <pt x="587" y="9" on="1"/>
        <pt x="481" y="9" on="0"/>
        <pt x="431" y="152" on="1"/>
        <pt x="417" y="150" on="1"/>
        <pt x="406" y="36" on="0"/>
        <pt x="319" y="-5" on="1"/>
        <pt x="256" y="-18" on="1"/>
        <pt x="106" y="-18" on="0"/>
        <pt x="40" y="207" on="1"/>
        <pt x="25" y="266" on="0"/>
        <pt x="25" y="322" on="1"/>
        <pt x="25" y="332" on="1"/>
        <pt x="25" y="501" on="0"/>
        <pt x="146" y="541" on="1"/>
        <pt x="171" y="545" on="1"/>
        <pt x="181" y="545" on="1"/>
        <pt x="201" y="545" on="0"/>
        <pt x="225" y="520" on="1"/>
        <pt x="269" y="520" on="0"/>
        <pt x="350" y="410" on="1"/>
        <pt x="407" y="300" on="0"/>
        <pt x="416" y="214" on="1"/>
        <pt x="425" y="217" on="0"/>
        <pt x="425" y="221" on="1"/>
        <pt x="425" y="390" on="0"/>
        <pt x="554" y="536" on="1"/>
        <pt x="619" y="586" on="0"/>
      </contour>
      <contour>
        <pt x="137" y="445" on="1"/>
        <pt x="115" y="454" on="1"/>
        <pt x="84" y="417" on="0"/>
        <pt x="84" y="347" on="1"/>
        <pt x="84" y="320" on="1"/>
        <pt x="84" y="135" on="0"/>
        <pt x="209" y="51" on="1"/>
        <pt x="237" y="45" on="1"/>
        <pt x="275" y="45" on="1"/>
        <pt x="327" y="45" on="0"/>
        <pt x="350" y="110" on="1"/>
        <pt x="354" y="142" on="1"/>
        <pt x="322" y="151" on="0"/>
        <pt x="322" y="192" on="0"/>
        <pt x="350" y="202" on="1"/>
        <pt x="356" y="201" on="1"/>
        <pt x="350" y="341" on="0"/>
        <pt x="237" y="454" on="1"/>
        <pt x="196" y="466" on="1"/>
        <pt x="194" y="466" on="1"/>
        <pt x="174" y="466" on="0"/>
      </contour>
    </TTGlyph>
    <TTGlyph name="Oacute" xMin="-8" yMin="-18" xMax="419" yMax="771">
      <contour>
        <pt x="146" y="541" on="1"/>
        <pt x="171" y="545" on="1"/>
        <pt x="181" y="545" on="1"/>
        <pt x="201" y="545" on="0"/>
        <pt x="225" y="520" on="1"/>
        <pt x="269" y="520" on="0"/>
        <pt x="350" y="410" on="1"/>
        <pt x="419" y="280" on="0"/>
        <pt x="419" y="179" on="1"/>
        <pt x="419" y="41" on="0"/>
        <pt x="319" y="-5" on="1"/>
        <pt x="256" y="-18" on="1"/>
        <pt x="106" y="-18" on="0"/>
        <pt x="40" y="207" on="1"/>
        <pt x="25" y="266" on="0"/>
        <pt x="25" y="322" on="1"/>
        <pt x="25" y="332" on="1"/>
        <pt x="25" y="501" on="0"/>
      </contour>
      <contour>
        <pt x="137" y="445" on="1"/>
        <pt x="115" y="454" on="1"/>
        <pt x="84" y="417" on="0"/>
        <pt x="84" y="347" on="1"/>
        <pt x="84" y="320" on="1"/>
        <pt x="84" y="135" on="0"/>
        <pt x="209" y="51" on="1"/>
        <pt x="237" y="45" on="1"/>
        <pt x="275" y="45" on="1"/>
        <pt x="327" y="45" on="0"/>
        <pt x="350" y="110" on="1"/>
        <pt x="356" y="154" on="1"/>
        <pt x="356" y="185" on="1"/>
        <pt x="356" y="335" on="0"/>
        <pt x="237" y="454" on="1"/>
        <pt x="196" y="466" on="1"/>
        <pt x="194" y="466" on="1"/>
        <pt x="174" y="466" on="0"/>
      </contour>
      <contour>
        <pt x="-8" y="655" on="1"/>
        <pt x="-6" y="684" on="0"/>
        <pt x="22" y="693" on="1"/>
        <pt x="185" y="771" on="0"/>
        <pt x="223" y="771" on="1"/>
        <pt x="225" y="771" on="0"/>
        <pt x="226" y="771" on="1"/>
        <pt x="251" y="770" on="0"/>
        <pt x="254" y="734" on="1"/>
        <pt x="247" y="706" on="1"/>
        <pt x="111" y="658" on="0"/>
        <pt x="84" y="651" on="1"/>
        <pt x="74" y="634" on="0"/>
        <pt x="21" y="618" on="1"/>
        <pt x="-3" y="620" on="0"/>
      </contour>
    </TTGlyph>
    <TTGlyph name="Obreve" xMin="25" yMin="-18" xMax="419" yMax="791">
      <contour>
        <pt x="146" y="541" on="1"/>
        <pt x="171" y="545" on="1"/>
        <pt x="181" y="545" on="1"/>
        <pt x="201" y="545" on="0"/>
        <pt x="225" y="520" on="1"/>
        <pt x="269" y="520" on="0"/>
        <pt x="350" y="410" on="1"/>
        <pt x="419" y="280" on="0"/>
        <pt x="419" y="179" on="1"/>
        <pt x="419" y="41" on="0"/>
        <pt x="319" y="-5" on="1"/>
        <pt x="256" y="-18" on="1"/>
        <pt x="106" y="-18" on="0"/>
        <pt x="40" y="207" on="1"/>
        <pt x="25" y="266" on="0"/>
        <pt x="25" y="322" on="1"/>
        <pt x="25" y="332" on="1"/>
        <pt x="25" y="501" on="0"/>
      </contour>
      <contour>
        <pt x="137" y="445" on="1"/>
        <pt x="115" y="454" on="1"/>
        <pt x="84" y="417" on="0"/>
        <pt x="84" y="347" on="1"/>
        <pt x="84" y="320" on="1"/>
        <pt x="84" y="135" on="0"/>
        <pt x="209" y="51" on="1"/>
        <pt x="237" y="45" on="1"/>
        <pt x="275" y="45" on="1"/>
        <pt x="327" y="45" on="0"/>
        <pt x="350" y="110" on="1"/>
        <pt x="356" y="154" on="1"/>
        <pt x="356" y="185" on="1"/>
        <pt x="356" y="335" on="0"/>
        <pt x="237" y="454" on="1"/>
        <pt x="196" y="466" on="1"/>
        <pt x="194" y="466" on="1"/>
        <pt x="174" y="466" on="0"/>
      </contour>
      <contour>
        <pt x="205" y="700" on="1"/>
        <pt x="271" y="700" on="0"/>
        <pt x="281" y="791" on="1"/>
        <pt x="317" y="791" on="1"/>
        <pt x="313" y="712" on="0"/>
        <pt x="271" y="690" on="1"/>
        <pt x="231" y="671" on="0"/>
        <pt x="211" y="671" on="1"/>
        <pt x="210" y="671" on="0"/>
        <pt x="207" y="671" on="0"/>
        <pt x="205" y="671" on="1"/>
        <pt x="146" y="671" on="0"/>
        <pt x="134" y="713" on="1"/>
        <pt x="126" y="741" on="0"/>
        <pt x="126" y="776" on="0"/>
        <pt x="129" y="787" on="1"/>
        <pt x="166" y="786" on="1"/>
        <pt x="166" y="735" on="1"/>
        <pt x="166" y="700" on="0"/>
        <pt x="199" y="700" on="1"/>
        <pt x="202" y="700" on="0"/>
      </contour>
    </TTGlyph>
    <TTGlyph name="Ocircumflex" xMin="7" yMin="-18" xMax="419" yMax="800">
      <contour>
        <pt x="146" y="541" on="1"/>
        <pt x="171" y="545" on="1"/>
        <pt x="181" y="545" on="1"/>
        <pt x="201" y="545" on="0"/>
        <pt x="225" y="520" on="1"/>
        <pt x="269" y="520" on="0"/>
        <pt x="350" y="410" on="1"/>
        <pt x="419" y="280" on="0"/>
        <pt x="419" y="179" on="1"/>
        <pt x="419" y="41" on="0"/>
        <pt x="319" y="-5" on="1"/>
        <pt x="256" y="-18" on="1"/>
        <pt x="106" y="-18" on="0"/>
        <pt x="40" y="207" on="1"/>
        <pt x="25" y="266" on="0"/>
        <pt x="25" y="322" on="1"/>
        <pt x="25" y="332" on="1"/>
        <pt x="25" y="501" on="0"/>
      </contour>
      <contour>
        <pt x="137" y="445" on="1"/>
        <pt x="115" y="454" on="1"/>
        <pt x="84" y="417" on="0"/>
        <pt x="84" y="347" on="1"/>
        <pt x="84" y="320" on="1"/>
        <pt x="84" y="135" on="0"/>
        <pt x="209" y="51" on="1"/>
        <pt x="237" y="45" on="1"/>
        <pt x="275" y="45" on="1"/>
        <pt x="327" y="45" on="0"/>
        <pt x="350" y="110" on="1"/>
        <pt x="356" y="154" on="1"/>
        <pt x="356" y="185" on="1"/>
        <pt x="356" y="335" on="0"/>
        <pt x="237" y="454" on="1"/>
        <pt x="196" y="466" on="1"/>
        <pt x="194" y="466" on="1"/>
        <pt x="174" y="466" on="0"/>
      </contour>
      <contour>
        <pt x="141" y="793" on="1"/>
        <pt x="157" y="800" on="1"/>
        <pt x="187" y="800" on="0"/>
        <pt x="283" y="656" on="1"/>
        <pt x="321" y="602" on="1"/>
        <pt x="321" y="590" on="0"/>
        <pt x="297" y="587" on="1"/>
        <pt x="271" y="585" on="1"/>
        <pt x="271" y="588" on="0"/>
        <pt x="199" y="673" on="1"/>
        <pt x="179" y="722" on="0"/>
        <pt x="166" y="722" on="1"/>
        <pt x="162" y="722" on="0"/>
        <pt x="159" y="717" on="1"/>
        <pt x="70" y="612" on="0"/>
        <pt x="63" y="591" on="1"/>
        <pt x="36" y="606" on="1"/>
        <pt x="7" y="612" on="0"/>
        <pt x="7" y="628" on="1"/>
        <pt x="7" y="636" on="0"/>
        <pt x="36" y="647" on="1"/>
      </contour>
    </TTGlyph>
    <TTGlyph name="Odieresis" xMin="25" yMin="-18" xMax="419" yMax="634">
      <contour>
        <pt x="146" y="541" on="1"/>
        <pt x="171" y="545" on="1"/>
        <pt x="181" y="545" on="1"/>
        <pt x="201" y="545" on="0"/>
        <pt x="225" y="520" on="1"/>
        <pt x="269" y="520" on="0"/>
        <pt x="350" y="410" on="1"/>
        <pt x="419" y="280" on="0"/>
        <pt x="419" y="179" on="1"/>
        <pt x="419" y="41" on="0"/>
        <pt x="319" y="-5" on="1"/>
        <pt x="256" y="-18" on="1"/>
        <pt x="106" y="-18" on="0"/>
        <pt x="40" y="207" on="1"/>
        <pt x="25" y="266" on="0"/>
        <pt x="25" y="322" on="1"/>
        <pt x="25" y="332" on="1"/>
        <pt x="25" y="501" on="0"/>
      </contour>
      <contour>
        <pt x="137" y="445" on="1"/>
        <pt x="115" y="454" on="1"/>
        <pt x="84" y="417" on="0"/>
        <pt x="84" y="347" on="1"/>
        <pt x="84" y="320" on="1"/>
        <pt x="84" y="135" on="0"/>
        <pt x="209" y="51" on="1"/>
        <pt x="237" y="45" on="1"/>
        <pt x="275" y="45" on="1"/>
        <pt x="327" y="45" on="0"/>
        <pt x="350" y="110" on="1"/>
        <pt x="356" y="154" on="1"/>
        <pt x="356" y="185" on="1"/>
        <pt x="356" y="335" on="0"/>
        <pt x="237" y="454" on="1"/>
        <pt x="196" y="466" on="1"/>
        <pt x="194" y="466" on="1"/>
        <pt x="174" y="466" on="0"/>
      </contour>
      <contour>
        <pt x="222" y="567" on="1"/>
        <pt x="201" y="568" on="0"/>
        <pt x="194" y="601" on="1"/>
        <pt x="195" y="626" on="0"/>
        <pt x="237" y="626" on="1"/>
        <pt x="260" y="610" on="0"/>
        <pt x="260" y="597" on="1"/>
        <pt x="260" y="569" on="0"/>
      </contour>
      <contour>
        <pt x="109" y="573" on="1"/>
        <pt x="86" y="573" on="0"/>
        <pt x="85" y="603" on="1"/>
        <pt x="86" y="626" on="0"/>
        <pt x="121" y="634" on="1"/>
        <pt x="149" y="622" on="0"/>
        <pt x="147" y="601" on="1"/>
        <pt x="134" y="573" on="0"/>
      </contour>
    </TTGlyph>
    <TTGlyph name="Ograve" xMin="25" yMin="-18" xMax="419" yMax="790">
      <contour>
        <pt x="146" y="541" on="1"/>
        <pt x="171" y="545" on="1"/>
        <pt x="181" y="545" on="1"/>
        <pt x="201" y="545" on="0"/>
        <pt x="225" y="520" on="1"/>
        <pt x="269" y="520" on="0"/>
        <pt x="350" y="410" on="1"/>
        <pt x="419" y="280" on="0"/>
        <pt x="419" y="179" on="1"/>
        <pt x="419" y="41" on="0"/>
        <pt x="319" y="-5" on="1"/>
        <pt x="256" y="-18" on="1"/>
        <pt x="106" y="-18" on="0"/>
        <pt x="40" y="207" on="1"/>
        <pt x="25" y="266" on="0"/>
        <pt x="25" y="322" on="1"/>
        <pt x="25" y="332" on="1"/>
        <pt x="25" y="501" on="0"/>
      </contour>
      <contour>
        <pt x="137" y="445" on="1"/>
        <pt x="115" y="454" on="1"/>
        <pt x="84" y="417" on="0"/>
        <pt x="84" y="347" on="1"/>
        <pt x="84" y="320" on="1"/>
        <pt x="84" y="135" on="0"/>
        <pt x="209" y="51" on="1"/>
        <pt x="237" y="45" on="1"/>
        <pt x="275" y="45" on="1"/>
        <pt x="327" y="45" on="0"/>
        <pt x="350" y="110" on="1"/>
        <pt x="356" y="154" on="1"/>
        <pt x="356" y="185" on="1"/>
        <pt x="356" y="335" on="0"/>
        <pt x="237" y="454" on="1"/>
        <pt x="196" y="466" on="1"/>
        <pt x="194" y="466" on="1"/>
        <pt x="174" y="466" on="0"/>
      </contour>
      <contour>
        <pt x="324" y="660" on="1"/>
        <pt x="320" y="632" on="0"/>
        <pt x="299" y="630" on="1"/>
        <pt x="251" y="643" on="0"/>
        <pt x="240" y="657" on="1"/>
        <pt x="99" y="716" on="0"/>
        <pt x="99" y="749" on="1"/>
        <pt x="99" y="755" on="0"/>
        <pt x="103" y="760" on="1"/>
        <pt x="106" y="788" on="0"/>
        <pt x="129" y="790" on="1"/>
        <pt x="175" y="777" on="0"/>
        <pt x="298" y="690" on="1"/>
        <pt x="322" y="683" on="0"/>
      </contour>
    </TTGlyph>
    <TTGlyph name="Ohungarumlaut" xMin="25" yMin="-18" xMax="419" yMax="781">
      <contour>
        <pt x="146" y="541" on="1"/>
        <pt x="171" y="545" on="1"/>
        <pt x="181" y="545" on="1"/>
        <pt x="201" y="545" on="0"/>
        <pt x="225" y="520" on="1"/>
        <pt x="269" y="520" on="0"/>
        <pt x="350" y="410" on="1"/>
        <pt x="419" y="280" on="0"/>
        <pt x="419" y="179" on="1"/>
        <pt x="419" y="41" on="0"/>
        <pt x="319" y="-5" on="1"/>
        <pt x="256" y="-18" on="1"/>
        <pt x="106" y="-18" on="0"/>
        <pt x="40" y="207" on="1"/>
        <pt x="25" y="266" on="0"/>
        <pt x="25" y="322" on="1"/>
        <pt x="25" y="332" on="1"/>
        <pt x="25" y="501" on="0"/>
      </contour>
      <contour>
        <pt x="137" y="445" on="1"/>
        <pt x="115" y="454" on="1"/>
        <pt x="84" y="417" on="0"/>
        <pt x="84" y="347" on="1"/>
        <pt x="84" y="320" on="1"/>
        <pt x="84" y="135" on="0"/>
        <pt x="209" y="51" on="1"/>
        <pt x="237" y="45" on="1"/>
        <pt x="275" y="45" on="1"/>
        <pt x="327" y="45" on="0"/>
        <pt x="350" y="110" on="1"/>
        <pt x="356" y="154" on="1"/>
        <pt x="356" y="185" on="1"/>
        <pt x="356" y="335" on="0"/>
        <pt x="237" y="454" on="1"/>
        <pt x="196" y="466" on="1"/>
        <pt x="194" y="466" on="1"/>
        <pt x="174" y="466" on="0"/>
      </contour>
      <contour>
        <pt x="70" y="633" on="1"/>
        <pt x="67" y="638" on="0"/>
        <pt x="67" y="653" on="0"/>
        <pt x="76" y="662" on="1"/>
        <pt x="158" y="771" on="0"/>
        <pt x="179" y="779" on="1"/>
        <pt x="183" y="781" on="0"/>
        <pt x="198" y="781" on="0"/>
        <pt x="207" y="768" on="1"/>
        <pt x="212" y="752" on="1"/>
        <pt x="139" y="674" on="0"/>
        <pt x="124" y="659" on="1"/>
        <pt x="124" y="647" on="0"/>
        <pt x="99" y="622" on="1"/>
        <pt x="95" y="621" on="0"/>
        <pt x="81" y="621" on="0"/>
      </contour>
      <contour>
        <pt x="181" y="611" on="1"/>
        <pt x="178" y="616" on="0"/>
        <pt x="178" y="630" on="0"/>
        <pt x="186" y="639" on="1"/>
        <pt x="269" y="747" on="0"/>
        <pt x="290" y="757" on="1"/>
        <pt x="294" y="759" on="0"/>
        <pt x="310" y="759" on="0"/>
        <pt x="319" y="747" on="1"/>
        <pt x="322" y="729" on="1"/>
        <pt x="321" y="730" on="0"/>
        <pt x="320" y="730" on="1"/>
        <pt x="304" y="730" on="0"/>
        <pt x="235" y="637" on="1"/>
        <pt x="235" y="623" on="0"/>
        <pt x="210" y="601" on="1"/>
        <pt x="206" y="599" on="0"/>
        <pt x="192" y="599" on="0"/>
      </contour>
    </TTGlyph>
    <TTGlyph name="Omacron" xMin="25" yMin="-18" xMax="419" yMax="693">
      <contour>
        <pt x="146" y="541" on="1"/>
        <pt x="171" y="545" on="1"/>
        <pt x="181" y="545" on="1"/>
        <pt x="201" y="545" on="0"/>
        <pt x="225" y="520" on="1"/>
        <pt x="269" y="520" on="0"/>
        <pt x="350" y="410" on="1"/>
        <pt x="419" y="280" on="0"/>
        <pt x="419" y="179" on="1"/>
        <pt x="419" y="41" on="0"/>
        <pt x="319" y="-5" on="1"/>
        <pt x="256" y="-18" on="1"/>
        <pt x="106" y="-18" on="0"/>
        <pt x="40" y="207" on="1"/>
        <pt x="25" y="266" on="0"/>
        <pt x="25" y="322" on="1"/>
        <pt x="25" y="332" on="1"/>
        <pt x="25" y="501" on="0"/>
      </contour>
      <contour>
        <pt x="137" y="445" on="1"/>
        <pt x="115" y="454" on="1"/>
        <pt x="84" y="417" on="0"/>
        <pt x="84" y="347" on="1"/>
        <pt x="84" y="320" on="1"/>
        <pt x="84" y="135" on="0"/>
        <pt x="209" y="51" on="1"/>
        <pt x="237" y="45" on="1"/>
        <pt x="275" y="45" on="1"/>
        <pt x="327" y="45" on="0"/>
        <pt x="350" y="110" on="1"/>
        <pt x="356" y="154" on="1"/>
        <pt x="356" y="185" on="1"/>
        <pt x="356" y="335" on="0"/>
        <pt x="237" y="454" on="1"/>
        <pt x="196" y="466" on="1"/>
        <pt x="194" y="466" on="1"/>
        <pt x="174" y="466" on="0"/>
      </contour>
      <contour>
        <pt x="125" y="681" on="1"/>
        <pt x="306" y="693" on="1"/>
        <pt x="331" y="693" on="0"/>
        <pt x="335" y="662" on="1"/>
        <pt x="335" y="631" on="0"/>
        <pt x="241" y="631" on="1"/>
        <pt x="172" y="621" on="0"/>
        <pt x="119" y="621" on="1"/>
        <pt x="54" y="629" on="0"/>
        <pt x="54" y="658" on="1"/>
        <pt x="54" y="678" on="0"/>
        <pt x="81" y="690" on="1"/>
        <pt x="119" y="681" on="1"/>
      </contour>
    </TTGlyph>
    <TTGlyph name="Oslash" xMin="25" yMin="-18" xMax="419" yMax="605">
      <contour>
        <pt x="86" y="92" on="1"/>
        <pt x="25" y="207" on="0"/>
        <pt x="25" y="322" on="1"/>
        <pt x="25" y="332" on="1"/>
        <pt x="25" y="501" on="0"/>
        <pt x="146" y="541" on="1"/>
        <pt x="171" y="545" on="1"/>
        <pt x="181" y="545" on="1"/>
        <pt x="201" y="545" on="0"/>
        <pt x="225" y="520" on="1"/>
        <pt x="246" y="520" on="0"/>
        <pt x="275" y="494" on="1"/>
        <pt x="317" y="580" on="1"/>
        <pt x="326" y="605" on="0"/>
        <pt x="349" y="605" on="1"/>
        <pt x="377" y="598" on="0"/>
        <pt x="377" y="576" on="1"/>
        <pt x="366" y="548" on="0"/>
        <pt x="320" y="447" on="1"/>
        <pt x="350" y="410" on="1"/>
        <pt x="419" y="280" on="0"/>
        <pt x="419" y="179" on="1"/>
        <pt x="419" y="41" on="0"/>
        <pt x="319" y="-5" on="1"/>
        <pt x="256" y="-18" on="1"/>
        <pt x="180" y="-18" on="0"/>
        <pt x="126" y="39" on="1"/>
        <pt x="111" y="1" on="1"/>
        <pt x="90" y="-5" on="1"/>
        <pt x="61" y="0" on="0"/>
        <pt x="61" y="24" on="1"/>
        <pt x="61" y="35" on="0"/>
      </contour>
      <contour>
        <pt x="209" y="51" on="1"/>
        <pt x="237" y="45" on="1"/>
        <pt x="275" y="45" on="1"/>
        <pt x="327" y="45" on="0"/>
        <pt x="350" y="110" on="1"/>
        <pt x="356" y="154" on="1"/>
        <pt x="356" y="185" on="1"/>
        <pt x="356" y="294" on="0"/>
        <pt x="291" y="389" on="1"/>
        <pt x="242" y="289" on="1"/>
        <pt x="191" y="187" on="0"/>
        <pt x="152" y="100" on="1"/>
        <pt x="175" y="73" on="0"/>
      </contour>
      <contour>
        <pt x="137" y="445" on="1"/>
        <pt x="115" y="454" on="1"/>
        <pt x="84" y="417" on="0"/>
        <pt x="84" y="347" on="1"/>
        <pt x="84" y="320" on="1"/>
        <pt x="84" y="225" on="0"/>
        <pt x="115" y="157" on="1"/>
        <pt x="159" y="255" on="0"/>
        <pt x="250" y="440" on="1"/>
        <pt x="237" y="454" on="1"/>
        <pt x="196" y="466" on="1"/>
        <pt x="194" y="466" on="1"/>
        <pt x="174" y="466" on="0"/>
      </contour>
    </TTGlyph>
    <TTGlyph name="Oslashacute" xMin="25" yMin="-18" xMax="419" yMax="811">
      <contour>
        <pt x="86" y="92" on="1"/>
        <pt x="25" y="207" on="0"/>
        <pt x="25" y="322" on="1"/>
        <pt x="25" y="332" on="1"/>
        <pt x="25" y="501" on="0"/>
        <pt x="146" y="541" on="1"/>
        <pt x="171" y="545" on="1"/>
        <pt x="181" y="545" on="1"/>
        <pt x="201" y="545" on="0"/>
        <pt x="225" y="520" on="1"/>
        <pt x="246" y="520" on="0"/>
        <pt x="275" y="494" on="1"/>
        <pt x="317" y="580" on="1"/>
        <pt x="326" y="605" on="0"/>
        <pt x="349" y="605" on="1"/>
        <pt x="377" y="598" on="0"/>
        <pt x="377" y="576" on="1"/>
        <pt x="366" y="548" on="0"/>
        <pt x="320" y="447" on="1"/>
        <pt x="350" y="410" on="1"/>
        <pt x="419" y="280" on="0"/>
        <pt x="419" y="179" on="1"/>
        <pt x="419" y="41" on="0"/>
        <pt x="319" y="-5" on="1"/>
        <pt x="256" y="-18" on="1"/>
        <pt x="180" y="-18" on="0"/>
        <pt x="126" y="39" on="1"/>
        <pt x="111" y="1" on="1"/>
        <pt x="90" y="-5" on="1"/>
        <pt x="61" y="0" on="0"/>
        <pt x="61" y="24" on="1"/>
        <pt x="61" y="35" on="0"/>
      </contour>
      <contour>
        <pt x="209" y="51" on="1"/>
        <pt x="237" y="45" on="1"/>
        <pt x="275" y="45" on="1"/>
        <pt x="327" y="45" on="0"/>
        <pt x="350" y="110" on="1"/>
        <pt x="356" y="154" on="1"/>
        <pt x="356" y="185" on="1"/>
        <pt x="356" y="294" on="0"/>
        <pt x="291" y="389" on="1"/>
        <pt x="242" y="289" on="1"/>
        <pt x="191" y="187" on="0"/>
        <pt x="152" y="100" on="1"/>
        <pt x="175" y="73" on="0"/>
      </contour>
      <contour>
        <pt x="137" y="445" on="1"/>
        <pt x="115" y="454" on="1"/>
        <pt x="84" y="417" on="0"/>
        <pt x="84" y="347" on="1"/>
        <pt x="84" y="320" on="1"/>
        <pt x="84" y="225" on="0"/>
        <pt x="115" y="157" on="1"/>
        <pt x="159" y="255" on="0"/>
        <pt x="250" y="440" on="1"/>
        <pt x="237" y="454" on="1"/>
        <pt x="196" y="466" on="1"/>
        <pt x="194" y="466" on="1"/>
        <pt x="174" y="466" on="0"/>
      </contour>
      <contour>
        <pt x="66" y="695" on="1"/>
        <pt x="68" y="725" on="0"/>
        <pt x="96" y="732" on="1"/>
        <pt x="259" y="811" on="0"/>
        <pt x="297" y="811" on="1"/>
        <pt x="299" y="811" on="0"/>
        <pt x="300" y="811" on="1"/>
        <pt x="324" y="810" on="0"/>
        <pt x="329" y="774" on="1"/>
        <pt x="321" y="746" on="1"/>
        <pt x="182" y="697" on="0"/>
        <pt x="159" y="691" on="1"/>
        <pt x="148" y="673" on="0"/>
        <pt x="95" y="657" on="1"/>
        <pt x="71" y="660" on="0"/>
      </contour>
    </TTGlyph>
    <TTGlyph name="Otilde" xMin="-5" yMin="-18" xMax="419" yMax="792">
      <contour>
        <pt x="146" y="541" on="1"/>
        <pt x="171" y="545" on="1"/>
        <pt x="181" y="545" on="1"/>
        <pt x="201" y="545" on="0"/>
        <pt x="225" y="520" on="1"/>
        <pt x="269" y="520" on="0"/>
        <pt x="350" y="410" on="1"/>
        <pt x="419" y="280" on="0"/>
        <pt x="419" y="179" on="1"/>
        <pt x="419" y="41" on="0"/>
        <pt x="319" y="-5" on="1"/>
        <pt x="256" y="-18" on="1"/>
        <pt x="106" y="-18" on="0"/>
        <pt x="40" y="207" on="1"/>
        <pt x="25" y="266" on="0"/>
        <pt x="25" y="322" on="1"/>
        <pt x="25" y="332" on="1"/>
        <pt x="25" y="501" on="0"/>
      </contour>
      <contour>
        <pt x="137" y="445" on="1"/>
        <pt x="115" y="454" on="1"/>
        <pt x="84" y="417" on="0"/>
        <pt x="84" y="347" on="1"/>
        <pt x="84" y="320" on="1"/>
        <pt x="84" y="135" on="0"/>
        <pt x="209" y="51" on="1"/>
        <pt x="237" y="45" on="1"/>
        <pt x="275" y="45" on="1"/>
        <pt x="327" y="45" on="0"/>
        <pt x="350" y="110" on="1"/>
        <pt x="356" y="154" on="1"/>
        <pt x="356" y="185" on="1"/>
        <pt x="356" y="335" on="0"/>
        <pt x="237" y="454" on="1"/>
        <pt x="196" y="466" on="1"/>
        <pt x="194" y="466" on="1"/>
        <pt x="174" y="466" on="0"/>
      </contour>
      <contour>
        <pt x="359" y="643" on="1"/>
        <pt x="358" y="636" on="0"/>
        <pt x="341" y="636" on="0"/>
        <pt x="311" y="658" on="1"/>
        <pt x="300" y="717" on="0"/>
        <pt x="248" y="747" on="1"/>
        <pt x="239" y="748" on="1"/>
        <pt x="226" y="748" on="0"/>
        <pt x="190" y="643" on="1"/>
        <pt x="159" y="602" on="0"/>
        <pt x="117" y="602" on="1"/>
        <pt x="116" y="602" on="0"/>
        <pt x="115" y="602" on="1"/>
        <pt x="44" y="607" on="0"/>
        <pt x="-1" y="706" on="1"/>
        <pt x="-5" y="736" on="1"/>
        <pt x="1" y="770" on="0"/>
        <pt x="19" y="770" on="1"/>
        <pt x="33" y="770" on="0"/>
        <pt x="54" y="748" on="1"/>
        <pt x="46" y="741" on="1"/>
        <pt x="46" y="729" on="1"/>
        <pt x="45" y="687" on="0"/>
        <pt x="110" y="647" on="1"/>
        <pt x="120" y="647" on="1"/>
        <pt x="121" y="647" on="1"/>
        <pt x="148" y="647" on="0"/>
        <pt x="175" y="743" on="1"/>
        <pt x="203" y="792" on="0"/>
        <pt x="243" y="792" on="1"/>
        <pt x="244" y="792" on="0"/>
        <pt x="245" y="792" on="1"/>
        <pt x="301" y="789" on="0"/>
        <pt x="346" y="706" on="1"/>
        <pt x="349" y="667" on="0"/>
      </contour>
    </TTGlyph>
    <TTGlyph name="P" xMin="-5" yMin="-43" xMax="432" yMax="657">
      <contour>
        <pt x="204" y="657" on="1"/>
        <pt x="220" y="657" on="1"/>
        <pt x="383" y="657" on="0"/>
        <pt x="429" y="539" on="1"/>
        <pt x="432" y="507" on="1"/>
        <pt x="432" y="497" on="1"/>
        <pt x="432" y="381" on="0"/>
        <pt x="291" y="282" on="1"/>
        <pt x="257" y="272" on="0"/>
        <pt x="257" y="260" on="1"/>
        <pt x="297" y="107" on="0"/>
        <pt x="297" y="10" on="1"/>
        <pt x="297" y="-3" on="1"/>
        <pt x="297" y="-43" on="0"/>
        <pt x="264" y="-43" on="1"/>
        <pt x="239" y="-40" on="0"/>
        <pt x="239" y="-18" on="1"/>
        <pt x="239" y="7" on="1"/>
        <pt x="239" y="122" on="0"/>
        <pt x="197" y="257" on="1"/>
        <pt x="116" y="264" on="0"/>
        <pt x="107" y="301" on="1"/>
        <pt x="107" y="307" on="1"/>
        <pt x="107" y="325" on="0"/>
        <pt x="135" y="335" on="1"/>
        <pt x="179" y="320" on="1"/>
        <pt x="179" y="322" on="1"/>
        <pt x="145" y="470" on="0"/>
        <pt x="145" y="522" on="1"/>
        <pt x="145" y="551" on="0"/>
        <pt x="179" y="551" on="1"/>
        <pt x="210" y="551" on="0"/>
        <pt x="210" y="445" on="1"/>
        <pt x="239" y="326" on="1"/>
        <pt x="311" y="350" on="0"/>
        <pt x="351" y="420" on="1"/>
        <pt x="372" y="460" on="0"/>
        <pt x="372" y="491" on="1"/>
        <pt x="372" y="504" on="1"/>
        <pt x="372" y="586" on="0"/>
        <pt x="232" y="597" on="1"/>
        <pt x="191" y="597" on="1"/>
        <pt x="54" y="582" on="0"/>
        <pt x="54" y="532" on="1"/>
        <pt x="54" y="526" on="1"/>
        <pt x="54" y="511" on="0"/>
        <pt x="70" y="479" on="1"/>
        <pt x="70" y="457" on="0"/>
        <pt x="35" y="451" on="1"/>
        <pt x="-5" y="470" on="0"/>
        <pt x="-5" y="529" on="1"/>
        <pt x="-5" y="639" on="0"/>
      </contour>
    </TTGlyph>
    <TTGlyph name="Q" xMin="42" yMin="-53" xMax="699" yMax="644">
      <contour>
        <pt x="320" y="644" on="1"/>
        <pt x="465" y="644" on="0"/>
        <pt x="524" y="369" on="1"/>
        <pt x="530" y="353" on="0"/>
        <pt x="530" y="304" on="1"/>
        <pt x="530" y="297" on="1"/>
        <pt x="530" y="192" on="0"/>
        <pt x="464" y="56" on="1"/>
        <pt x="490" y="47" on="0"/>
        <pt x="599" y="47" on="0"/>
        <pt x="670" y="85" on="1"/>
        <pt x="691" y="85" on="0"/>
        <pt x="699" y="50" on="1"/>
        <pt x="699" y="7" on="0"/>
        <pt x="532" y="-13" on="1"/>
        <pt x="530" y="-13" on="1"/>
        <pt x="417" y="4" on="1"/>
        <pt x="345" y="-53" on="0"/>
        <pt x="280" y="-53" on="1"/>
        <pt x="144" y="-53" on="0"/>
        <pt x="67" y="135" on="1"/>
        <pt x="42" y="209" on="0"/>
        <pt x="42" y="291" on="1"/>
        <pt x="42" y="306" on="1"/>
        <pt x="42" y="540" on="0"/>
        <pt x="161" y="606" on="1"/>
        <pt x="220" y="622" on="1"/>
        <pt x="242" y="619" on="1"/>
        <pt x="280" y="644" on="0"/>
      </contour>
      <contour>
        <pt x="195" y="366" on="1"/>
        <pt x="195" y="335" on="1"/>
        <pt x="195" y="159" on="0"/>
        <pt x="401" y="75" on="1"/>
        <pt x="470" y="171" on="0"/>
        <pt x="470" y="300" on="1"/>
        <pt x="470" y="306" on="1"/>
        <pt x="470" y="462" on="0"/>
        <pt x="370" y="569" on="1"/>
        <pt x="339" y="585" on="0"/>
        <pt x="324" y="585" on="1"/>
        <pt x="314" y="585" on="1"/>
        <pt x="270" y="585" on="0"/>
        <pt x="226" y="519" on="1"/>
        <pt x="195" y="451" on="0"/>
      </contour>
      <contour>
        <pt x="101" y="310" on="1"/>
        <pt x="101" y="279" on="1"/>
        <pt x="101" y="76" on="0"/>
        <pt x="245" y="12" on="1"/>
        <pt x="257" y="6" on="0"/>
        <pt x="280" y="6" on="1"/>
        <pt x="286" y="6" on="1"/>
        <pt x="326" y="6" on="0"/>
        <pt x="349" y="29" on="1"/>
        <pt x="349" y="35" on="1"/>
        <pt x="136" y="137" on="0"/>
        <pt x="136" y="350" on="1"/>
        <pt x="136" y="366" on="1"/>
        <pt x="136" y="456" on="0"/>
        <pt x="174" y="541" on="1"/>
        <pt x="167" y="541" on="1"/>
        <pt x="101" y="480" on="0"/>
      </contour>
    </TTGlyph>
    <TTGlyph name="R" xMin="12" yMin="-29" xMax="496" yMax="569">
      <contour>
        <pt x="190" y="569" on="1"/>
        <pt x="194" y="569" on="1"/>
        <pt x="315" y="547" on="0"/>
        <pt x="315" y="452" on="1"/>
        <pt x="315" y="434" on="1"/>
        <pt x="315" y="329" on="0"/>
        <pt x="181" y="225" on="1"/>
        <pt x="181" y="221" on="1"/>
        <pt x="398" y="27" on="0"/>
        <pt x="481" y="27" on="1"/>
        <pt x="496" y="16" on="0"/>
        <pt x="496" y="0" on="1"/>
        <pt x="496" y="-23" on="0"/>
        <pt x="462" y="-29" on="1"/>
        <pt x="379" y="-29" on="0"/>
        <pt x="152" y="171" on="1"/>
        <pt x="109" y="194" on="1"/>
        <pt x="106" y="194" on="1"/>
        <pt x="134" y="82" on="0"/>
        <pt x="134" y="21" on="1"/>
        <pt x="134" y="-5" on="0"/>
        <pt x="102" y="-16" on="1"/>
        <pt x="56" y="-16" on="0"/>
        <pt x="44" y="209" on="1"/>
        <pt x="12" y="313" on="0"/>
        <pt x="12" y="375" on="1"/>
        <pt x="12" y="384" on="1"/>
        <pt x="12" y="475" on="0"/>
        <pt x="52" y="475" on="1"/>
        <pt x="71" y="465" on="1"/>
        <pt x="77" y="465" on="1"/>
        <pt x="125" y="569" on="0"/>
      </contour>
      <contour>
        <pt x="109" y="302" on="1"/>
        <pt x="106" y="265" on="1"/>
        <pt x="199" y="265" on="0"/>
        <pt x="256" y="419" on="1"/>
        <pt x="256" y="456" on="1"/>
        <pt x="256" y="500" on="0"/>
        <pt x="196" y="509" on="1"/>
        <pt x="190" y="509" on="1"/>
        <pt x="127" y="509" on="0"/>
      </contour>
    </TTGlyph>
    <TTGlyph name="Racute" xMin="12" yMin="-29" xMax="496" yMax="778">
      <contour>
        <pt x="190" y="569" on="1"/>
        <pt x="194" y="569" on="1"/>
        <pt x="315" y="547" on="0"/>
        <pt x="315" y="452" on="1"/>
        <pt x="315" y="434" on="1"/>
        <pt x="315" y="329" on="0"/>
        <pt x="181" y="225" on="1"/>
        <pt x="181" y="221" on="1"/>
        <pt x="398" y="27" on="0"/>
        <pt x="481" y="27" on="1"/>
        <pt x="496" y="16" on="0"/>
        <pt x="496" y="0" on="1"/>
        <pt x="496" y="-23" on="0"/>
        <pt x="462" y="-29" on="1"/>
        <pt x="379" y="-29" on="0"/>
        <pt x="152" y="171" on="1"/>
        <pt x="109" y="194" on="1"/>
        <pt x="106" y="194" on="1"/>
        <pt x="134" y="82" on="0"/>
        <pt x="134" y="21" on="1"/>
        <pt x="134" y="-5" on="0"/>
        <pt x="102" y="-16" on="1"/>
        <pt x="56" y="-16" on="0"/>
        <pt x="44" y="209" on="1"/>
        <pt x="12" y="313" on="0"/>
        <pt x="12" y="375" on="1"/>
        <pt x="12" y="384" on="1"/>
        <pt x="12" y="475" on="0"/>
        <pt x="52" y="475" on="1"/>
        <pt x="71" y="465" on="1"/>
        <pt x="77" y="465" on="1"/>
        <pt x="125" y="569" on="0"/>
      </contour>
      <contour>
        <pt x="109" y="302" on="1"/>
        <pt x="106" y="265" on="1"/>
        <pt x="199" y="265" on="0"/>
        <pt x="256" y="419" on="1"/>
        <pt x="256" y="456" on="1"/>
        <pt x="256" y="500" on="0"/>
        <pt x="196" y="509" on="1"/>
        <pt x="190" y="509" on="1"/>
        <pt x="127" y="509" on="0"/>
      </contour>
      <contour>
        <pt x="47" y="662" on="1"/>
        <pt x="49" y="691" on="0"/>
        <pt x="77" y="700" on="1"/>
        <pt x="240" y="778" on="0"/>
        <pt x="278" y="778" on="1"/>
        <pt x="280" y="778" on="0"/>
        <pt x="281" y="778" on="1"/>
        <pt x="306" y="777" on="0"/>
        <pt x="309" y="741" on="1"/>
        <pt x="302" y="713" on="1"/>
        <pt x="166" y="665" on="0"/>
        <pt x="139" y="658" on="1"/>
        <pt x="128" y="642" on="0"/>
        <pt x="76" y="625" on="1"/>
        <pt x="52" y="627" on="0"/>
      </contour>
    </TTGlyph>
    <TTGlyph name="Rcaron" xMin="12" yMin="-29" xMax="496" yMax="891">
      <contour>
        <pt x="190" y="569" on="1"/>
        <pt x="194" y="569" on="1"/>
        <pt x="315" y="547" on="0"/>
        <pt x="315" y="452" on="1"/>
        <pt x="315" y="434" on="1"/>
        <pt x="315" y="329" on="0"/>
        <pt x="181" y="225" on="1"/>
        <pt x="181" y="221" on="1"/>
        <pt x="398" y="27" on="0"/>
        <pt x="481" y="27" on="1"/>
        <pt x="496" y="16" on="0"/>
        <pt x="496" y="0" on="1"/>
        <pt x="496" y="-23" on="0"/>
        <pt x="462" y="-29" on="1"/>
        <pt x="379" y="-29" on="0"/>
        <pt x="152" y="171" on="1"/>
        <pt x="109" y="194" on="1"/>
        <pt x="106" y="194" on="1"/>
        <pt x="134" y="82" on="0"/>
        <pt x="134" y="21" on="1"/>
        <pt x="134" y="-5" on="0"/>
        <pt x="102" y="-16" on="1"/>
        <pt x="56" y="-16" on="0"/>
        <pt x="44" y="209" on="1"/>
        <pt x="12" y="313" on="0"/>
        <pt x="12" y="375" on="1"/>
        <pt x="12" y="384" on="1"/>
        <pt x="12" y="475" on="0"/>
        <pt x="52" y="475" on="1"/>
        <pt x="71" y="465" on="1"/>
        <pt x="77" y="465" on="1"/>
        <pt x="125" y="569" on="0"/>
      </contour>
      <contour>
        <pt x="109" y="302" on="1"/>
        <pt x="106" y="265" on="1"/>
        <pt x="199" y="265" on="0"/>
        <pt x="256" y="419" on="1"/>
        <pt x="256" y="456" on="1"/>
        <pt x="256" y="500" on="0"/>
        <pt x="196" y="509" on="1"/>
        <pt x="190" y="509" on="1"/>
        <pt x="127" y="509" on="0"/>
      </contour>
      <contour>
        <pt x="254" y="697" on="1"/>
        <pt x="238" y="704" on="1"/>
        <pt x="123" y="836" on="1"/>
        <pt x="91" y="847" on="0"/>
        <pt x="91" y="854" on="1"/>
        <pt x="91" y="866" on="0"/>
        <pt x="123" y="874" on="1"/>
        <pt x="134" y="872" on="1"/>
        <pt x="160" y="869" on="0"/>
        <pt x="260" y="749" on="1"/>
        <pt x="270" y="755" on="0"/>
        <pt x="311" y="802" on="1"/>
        <pt x="379" y="891" on="0"/>
        <pt x="404" y="891" on="1"/>
        <pt x="406" y="891" on="1"/>
        <pt x="433" y="890" on="0"/>
        <pt x="433" y="877" on="1"/>
        <pt x="393" y="829" on="1"/>
        <pt x="288" y="697" on="0"/>
      </contour>
    </TTGlyph>
    <TTGlyph name="Rcommaaccent" xMin="12" yMin="-298" xMax="496" yMax="569">
      <contour>
        <pt x="190" y="569" on="1"/>
        <pt x="194" y="569" on="1"/>
        <pt x="315" y="547" on="0"/>
        <pt x="315" y="452" on="1"/>
        <pt x="315" y="434" on="1"/>
        <pt x="315" y="329" on="0"/>
        <pt x="181" y="225" on="1"/>
        <pt x="181" y="221" on="1"/>
        <pt x="398" y="27" on="0"/>
        <pt x="481" y="27" on="1"/>
        <pt x="496" y="16" on="0"/>
        <pt x="496" y="0" on="1"/>
        <pt x="496" y="-23" on="0"/>
        <pt x="462" y="-29" on="1"/>
        <pt x="379" y="-29" on="0"/>
        <pt x="152" y="171" on="1"/>
        <pt x="109" y="194" on="1"/>
        <pt x="106" y="194" on="1"/>
        <pt x="134" y="82" on="0"/>
        <pt x="134" y="21" on="1"/>
        <pt x="134" y="-5" on="0"/>
        <pt x="102" y="-16" on="1"/>
        <pt x="56" y="-16" on="0"/>
        <pt x="44" y="209" on="1"/>
        <pt x="12" y="313" on="0"/>
        <pt x="12" y="375" on="1"/>
        <pt x="12" y="384" on="1"/>
        <pt x="12" y="475" on="0"/>
        <pt x="52" y="475" on="1"/>
        <pt x="71" y="465" on="1"/>
        <pt x="77" y="465" on="1"/>
        <pt x="125" y="569" on="0"/>
      </contour>
      <contour>
        <pt x="109" y="302" on="1"/>
        <pt x="106" y="265" on="1"/>
        <pt x="199" y="265" on="0"/>
        <pt x="256" y="419" on="1"/>
        <pt x="256" y="456" on="1"/>
        <pt x="256" y="500" on="0"/>
        <pt x="196" y="509" on="1"/>
        <pt x="190" y="509" on="1"/>
        <pt x="127" y="509" on="0"/>
      </contour>
      <contour>
        <pt x="241" y="-160" on="1"/>
        <pt x="241" y="-109" on="0"/>
        <pt x="272" y="-109" on="1"/>
        <pt x="284" y="-109" on="0"/>
        <pt x="299" y="-115" on="1"/>
        <pt x="314" y="-211" on="1"/>
        <pt x="260" y="-298" on="0"/>
        <pt x="231" y="-298" on="1"/>
        <pt x="212" y="-298" on="0"/>
        <pt x="205" y="-255" on="1"/>
        <pt x="246" y="-210" on="1"/>
        <pt x="241" y="-181" on="0"/>
      </contour>
    </TTGlyph>
    <TTGlyph name="S" xMin="20" yMin="-35" xMax="432" yMax="592">
      <contour>
        <pt x="322" y="592" on="1"/>
        <pt x="332" y="592" on="1"/>
        <pt x="360" y="592" on="0"/>
        <pt x="364" y="559" on="1"/>
        <pt x="364" y="530" on="0"/>
        <pt x="285" y="530" on="1"/>
        <pt x="158" y="482" on="0"/>
        <pt x="114" y="390" on="1"/>
        <pt x="107" y="361" on="1"/>
        <pt x="107" y="355" on="1"/>
        <pt x="107" y="311" on="0"/>
        <pt x="166" y="311" on="1"/>
        <pt x="276" y="317" on="1"/>
        <pt x="387" y="317" on="0"/>
        <pt x="426" y="209" on="1"/>
        <pt x="432" y="174" on="1"/>
        <pt x="432" y="70" on="0"/>
        <pt x="264" y="-16" on="1"/>
        <pt x="214" y="-30" on="0"/>
        <pt x="176" y="-35" on="1"/>
        <pt x="74" y="-35" on="0"/>
        <pt x="32" y="80" on="1"/>
        <pt x="20" y="119" on="0"/>
        <pt x="20" y="159" on="1"/>
        <pt x="20" y="171" on="0"/>
        <pt x="39" y="184" on="1"/>
        <pt x="51" y="184" on="1"/>
        <pt x="82" y="184" on="0"/>
        <pt x="82" y="105" on="1"/>
        <pt x="108" y="27" on="0"/>
        <pt x="164" y="27" on="1"/>
        <pt x="191" y="27" on="1"/>
        <pt x="272" y="27" on="0"/>
        <pt x="351" y="121" on="1"/>
        <pt x="372" y="151" on="0"/>
        <pt x="372" y="186" on="1"/>
        <pt x="372" y="235" on="0"/>
        <pt x="295" y="255" on="1"/>
        <pt x="291" y="255" on="1"/>
        <pt x="160" y="252" on="1"/>
        <pt x="51" y="265" on="0"/>
        <pt x="51" y="342" on="1"/>
        <pt x="47" y="355" on="1"/>
        <pt x="47" y="458" on="0"/>
        <pt x="201" y="555" on="1"/>
        <pt x="268" y="592" on="0"/>
      </contour>
    </TTGlyph>
    <TTGlyph name="Sacute" xMin="20" yMin="-35" xMax="432" yMax="806">
      <contour>
        <pt x="322" y="592" on="1"/>
        <pt x="332" y="592" on="1"/>
        <pt x="360" y="592" on="0"/>
        <pt x="364" y="559" on="1"/>
        <pt x="364" y="530" on="0"/>
        <pt x="285" y="530" on="1"/>
        <pt x="158" y="482" on="0"/>
        <pt x="114" y="390" on="1"/>
        <pt x="107" y="361" on="1"/>
        <pt x="107" y="355" on="1"/>
        <pt x="107" y="311" on="0"/>
        <pt x="166" y="311" on="1"/>
        <pt x="276" y="317" on="1"/>
        <pt x="387" y="317" on="0"/>
        <pt x="426" y="209" on="1"/>
        <pt x="432" y="174" on="1"/>
        <pt x="432" y="70" on="0"/>
        <pt x="264" y="-16" on="1"/>
        <pt x="214" y="-30" on="0"/>
        <pt x="176" y="-35" on="1"/>
        <pt x="74" y="-35" on="0"/>
        <pt x="32" y="80" on="1"/>
        <pt x="20" y="119" on="0"/>
        <pt x="20" y="159" on="1"/>
        <pt x="20" y="171" on="0"/>
        <pt x="39" y="184" on="1"/>
        <pt x="51" y="184" on="1"/>
        <pt x="82" y="184" on="0"/>
        <pt x="82" y="105" on="1"/>
        <pt x="108" y="27" on="0"/>
        <pt x="164" y="27" on="1"/>
        <pt x="191" y="27" on="1"/>
        <pt x="272" y="27" on="0"/>
        <pt x="351" y="121" on="1"/>
        <pt x="372" y="151" on="0"/>
        <pt x="372" y="186" on="1"/>
        <pt x="372" y="235" on="0"/>
        <pt x="295" y="255" on="1"/>
        <pt x="291" y="255" on="1"/>
        <pt x="160" y="252" on="1"/>
        <pt x="51" y="265" on="0"/>
        <pt x="51" y="342" on="1"/>
        <pt x="47" y="355" on="1"/>
        <pt x="47" y="458" on="0"/>
        <pt x="201" y="555" on="1"/>
        <pt x="268" y="592" on="0"/>
      </contour>
      <contour>
        <pt x="91" y="690" on="1"/>
        <pt x="93" y="719" on="0"/>
        <pt x="121" y="728" on="1"/>
        <pt x="284" y="806" on="0"/>
        <pt x="322" y="806" on="1"/>
        <pt x="324" y="806" on="0"/>
        <pt x="325" y="806" on="1"/>
        <pt x="350" y="805" on="0"/>
        <pt x="353" y="769" on="1"/>
        <pt x="346" y="741" on="1"/>
        <pt x="210" y="693" on="0"/>
        <pt x="183" y="686" on="1"/>
        <pt x="172" y="670" on="0"/>
        <pt x="120" y="653" on="1"/>
        <pt x="96" y="655" on="0"/>
      </contour>
    </TTGlyph>
    <TTGlyph name="Scaron" xMin="20" yMin="-35" xMax="432" yMax="812">
      <contour>
        <pt x="322" y="592" on="1"/>
        <pt x="332" y="592" on="1"/>
        <pt x="360" y="592" on="0"/>
        <pt x="364" y="559" on="1"/>
        <pt x="364" y="530" on="0"/>
        <pt x="285" y="530" on="1"/>
        <pt x="158" y="482" on="0"/>
        <pt x="114" y="390" on="1"/>
        <pt x="107" y="361" on="1"/>
        <pt x="107" y="355" on="1"/>
        <pt x="107" y="311" on="0"/>
        <pt x="166" y="311" on="1"/>
        <pt x="276" y="317" on="1"/>
        <pt x="387" y="317" on="0"/>
        <pt x="426" y="209" on="1"/>
        <pt x="432" y="174" on="1"/>
        <pt x="432" y="70" on="0"/>
        <pt x="264" y="-16" on="1"/>
        <pt x="214" y="-30" on="0"/>
        <pt x="176" y="-35" on="1"/>
        <pt x="74" y="-35" on="0"/>
        <pt x="32" y="80" on="1"/>
        <pt x="20" y="119" on="0"/>
        <pt x="20" y="159" on="1"/>
        <pt x="20" y="171" on="0"/>
        <pt x="39" y="184" on="1"/>
        <pt x="51" y="184" on="1"/>
        <pt x="82" y="184" on="0"/>
        <pt x="82" y="105" on="1"/>
        <pt x="108" y="27" on="0"/>
        <pt x="164" y="27" on="1"/>
        <pt x="191" y="27" on="1"/>
        <pt x="272" y="27" on="0"/>
        <pt x="351" y="121" on="1"/>
        <pt x="372" y="151" on="0"/>
        <pt x="372" y="186" on="1"/>
        <pt x="372" y="235" on="0"/>
        <pt x="295" y="255" on="1"/>
        <pt x="291" y="255" on="1"/>
        <pt x="160" y="252" on="1"/>
        <pt x="51" y="265" on="0"/>
        <pt x="51" y="342" on="1"/>
        <pt x="47" y="355" on="1"/>
        <pt x="47" y="458" on="0"/>
        <pt x="201" y="555" on="1"/>
        <pt x="268" y="592" on="0"/>
      </contour>
      <contour>
        <pt x="212" y="618" on="1"/>
        <pt x="196" y="625" on="1"/>
        <pt x="81" y="757" on="1"/>
        <pt x="49" y="768" on="0"/>
        <pt x="49" y="775" on="1"/>
        <pt x="49" y="787" on="0"/>
        <pt x="81" y="795" on="1"/>
        <pt x="92" y="793" on="1"/>
        <pt x="118" y="790" on="0"/>
        <pt x="218" y="670" on="1"/>
        <pt x="228" y="676" on="0"/>
        <pt x="269" y="723" on="1"/>
        <pt x="337" y="812" on="0"/>
        <pt x="362" y="812" on="1"/>
        <pt x="364" y="812" on="1"/>
        <pt x="391" y="810" on="0"/>
        <pt x="391" y="798" on="1"/>
        <pt x="351" y="750" on="1"/>
        <pt x="246" y="618" on="0"/>
      </contour>
    </TTGlyph>
    <TTGlyph name="Scedilla" xMin="20" yMin="-313" xMax="432" yMax="592">
      <contour>
        <pt x="322" y="592" on="1"/>
        <pt x="332" y="592" on="1"/>
        <pt x="360" y="592" on="0"/>
        <pt x="364" y="559" on="1"/>
        <pt x="364" y="530" on="0"/>
        <pt x="285" y="530" on="1"/>
        <pt x="158" y="482" on="0"/>
        <pt x="114" y="390" on="1"/>
        <pt x="107" y="361" on="1"/>
        <pt x="107" y="355" on="1"/>
        <pt x="107" y="311" on="0"/>
        <pt x="166" y="311" on="1"/>
        <pt x="276" y="317" on="1"/>
        <pt x="387" y="317" on="0"/>
        <pt x="426" y="209" on="1"/>
        <pt x="432" y="174" on="1"/>
        <pt x="432" y="70" on="0"/>
        <pt x="264" y="-16" on="1"/>
        <pt x="241" y="-23" on="0"/>
        <pt x="220" y="-28" on="1"/>
        <pt x="196" y="-71" on="1"/>
        <pt x="196" y="-79" on="1"/>
        <pt x="196" y="-92" on="0"/>
        <pt x="300" y="-121" on="1"/>
        <pt x="344" y="-150" on="0"/>
        <pt x="344" y="-191" on="1"/>
        <pt x="344" y="-259" on="0"/>
        <pt x="247" y="-308" on="1"/>
        <pt x="219" y="-313" on="1"/>
        <pt x="157" y="-305" on="0"/>
        <pt x="157" y="-243" on="1"/>
        <pt x="157" y="-240" on="1"/>
        <pt x="157" y="-221" on="0"/>
        <pt x="180" y="-216" on="1"/>
        <pt x="200" y="-216" on="0"/>
        <pt x="204" y="-259" on="1"/>
        <pt x="210" y="-264" on="1"/>
        <pt x="221" y="-264" on="1"/>
        <pt x="264" y="-264" on="0"/>
        <pt x="300" y="-199" on="1"/>
        <pt x="300" y="-189" on="1"/>
        <pt x="300" y="-164" on="0"/>
        <pt x="204" y="-141" on="1"/>
        <pt x="152" y="-119" on="0"/>
        <pt x="152" y="-76" on="1"/>
        <pt x="152" y="-47" on="0"/>
        <pt x="156" y="-34" on="1"/>
        <pt x="69" y="-23" on="0"/>
        <pt x="32" y="80" on="1"/>
        <pt x="20" y="119" on="0"/>
        <pt x="20" y="159" on="1"/>
        <pt x="20" y="171" on="0"/>
        <pt x="39" y="184" on="1"/>
        <pt x="51" y="184" on="1"/>
        <pt x="82" y="184" on="0"/>
        <pt x="82" y="105" on="1"/>
        <pt x="108" y="27" on="0"/>
        <pt x="164" y="27" on="1"/>
        <pt x="191" y="27" on="1"/>
        <pt x="272" y="27" on="0"/>
        <pt x="351" y="121" on="1"/>
        <pt x="372" y="151" on="0"/>
        <pt x="372" y="186" on="1"/>
        <pt x="372" y="235" on="0"/>
        <pt x="295" y="255" on="1"/>
        <pt x="291" y="255" on="1"/>
        <pt x="160" y="252" on="1"/>
        <pt x="51" y="265" on="0"/>
        <pt x="51" y="342" on="1"/>
        <pt x="47" y="355" on="1"/>
        <pt x="47" y="458" on="0"/>
        <pt x="201" y="555" on="1"/>
        <pt x="268" y="592" on="0"/>
      </contour>
    </TTGlyph>
    <TTGlyph name="Scircumflex" xMin="20" yMin="-35" xMax="432" yMax="906">
      <contour>
        <pt x="322" y="592" on="1"/>
        <pt x="332" y="592" on="1"/>
        <pt x="360" y="592" on="0"/>
        <pt x="364" y="559" on="1"/>
        <pt x="364" y="530" on="0"/>
        <pt x="285" y="530" on="1"/>
        <pt x="158" y="482" on="0"/>
        <pt x="114" y="390" on="1"/>
        <pt x="107" y="361" on="1"/>
        <pt x="107" y="355" on="1"/>
        <pt x="107" y="311" on="0"/>
        <pt x="166" y="311" on="1"/>
        <pt x="276" y="317" on="1"/>
        <pt x="387" y="317" on="0"/>
        <pt x="426" y="209" on="1"/>
        <pt x="432" y="174" on="1"/>
        <pt x="432" y="70" on="0"/>
        <pt x="264" y="-16" on="1"/>
        <pt x="214" y="-30" on="0"/>
        <pt x="176" y="-35" on="1"/>
        <pt x="74" y="-35" on="0"/>
        <pt x="32" y="80" on="1"/>
        <pt x="20" y="119" on="0"/>
        <pt x="20" y="159" on="1"/>
        <pt x="20" y="171" on="0"/>
        <pt x="39" y="184" on="1"/>
        <pt x="51" y="184" on="1"/>
        <pt x="82" y="184" on="0"/>
        <pt x="82" y="105" on="1"/>
        <pt x="108" y="27" on="0"/>
        <pt x="164" y="27" on="1"/>
        <pt x="191" y="27" on="1"/>
        <pt x="272" y="27" on="0"/>
        <pt x="351" y="121" on="1"/>
        <pt x="372" y="151" on="0"/>
        <pt x="372" y="186" on="1"/>
        <pt x="372" y="235" on="0"/>
        <pt x="295" y="255" on="1"/>
        <pt x="291" y="255" on="1"/>
        <pt x="160" y="252" on="1"/>
        <pt x="51" y="265" on="0"/>
        <pt x="51" y="342" on="1"/>
        <pt x="47" y="355" on="1"/>
        <pt x="47" y="458" on="0"/>
        <pt x="201" y="555" on="1"/>
        <pt x="268" y="592" on="0"/>
      </contour>
      <contour>
        <pt x="211" y="899" on="1"/>
        <pt x="227" y="906" on="1"/>
        <pt x="257" y="906" on="0"/>
        <pt x="353" y="762" on="1"/>
        <pt x="391" y="708" on="1"/>
        <pt x="391" y="696" on="0"/>
        <pt x="367" y="693" on="1"/>
        <pt x="341" y="691" on="1"/>
        <pt x="341" y="694" on="0"/>
        <pt x="269" y="779" on="1"/>
        <pt x="249" y="828" on="0"/>
        <pt x="236" y="828" on="1"/>
        <pt x="232" y="828" on="0"/>
        <pt x="229" y="823" on="1"/>
        <pt x="140" y="718" on="0"/>
        <pt x="133" y="697" on="1"/>
        <pt x="106" y="712" on="1"/>
        <pt x="77" y="718" on="0"/>
        <pt x="77" y="734" on="1"/>
        <pt x="77" y="742" on="0"/>
        <pt x="106" y="753" on="1"/>
      </contour>
    </TTGlyph>
    <TTGlyph name="Scommaaccent" xMin="20" yMin="-298" xMax="432" yMax="592">
      <contour>
        <pt x="322" y="592" on="1"/>
        <pt x="332" y="592" on="1"/>
        <pt x="360" y="592" on="0"/>
        <pt x="364" y="559" on="1"/>
        <pt x="364" y="530" on="0"/>
        <pt x="285" y="530" on="1"/>
        <pt x="158" y="482" on="0"/>
        <pt x="114" y="390" on="1"/>
        <pt x="107" y="361" on="1"/>
        <pt x="107" y="355" on="1"/>
        <pt x="107" y="311" on="0"/>
        <pt x="166" y="311" on="1"/>
        <pt x="276" y="317" on="1"/>
        <pt x="387" y="317" on="0"/>
        <pt x="426" y="209" on="1"/>
        <pt x="432" y="174" on="1"/>
        <pt x="432" y="70" on="0"/>
        <pt x="264" y="-16" on="1"/>
        <pt x="214" y="-30" on="0"/>
        <pt x="176" y="-35" on="1"/>
        <pt x="74" y="-35" on="0"/>
        <pt x="32" y="80" on="1"/>
        <pt x="20" y="119" on="0"/>
        <pt x="20" y="159" on="1"/>
        <pt x="20" y="171" on="0"/>
        <pt x="39" y="184" on="1"/>
        <pt x="51" y="184" on="1"/>
        <pt x="82" y="184" on="0"/>
        <pt x="82" y="105" on="1"/>
        <pt x="108" y="27" on="0"/>
        <pt x="164" y="27" on="1"/>
        <pt x="191" y="27" on="1"/>
        <pt x="272" y="27" on="0"/>
        <pt x="351" y="121" on="1"/>
        <pt x="372" y="151" on="0"/>
        <pt x="372" y="186" on="1"/>
        <pt x="372" y="235" on="0"/>
        <pt x="295" y="255" on="1"/>
        <pt x="291" y="255" on="1"/>
        <pt x="160" y="252" on="1"/>
        <pt x="51" y="265" on="0"/>
        <pt x="51" y="342" on="1"/>
        <pt x="47" y="355" on="1"/>
        <pt x="47" y="458" on="0"/>
        <pt x="201" y="555" on="1"/>
        <pt x="268" y="592" on="0"/>
      </contour>
      <contour>
        <pt x="241" y="-160" on="1"/>
        <pt x="241" y="-109" on="0"/>
        <pt x="272" y="-109" on="1"/>
        <pt x="284" y="-109" on="0"/>
        <pt x="299" y="-115" on="1"/>
        <pt x="314" y="-211" on="1"/>
        <pt x="260" y="-298" on="0"/>
        <pt x="231" y="-298" on="1"/>
        <pt x="212" y="-298" on="0"/>
        <pt x="205" y="-255" on="1"/>
        <pt x="246" y="-210" on="1"/>
        <pt x="241" y="-181" on="0"/>
      </contour>
    </TTGlyph>
    <TTGlyph name="T" xMin="-5" yMin="-88" xMax="539" yMax="650">
      <contour>
        <pt x="214" y="631" on="1"/>
        <pt x="514" y="650" on="1"/>
        <pt x="527" y="650" on="0"/>
        <pt x="539" y="625" on="1"/>
        <pt x="539" y="587" on="0"/>
        <pt x="451" y="587" on="1"/>
        <pt x="276" y="577" on="1"/>
        <pt x="272" y="575" on="1"/>
        <pt x="297" y="412" on="0"/>
        <pt x="297" y="-44" on="1"/>
        <pt x="292" y="-88" on="0"/>
        <pt x="239" y="-88" on="0"/>
        <pt x="235" y="-48" on="1"/>
        <pt x="235" y="184" on="1"/>
        <pt x="235" y="416" on="0"/>
        <pt x="214" y="571" on="1"/>
        <pt x="35" y="554" on="0"/>
        <pt x="35" y="531" on="1"/>
        <pt x="26" y="527" on="1"/>
        <pt x="-5" y="536" on="0"/>
        <pt x="-5" y="559" on="1"/>
        <pt x="-5" y="614" on="0"/>
      </contour>
    </TTGlyph>
    <TTGlyph name="Tbar" xMin="-5" yMin="-88" xMax="539" yMax="650">
      <contour>
        <pt x="287" y="415" on="1"/>
        <pt x="357" y="420" on="1"/>
        <pt x="382" y="420" on="0"/>
        <pt x="386" y="389" on="1"/>
        <pt x="386" y="357" on="0"/>
        <pt x="292" y="357" on="1"/>
        <pt x="290" y="356" on="1"/>
        <pt x="297" y="208" on="0"/>
        <pt x="297" y="-44" on="1"/>
        <pt x="292" y="-88" on="0"/>
        <pt x="239" y="-88" on="0"/>
        <pt x="235" y="-48" on="1"/>
        <pt x="235" y="184" on="1"/>
        <pt x="235" y="281" on="0"/>
        <pt x="231" y="350" on="1"/>
        <pt x="196" y="347" on="0"/>
        <pt x="170" y="347" on="1"/>
        <pt x="105" y="355" on="0"/>
        <pt x="105" y="385" on="1"/>
        <pt x="105" y="406" on="0"/>
        <pt x="132" y="416" on="1"/>
        <pt x="170" y="407" on="1"/>
        <pt x="176" y="407" on="1"/>
        <pt x="229" y="411" on="1"/>
        <pt x="224" y="501" on="0"/>
        <pt x="214" y="571" on="1"/>
        <pt x="35" y="554" on="0"/>
        <pt x="35" y="531" on="1"/>
        <pt x="26" y="527" on="1"/>
        <pt x="-5" y="536" on="0"/>
        <pt x="-5" y="559" on="1"/>
        <pt x="-5" y="614" on="0"/>
        <pt x="214" y="631" on="1"/>
        <pt x="514" y="650" on="1"/>
        <pt x="527" y="650" on="0"/>
        <pt x="539" y="625" on="1"/>
        <pt x="539" y="587" on="0"/>
        <pt x="451" y="587" on="1"/>
        <pt x="276" y="577" on="1"/>
        <pt x="272" y="575" on="1"/>
        <pt x="281" y="513" on="0"/>
      </contour>
    </TTGlyph>
    <TTGlyph name="Tcaron" xMin="-5" yMin="-88" xMax="539" yMax="891">
      <contour>
        <pt x="214" y="631" on="1"/>
        <pt x="514" y="650" on="1"/>
        <pt x="527" y="650" on="0"/>
        <pt x="539" y="625" on="1"/>
        <pt x="539" y="587" on="0"/>
        <pt x="451" y="587" on="1"/>
        <pt x="276" y="577" on="1"/>
        <pt x="272" y="575" on="1"/>
        <pt x="297" y="412" on="0"/>
        <pt x="297" y="-44" on="1"/>
        <pt x="292" y="-88" on="0"/>
        <pt x="239" y="-88" on="0"/>
        <pt x="235" y="-48" on="1"/>
        <pt x="235" y="184" on="1"/>
        <pt x="235" y="416" on="0"/>
        <pt x="214" y="571" on="1"/>
        <pt x="35" y="554" on="0"/>
        <pt x="35" y="531" on="1"/>
        <pt x="26" y="527" on="1"/>
        <pt x="-5" y="536" on="0"/>
        <pt x="-5" y="559" on="1"/>
        <pt x="-5" y="614" on="0"/>
      </contour>
      <contour>
        <pt x="206" y="697" on="1"/>
        <pt x="190" y="704" on="1"/>
        <pt x="75" y="836" on="1"/>
        <pt x="43" y="847" on="0"/>
        <pt x="43" y="854" on="1"/>
        <pt x="43" y="866" on="0"/>
        <pt x="75" y="874" on="1"/>
        <pt x="86" y="872" on="1"/>
        <pt x="112" y="869" on="0"/>
        <pt x="212" y="749" on="1"/>
        <pt x="222" y="755" on="0"/>
        <pt x="263" y="802" on="1"/>
        <pt x="331" y="891" on="0"/>
        <pt x="356" y="891" on="1"/>
        <pt x="358" y="891" on="1"/>
        <pt x="385" y="890" on="0"/>
        <pt x="385" y="877" on="1"/>
        <pt x="345" y="829" on="1"/>
        <pt x="240" y="697" on="0"/>
      </contour>
    </TTGlyph>
    <TTGlyph name="Tcommaaccent" xMin="-5" yMin="-357" xMax="539" yMax="650">
      <contour>
        <pt x="214" y="631" on="1"/>
        <pt x="514" y="650" on="1"/>
        <pt x="527" y="650" on="0"/>
        <pt x="539" y="625" on="1"/>
        <pt x="539" y="587" on="0"/>
        <pt x="451" y="587" on="1"/>
        <pt x="276" y="577" on="1"/>
        <pt x="272" y="575" on="1"/>
        <pt x="297" y="412" on="0"/>
        <pt x="297" y="-44" on="1"/>
        <pt x="292" y="-88" on="0"/>
        <pt x="239" y="-88" on="0"/>
        <pt x="235" y="-48" on="1"/>
        <pt x="235" y="184" on="1"/>
        <pt x="235" y="416" on="0"/>
        <pt x="214" y="571" on="1"/>
        <pt x="35" y="554" on="0"/>
        <pt x="35" y="531" on="1"/>
        <pt x="26" y="527" on="1"/>
        <pt x="-5" y="536" on="0"/>
        <pt x="-5" y="559" on="1"/>
        <pt x="-5" y="614" on="0"/>
      </contour>
      <contour>
        <pt x="247" y="-219" on="1"/>
        <pt x="247" y="-168" on="0"/>
        <pt x="278" y="-168" on="1"/>
        <pt x="290" y="-168" on="0"/>
        <pt x="305" y="-174" on="1"/>
        <pt x="320" y="-270" on="1"/>
        <pt x="266" y="-357" on="0"/>
        <pt x="237" y="-357" on="1"/>
        <pt x="218" y="-357" on="0"/>
        <pt x="211" y="-314" on="1"/>
        <pt x="252" y="-269" on="1"/>
        <pt x="247" y="-240" on="0"/>
      </contour>
    </TTGlyph>
    <TTGlyph name="Thorn" xMin="37" yMin="-8" xMax="276" yMax="606">
      <contour>
        <pt x="78" y="-8" on="1"/>
        <pt x="64" y="-8" on="0"/>
        <pt x="46" y="14" on="1"/>
        <pt x="52" y="540" on="1"/>
        <pt x="37" y="577" on="1"/>
        <pt x="37" y="596" on="0"/>
        <pt x="65" y="606" on="1"/>
        <pt x="100" y="606" on="0"/>
        <pt x="100" y="481" on="1"/>
        <pt x="100" y="422" on="0"/>
        <pt x="92" y="336" on="1"/>
        <pt x="140" y="430" on="0"/>
        <pt x="167" y="430" on="1"/>
        <pt x="167" y="435" on="0"/>
        <pt x="189" y="436" on="1"/>
        <pt x="192" y="436" on="1"/>
        <pt x="260" y="436" on="0"/>
        <pt x="276" y="334" on="1"/>
        <pt x="276" y="330" on="1"/>
        <pt x="276" y="244" on="0"/>
        <pt x="189" y="136" on="1"/>
        <pt x="152" y="96" on="0"/>
        <pt x="107" y="96" on="1"/>
        <pt x="106" y="-8" on="0"/>
      </contour>
      <contour>
        <pt x="124" y="165" on="1"/>
        <pt x="126" y="165" on="1"/>
        <pt x="180" y="186" on="0"/>
        <pt x="217" y="309" on="1"/>
        <pt x="217" y="346" on="1"/>
        <pt x="210" y="377" on="0"/>
        <pt x="195" y="377" on="1"/>
        <pt x="186" y="377" on="1"/>
        <pt x="143" y="351" on="0"/>
      </contour>
    </TTGlyph>
    <TTGlyph name="U" xMin="32" yMin="-50" xMax="372" yMax="594">
      <contour>
        <pt x="247" y="594" on="0"/>
        <pt x="335" y="594" on="0"/>
        <pt x="335" y="431" on="1"/>
        <pt x="322" y="284" on="1"/>
        <pt x="322" y="96" on="0"/>
        <pt x="372" y="-6" on="1"/>
        <pt x="372" y="-10" on="1"/>
        <pt x="372" y="-30" on="0"/>
        <pt x="345" y="-35" on="1"/>
        <pt x="341" y="-35" on="1"/>
        <pt x="304" y="-33" on="0"/>
        <pt x="276" y="106" on="1"/>
        <pt x="272" y="106" on="1"/>
        <pt x="220" y="-50" on="0"/>
        <pt x="58" y="-50" on="0"/>
        <pt x="35" y="81" on="1"/>
        <pt x="32" y="140" on="1"/>
        <pt x="32" y="159" on="1"/>
        <pt x="47" y="387" on="1"/>
        <pt x="47" y="431" on="1"/>
        <pt x="47" y="451" on="0"/>
        <pt x="70" y="462" on="1"/>
        <pt x="79" y="462" on="1"/>
        <pt x="107" y="462" on="0"/>
        <pt x="107" y="425" on="1"/>
        <pt x="107" y="419" on="1"/>
        <pt x="91" y="152" on="1"/>
        <pt x="91" y="115" on="1"/>
        <pt x="91" y="35" on="0"/>
        <pt x="129" y="9" on="1"/>
        <pt x="147" y="9" on="1"/>
        <pt x="198" y="40" on="0"/>
        <pt x="245" y="219" on="1"/>
        <pt x="260" y="287" on="1"/>
        <pt x="247" y="450" on="1"/>
      </contour>
    </TTGlyph>
    <TTGlyph name="Uacute" xMin="24" yMin="-50" xMax="372" yMax="741">
      <contour>
        <pt x="247" y="594" on="0"/>
        <pt x="335" y="594" on="0"/>
        <pt x="335" y="431" on="1"/>
        <pt x="322" y="284" on="1"/>
        <pt x="322" y="96" on="0"/>
        <pt x="372" y="-6" on="1"/>
        <pt x="372" y="-10" on="1"/>
        <pt x="372" y="-30" on="0"/>
        <pt x="345" y="-35" on="1"/>
        <pt x="341" y="-35" on="1"/>
        <pt x="304" y="-33" on="0"/>
        <pt x="276" y="106" on="1"/>
        <pt x="272" y="106" on="1"/>
        <pt x="220" y="-50" on="0"/>
        <pt x="58" y="-50" on="0"/>
        <pt x="35" y="81" on="1"/>
        <pt x="32" y="140" on="1"/>
        <pt x="32" y="159" on="1"/>
        <pt x="47" y="387" on="1"/>
        <pt x="47" y="431" on="1"/>
        <pt x="47" y="451" on="0"/>
        <pt x="70" y="462" on="1"/>
        <pt x="79" y="462" on="1"/>
        <pt x="107" y="462" on="0"/>
        <pt x="107" y="425" on="1"/>
        <pt x="107" y="419" on="1"/>
        <pt x="91" y="152" on="1"/>
        <pt x="91" y="115" on="1"/>
        <pt x="91" y="35" on="0"/>
        <pt x="129" y="9" on="1"/>
        <pt x="147" y="9" on="1"/>
        <pt x="198" y="40" on="0"/>
        <pt x="245" y="219" on="1"/>
        <pt x="260" y="287" on="1"/>
        <pt x="247" y="450" on="1"/>
      </contour>
      <contour>
        <pt x="24" y="625" on="1"/>
        <pt x="26" y="654" on="0"/>
        <pt x="54" y="663" on="1"/>
        <pt x="217" y="741" on="0"/>
        <pt x="255" y="741" on="1"/>
        <pt x="257" y="741" on="0"/>
        <pt x="258" y="741" on="1"/>
        <pt x="283" y="740" on="0"/>
        <pt x="286" y="704" on="1"/>
        <pt x="279" y="676" on="1"/>
        <pt x="143" y="628" on="0"/>
        <pt x="116" y="621" on="1"/>
        <pt x="106" y="604" on="0"/>
        <pt x="53" y="588" on="1"/>
        <pt x="29" y="590" on="0"/>
      </contour>
    </TTGlyph>
</ttFont>
